<?xml version="1.0" standalone="no"?>
<!DOCTYPE svg PUBLIC "-//W3C//DTD SVG 20010904//EN"
 "http://www.w3.org/TR/2001/REC-SVG-20010904/DTD/svg10.dtd">
<svg version="1.0" xmlns="http://www.w3.org/2000/svg"
 width="90.000000pt" height="90.000000pt" viewBox="0 0 90.000000 90.000000"
 preserveAspectRatio="xMidYMid meet">

<g transform="translate(0.000000,90.000000) scale(0.100000,-0.100000)"
fill="#000000" stroke="none">
<path d="M263 789 c-44 -28 -62 -59 -64 -115 -1 -27 -7 -62 -12 -77 -8 -24 -5
-32 14 -54 13 -13 36 -31 52 -39 15 -8 27 -18 27 -22 0 -5 -29 -19 -65 -33
-36 -13 -65 -29 -65 -35 0 -26 27 -43 75 -46 l50 -3 -4 -44 c-2 -30 -11 -52
-28 -70 -32 -34 -44 -65 -37 -100 4 -20 2 -30 -10 -34 -9 -4 -16 -13 -16 -22
0 -33 120 -8 158 32 21 23 29 25 80 20 57 -6 59 -7 103 -68 18 -25 68 -30 94
-9 14 12 14 15 0 30 -21 24 -20 26 33 55 56 31 92 79 99 135 3 23 12 44 20 47
34 13 48 116 20 151 -5 6 -12 26 -16 44 -7 32 -31 52 -31 25 0 -7 -9 -22 -20
-32 -11 -10 -20 -30 -20 -44 -1 -14 -7 -37 -14 -51 -13 -22 -12 -28 16 -63 28
-35 29 -40 17 -68 -15 -38 -63 -69 -105 -69 -28 0 -36 7 -68 61 -20 33 -34 64
-31 69 2 4 22 10 43 14 48 7 71 30 55 54 -5 10 -19 17 -30 18 -23 1 -112 33
-130 46 -9 7 -8 18 4 46 30 71 -3 213 -57 252 -36 26 -96 26 -137 -1z"/>
</g>
</svg>
