<?xml version="1.0" standalone="no"?>
<!DOCTYPE svg PUBLIC "-//W3C//DTD SVG 20010904//EN"
 "http://www.w3.org/TR/2001/REC-SVG-20010904/DTD/svg10.dtd">
<svg version="1.0" xmlns="http://www.w3.org/2000/svg"
 width="90.000000pt" height="90.000000pt" viewBox="0 0 90.000000 90.000000"
 preserveAspectRatio="xMidYMid meet">

<g transform="translate(0.000000,90.000000) scale(0.100000,-0.100000)"
fill="#000000" stroke="none">
<path d="M664 803 c-18 -24 -28 -26 -125 -32 -114 -8 -177 -32 -198 -77 -9
-20 -18 -24 -58 -24 -25 0 -62 5 -80 12 -44 16 -63 4 -84 -53 -9 -24 -26 -65
-38 -92 -12 -26 -27 -72 -34 -102 -10 -52 -10 -56 13 -81 14 -14 37 -32 53
-40 21 -11 27 -22 27 -47 1 -17 8 -50 16 -72 9 -22 19 -53 23 -70 6 -27 10
-29 51 -28 45 1 71 21 107 79 11 18 14 17 48 -19 22 -22 35 -44 31 -52 -3 -10
1 -15 13 -15 10 0 21 -3 25 -7 21 -21 67 -9 110 28 24 22 48 39 53 39 5 0 16
-11 23 -25 14 -26 56 -40 101 -33 39 5 69 62 69 129 0 32 -5 69 -11 83 -10 22
-8 29 19 60 56 64 54 133 -9 258 -41 81 -46 106 -29 139 8 15 7 19 -5 19 -8 0
-15 9 -15 20 0 23 -4 24 -30 10 -13 -7 -19 -6 -24 5 -8 21 -18 18 -42 -12z"/>
</g>
</svg>
