<?xml version="1.0" standalone="no"?>
<!DOCTYPE svg PUBLIC "-//W3C//DTD SVG 20010904//EN"
 "http://www.w3.org/TR/2001/REC-SVG-20010904/DTD/svg10.dtd">
<svg version="1.0" xmlns="http://www.w3.org/2000/svg"
 width="1366.000000pt" height="768.000000pt" viewBox="0 0 1366.000000 768.000000"
 preserveAspectRatio="xMidYMid meet">

<g transform="translate(0.000000,768.000000) scale(0.100000,-0.100000)"
fill="#000000" stroke="none">
<path d="M12327 5223 c-25 -32 -56 -69 -69 -83 -14 -14 -27 -33 -31 -42 -3
-10 -14 -18 -22 -18 -12 0 -15 -6 -10 -21 4 -12 3 -24 -2 -28 -5 -3 -16 -18
-25 -32 -15 -24 -181 -128 -333 -209 -33 -17 -64 -36 -69 -41 -6 -5 -18 -9
-28 -9 -11 0 -33 -7 -49 -16 -24 -12 -34 -13 -45 -3 -12 10 -13 9 -8 -6 6 -15
3 -17 -14 -13 -12 4 -25 2 -28 -3 -3 -5 -14 -9 -26 -9 -11 0 -22 -8 -25 -20
-6 -22 -19 -26 -25 -8 -3 9 -10 7 -23 -6 -12 -12 -21 -14 -23 -7 -5 15 -29 14
-35 -1 -4 -10 -6 -10 -6 -1 -1 9 -8 10 -26 3 -16 -6 -25 -6 -25 0 0 6 -21 10
-46 10 -27 0 -43 -4 -39 -10 8 -14 -8 -13 -22 1 -6 6 -31 15 -55 20 -60 13
-317 46 -413 54 -44 4 -91 9 -105 11 -14 2 -68 9 -120 14 -100 10 -148 24
-193 53 -34 22 -40 21 -62 -3 -21 -23 -15 -23 -255 6 -196 24 -292 44 -321 65
-29 20 -98 26 -127 10 -20 -11 -109 3 -167 25 -34 14 -103 21 -225 24 -14 1
-42 -1 -63 -4 -32 -4 -37 -3 -27 8 9 12 1 17 -44 30 -30 9 -72 16 -94 16 -21
0 -60 3 -85 6 -37 5 -47 11 -49 28 -2 11 -15 26 -29 33 -22 11 -43 8 -140 -17
-63 -16 -134 -30 -159 -31 -80 -3 -127 -18 -189 -59 -41 -27 -82 -45 -128 -55
-106 -22 -163 -39 -226 -68 -32 -15 -62 -27 -67 -27 -31 0 -320 -130 -552
-247 -151 -76 -282 -136 -302 -138 -19 -2 -44 -8 -55 -15 -12 -6 -32 -10 -44
-8 -18 2 -23 -3 -25 -24 -2 -16 -8 -28 -13 -28 -6 0 -7 -5 -3 -11 3 -6 -6 -22
-21 -35 -28 -24 -69 -32 -79 -15 -8 13 -52 1 -75 -20 -12 -11 -21 -18 -21 -15
0 2 -14 0 -32 -5 -21 -5 -36 -5 -42 1 -6 6 -19 10 -29 10 -17 0 -17 -2 -6 -16
11 -13 9 -15 -12 -10 -81 20 -276 2 -326 -30 -11 -7 -50 -14 -85 -15 -34 0
-85 -2 -113 -2 -27 -1 -75 2 -105 6 -54 6 -55 6 -20 -7 19 -8 29 -15 23 -15
-7 -1 -13 -7 -13 -14 0 -8 -14 -13 -37 -14 -24 0 -29 1 -13 4 55 10 34 18 -58
21 -69 2 -99 7 -105 17 -6 11 -44 14 -180 14 -94 0 -176 1 -182 2 -5 1 -28 3
-50 5 -56 4 -119 15 -125 23 -10 12 -80 32 -91 26 -6 -4 -25 6 -42 22 -70 64
-231 111 -437 128 -100 9 -121 18 -169 75 -46 55 -65 61 -249 85 -62 8 -118
17 -123 21 -5 3 -92 10 -192 14 -100 5 -218 17 -262 25 -44 9 -101 16 -126 16
-25 0 -82 6 -125 13 -59 10 -146 13 -339 9 -143 -2 -267 -7 -275 -10 -19 -7
42 -29 105 -39 39 -5 46 -10 43 -27 -4 -27 -33 -34 -171 -42 -62 -3 -127 -8
-144 -11 -34 -5 -46 -24 -16 -24 24 0 124 -51 118 -60 -2 -4 -28 -10 -57 -14
-29 -3 -75 -10 -103 -15 -66 -11 -194 -6 -208 8 -16 16 -57 14 -57 -4 0 -8 5
-15 12 -15 9 0 9 -3 1 -11 -7 -7 -52 -12 -110 -13 l-98 -2 -57 -42 c-100 -74
-150 -101 -197 -108 -25 -3 -85 -14 -134 -24 -92 -18 -103 -15 -93 25 7 26 -5
51 -54 117 -64 84 -124 100 -183 48 -19 -16 -45 -50 -58 -75 -13 -24 -31 -47
-39 -51 -29 -11 -205 -5 -209 8 -7 20 -82 97 -115 117 -68 42 -125 8 -190
-114 -32 -60 -35 -73 -25 -92 11 -21 9 -176 -3 -188 -10 -11 -279 -20 -288
-11 -6 6 -10 20 -10 32 0 13 -4 26 -10 29 -6 4 -10 -6 -10 -24 0 -16 -5 -33
-10 -36 -6 -4 -105 -6 -220 -5 l-210 1 0 -118 c0 -108 2 -119 20 -131 12 -7
24 -11 28 -8 4 2 25 0 47 -4 39 -7 39 -8 -18 -9 -52 -1 -58 -3 -67 -27 -6 -16
-10 -688 -10 -1850 l0 -1824 2056 0 c2040 0 2056 0 2043 20 -8 10 -40 58 -73
105 -89 132 -396 493 -528 623 l-64 62 -82 -20 c-67 -17 -92 -19 -139 -11 -74
12 -216 65 -221 81 -3 9 1 11 11 7 21 -8 46 13 53 43 14 61 14 76 0 95 -8 11
-16 14 -16 8 0 -13 -55 -8 -75 7 -14 10 -58 -7 -50 -20 3 -5 3 -11 -2 -11 -39
-6 -60 -5 -71 4 -9 7 -21 4 -43 -12 -41 -30 -48 -20 -9 12 36 30 39 66 9 86
-18 10 -19 15 -8 22 8 5 24 9 35 9 17 0 23 8 28 38 7 43 36 101 79 156 l31 39
-39 31 c-22 17 -69 58 -105 91 -150 136 -343 295 -358 295 -5 0 -12 6 -15 14
-8 20 -431 352 -557 436 -52 35 -153 147 -147 164 10 30 188 -11 286 -65 29
-17 55 -28 58 -25 3 3 -7 30 -23 60 -15 31 -25 58 -22 61 15 16 97 -12 157
-53 152 -104 202 -140 320 -230 161 -123 285 -237 391 -358 47 -53 109 -124
139 -158 30 -33 67 -83 83 -109 21 -33 35 -46 47 -43 95 29 179 31 286 9 33
-7 40 -13 41 -33 2 -43 4 -50 13 -50 17 0 99 -59 105 -76 3 -9 6 -24 6 -35 0
-22 12 -24 39 -7 15 9 32 7 82 -10 182 -60 215 -75 253 -110 52 -50 88 -109
83 -135 l-4 -22 -2 22 c-1 26 -51 69 -61 53 -4 -6 -14 -8 -23 -4 -13 5 -16 2
-11 -10 7 -17 34 -22 34 -6 0 15 17 12 24 -5 9 -23 -56 -19 -84 5 -30 26 -34
25 -14 -5 16 -25 16 -25 -10 -25 -35 0 -25 -16 15 -25 17 -4 33 -13 36 -21 3
-8 9 -11 14 -8 5 3 16 -2 25 -10 20 -21 48 -21 40 -1 -3 8 3 19 14 25 29 16
35 12 15 -10 -18 -19 -15 -53 10 -112 9 -23 -24 -25 -63 -4 -15 7 -45 19 -67
26 -22 7 -71 27 -110 45 -38 18 -92 40 -118 50 -45 17 -49 17 -65 1 -16 -16
-7 -27 153 -184 94 -92 223 -228 287 -302 65 -74 142 -156 172 -183 30 -26 89
-89 132 -140 42 -50 93 -107 113 -124 l36 -33 4543 0 4542 0 0 1625 c0 1429
-2 1625 -15 1625 -8 0 -15 -4 -15 -10 0 -5 -9 -10 -20 -10 -11 0 -20 -5 -20
-10 0 -6 -12 -15 -26 -21 -29 -10 -101 -64 -121 -89 -10 -13 -12 -11 -13 13 0
34 -11 34 -64 -2 -34 -24 -46 -27 -56 -18 -10 9 -14 9 -17 0 -3 -7 -11 -13
-20 -13 -8 0 -39 -23 -69 -52 -40 -38 -60 -67 -76 -111 -13 -37 -29 -62 -41
-66 -18 -7 -18 -8 -4 -14 10 -4 17 -17 17 -31 0 -13 6 -26 13 -29 9 -3 8 -8
-4 -18 -24 -21 -30 -46 -13 -60 20 -16 10 -23 -14 -10 -29 15 -47 65 -32 88
10 16 11 16 7 -4 -3 -15 -1 -20 9 -16 17 6 17 13 4 48 l-10 26 -31 -18 c-17
-10 -33 -24 -36 -30 -3 -7 -9 -13 -15 -13 -17 0 -38 -28 -32 -44 4 -10 1 -16
-9 -16 -22 0 -29 30 -13 55 8 12 11 27 6 35 -9 15 -33 -49 -28 -77 1 -10 -1
-24 -6 -31 -5 -8 -3 -33 4 -58 11 -37 10 -47 -4 -69 -15 -22 -15 -24 0 -18 15
5 15 3 -1 -20 -9 -15 -21 -27 -25 -27 -12 0 -65 -53 -72 -71 -5 -13 -17 -16
-47 -15 -22 1 -44 5 -47 9 -9 9 26 48 37 41 13 -7 11 10 -2 23 -7 7 -2 19 16
41 29 35 27 38 -45 62 -26 9 -44 21 -42 28 1 7 -4 25 -12 40 -8 15 -17 36 -21
47 -7 20 -7 19 -22 -2 -19 -29 -31 -29 -35 -1 -4 28 -58 33 -66 6 -2 -10 -10
-18 -18 -18 -7 0 -19 -10 -25 -22 -16 -29 -39 -47 -62 -48 -23 0 -33 26 -17
45 7 9 10 18 7 21 -3 3 -13 -9 -22 -27 -16 -31 -16 -33 1 -46 23 -17 35 -16
61 2 18 13 22 12 39 -6 13 -15 15 -22 6 -31 -18 -18 -14 -25 17 -30 22 -3 27
-1 24 11 -4 16 43 45 57 36 4 -2 5 7 2 20 -2 14 -8 28 -13 31 -12 7 -11 24 1
24 18 0 50 -40 50 -62 0 -23 -44 -53 -61 -42 -5 3 -9 -3 -9 -13 0 -10 -4 -24
-9 -32 -8 -12 -12 -13 -26 -1 -14 12 -20 10 -45 -16 l-30 -29 45 3 c25 2 45 8
45 14 0 5 5 6 10 3 24 -15 9 -35 -27 -36 -21 0 -47 -4 -58 -9 -18 -8 -17 -9 7
-9 27 -1 28 -3 25 -50 -4 -60 12 -85 48 -79 20 4 25 1 25 -14 0 -26 -45 -66
-78 -70 -23 -3 -27 -8 -29 -36 -1 -24 3 -32 16 -32 19 0 54 34 64 62 4 11 17
18 33 18 15 0 56 19 91 41 35 23 75 42 90 43 16 1 39 9 53 19 37 26 49 21 18
-8 -15 -14 -32 -25 -37 -25 -18 0 -22 -19 -13 -54 8 -27 6 -37 -7 -51 -15 -15
-15 -17 2 -29 9 -7 28 -11 42 -8 25 4 35 -12 13 -21 -7 -3 -3 -6 9 -6 12 -1
25 4 28 9 3 6 11 10 16 10 5 0 2 -11 -7 -25 -14 -22 -15 -25 -1 -25 9 0 23 7
31 16 10 10 16 11 16 4 0 -7 11 -25 25 -42 31 -36 31 -48 3 -48 -16 0 -19 -3
-11 -11 8 -8 17 -7 34 5 38 26 58 19 26 -9 -29 -26 -28 -32 3 -15 13 7 19 6
24 -5 3 -8 1 -17 -5 -21 -19 -12 -31 -57 -17 -66 8 -5 3 -6 -13 -3 -41 10 -90
-52 -69 -85 6 -9 10 -6 15 9 3 11 10 21 15 21 4 0 11 12 14 26 7 25 26 29 33
7 7 -19 -68 -95 -88 -90 -10 3 -20 -2 -23 -10 -8 -21 -7 -25 4 -18 6 3 13 -1
17 -11 4 -12 -3 -24 -23 -41 -16 -12 -33 -23 -38 -23 -8 0 -68 26 -117 50 -11
6 -28 -1 -54 -22 -31 -26 -40 -29 -54 -20 -33 24 -43 24 -69 -1 -15 -15 -36
-28 -47 -30 -11 -1 -25 -6 -32 -10 -15 -9 -83 -4 -83 6 0 5 -7 25 -17 44 -19
42 -51 57 -75 36 -25 -23 -32 3 -6 26 12 12 25 21 29 21 4 0 9 10 11 22 2 12
11 22 22 24 22 3 36 21 36 47 0 21 -29 22 -56 2 -33 -25 -44 -19 -28 18 39 85
50 102 69 103 38 2 45 4 45 14 0 5 -7 7 -16 3 -13 -5 -15 -2 -9 15 4 14 2 22
-6 22 -8 0 -8 5 3 18 26 30 31 42 14 36 -9 -3 -16 -10 -16 -15 0 -4 -28 -21
-63 -38 -34 -16 -71 -40 -82 -53 -34 -39 -66 -99 -58 -111 3 -7 -3 -4 -14 6
-14 12 -19 25 -15 39 5 20 3 20 -30 -6 -26 -19 -37 -23 -41 -14 -3 7 -4 -9 -2
-35 3 -57 7 -63 29 -41 20 20 27 15 20 -13 -5 -19 -36 -37 -58 -34 -9 2 -26
-18 -26 -31 0 -3 14 -1 30 5 43 16 66 0 62 -44 -2 -19 -8 -35 -13 -37 -17 -6
-9 -31 12 -37 30 -10 17 -29 -25 -36 -44 -7 -55 8 -37 47 6 14 11 32 11 41 0
14 -3 13 -21 -3 -21 -19 -21 -19 -19 1 4 39 -1 50 -12 25 -6 -14 -10 -32 -9
-40 1 -15 -37 -46 -45 -37 -9 9 -9 56 -1 54 12 -3 39 51 32 63 -8 13 -25 13
-25 -1 0 -6 -11 -25 -24 -42 -16 -22 -23 -40 -19 -58 2 -14 -1 -30 -9 -36 -13
-11 -18 -13 -39 -13 -6 0 -9 -7 -5 -15 6 -18 1 -19 -25 -5 -26 15 -24 38 8 70
14 15 28 38 29 51 2 13 6 40 10 60 4 24 2 39 -6 44 -18 11 -28 -5 -59 -86
l-27 -74 -39 -1 c-65 -1 -75 -3 -75 -14 0 -11 6 -14 55 -26 l30 -7 -25 -7
c-51 -16 -58 -12 -89 54 -36 74 -39 123 -11 183 21 47 48 60 103 49 17 -4 52
-8 77 -9 33 -2 46 -7 48 -20 2 -9 8 -17 13 -17 13 0 11 14 -3 28 -9 9 -8 15 3
24 23 18 59 74 59 89 0 8 11 36 24 64 47 96 76 166 76 184 0 10 9 26 20 36 11
10 20 28 20 40 0 12 13 38 29 58 15 20 31 54 35 76 3 22 14 46 24 53 28 21 62
69 62 88 0 13 -12 20 -42 25 -26 5 -36 10 -25 12 11 3 16 11 13 19 -5 13 5 18
30 15 6 -1 17 6 24 14 7 8 21 15 31 15 21 0 26 25 8 36 -10 6 50 33 74 34 20
0 0 -35 -22 -40 -14 -3 -26 -11 -28 -17 -6 -16 36 -4 70 21 15 11 27 27 28 35
1 9 4 5 9 -9 4 -14 5 -37 2 -52 -2 -16 1 -35 8 -43 11 -13 15 -12 31 9 23 29
24 36 3 36 -10 0 -14 5 -10 15 3 8 1 27 -5 41 -11 30 -6 40 13 28 19 -12 71
-14 85 -3 7 6 13 6 17 1 3 -6 -1 -15 -9 -22 -24 -20 -18 -31 13 -24 46 11 109
82 117 130 3 24 13 48 20 54 8 7 15 23 15 36 0 13 6 24 13 24 6 0 34 20 61 45
26 25 56 45 65 45 9 0 27 7 40 17 19 13 28 14 42 5 10 -7 28 -12 39 -12 26 0
25 -7 -2 -31 -20 -16 -20 -18 -5 -19 9 0 26 9 37 20 11 11 32 23 47 26 16 4
47 27 70 50 47 49 128 78 246 89 37 3 80 10 95 16 15 6 43 13 62 15 19 3 56 7
83 10 l47 6 0 528 c0 342 -4 531 -10 535 -5 3 -10 12 -10 18 0 7 4 6 10 -3 6
-10 10 119 10 373 0 302 -3 387 -12 388 -143 10 -161 9 -177 -5 -33 -30 -104
-34 -319 -20 -238 15 -268 20 -251 40 6 8 8 14 3 15 -107 7 -184 20 -184 30 0
5 -7 9 -15 9 -9 0 -18 7 -21 15 -8 21 -30 19 -55 -6 -19 -19 -25 -20 -61 -10
-22 7 -73 30 -114 52 -41 21 -77 39 -79 39 -2 0 -24 -26 -48 -57z m-737 -562
c0 -6 -4 -13 -10 -16 -5 -3 -10 1 -10 9 0 9 5 16 10 16 6 0 10 -4 10 -9z
m-246 -26 c-4 -8 -10 -12 -15 -9 -14 8 -10 24 6 24 9 0 12 -6 9 -15z m159 -21
c1 -4 -8 -9 -20 -10 -27 -4 -31 13 -5 18 19 5 23 3 25 -8z m-13 -54 c0 -5 -2
-10 -4 -10 -3 0 -8 5 -11 10 -3 6 -1 10 4 10 6 0 11 -4 11 -10z m-4657 -317
c-7 -2 -21 -2 -30 0 -10 3 -4 5 12 5 17 0 24 -2 18 -5z m-2765 -30 c-10 -2
-28 -2 -40 0 -13 2 -5 4 17 4 22 1 32 -1 23 -4z m-46 -31 c-2 -10 2 -10 17 -2
26 13 44 13 39 -2 -5 -15 -56 -29 -64 -17 -8 14 -34 11 -28 -4 3 -10 -5 -12
-31 -9 -21 3 -35 10 -35 18 0 9 6 11 18 7 14 -6 15 -4 4 9 -11 14 -7 16 35 14
33 -1 47 -5 45 -14z m-2592 -29 c0 -16 -5 -35 -10 -43 -7 -11 -10 -4 -10 28 0
23 5 42 10 42 6 0 10 -12 10 -27z m-592 5 c7 -7 12 -27 12 -45 0 -29 -3 -33
-25 -33 -22 0 -25 4 -25 38 0 51 13 65 38 40z m5200 -16 c2 -7 -2 -10 -12 -6
-9 3 -16 11 -16 16 0 13 23 5 28 -10z m2132 -2 c0 -21 -24 -28 -35 -10 -11 18
-64 11 -75 -9 -7 -15 -17 -18 -42 -14 -43 6 -44 9 -16 24 28 15 80 26 131 28
31 1 37 -2 37 -19z m-7220 -25 c0 -31 -3 -35 -25 -35 -21 0 -25 5 -25 29 0 27
8 34 43 40 4 0 7 -15 7 -34z m2267 29 c-3 -3 -12 -4 -19 -1 -8 3 -5 6 6 6 11
1 17 -2 13 -5z m2890 0 c-3 -3 -12 -4 -19 -1 -8 3 -5 6 6 6 11 1 17 -2 13 -5z
m1733 -5 c0 -4 20 -12 45 -19 32 -9 45 -18 45 -31 0 -27 -17 -32 -39 -10 -15
15 -22 17 -30 7 -10 -12 -48 -14 -67 -4 -14 8 -56 3 -88 -11 -20 -8 -32 -9
-40 -1 -5 5 -21 10 -35 10 -15 0 -33 5 -41 10 -25 17 4 27 69 23 52 -3 60 -1
66 16 5 16 14 19 60 18 30 -1 55 -5 55 -8z m-283 -36 c3 -7 -12 -19 -33 -28
-43 -18 -54 -19 -54 -5 0 6 8 10 19 10 11 0 21 9 24 21 6 22 37 24 44 2z
m-1440 -15 c-3 -8 -6 -5 -6 6 -1 11 2 17 5 13 3 -3 4 -12 1 -19z m-3172 2 c3
-5 -1 -10 -10 -10 -9 0 -13 5 -10 10 3 6 8 10 10 10 2 0 7 -4 10 -10z m-75 -6
c0 -13 -27 -29 -50 -31 -25 -1 -25 -1 3 10 15 6 27 14 27 19 0 4 5 8 10 8 6 0
10 -3 10 -6z m3274 -39 c5 -22 4 -26 -4 -15 -5 8 -10 24 -10 34 0 26 6 18 14
-19z m1316 25 c0 -5 -3 -10 -7 -10 -5 0 -19 -3 -33 -6 -24 -5 -24 -5 -6 10 22
18 46 21 46 6z m-1480 -4 c0 -2 -7 -6 -15 -10 -8 -3 -15 -1 -15 4 0 6 7 10 15
10 8 0 15 -2 15 -4z m190 -6 c0 -5 -4 -10 -10 -10 -5 0 -10 5 -10 10 0 6 5 10
10 10 6 0 10 -4 10 -10z m-3805 -11 c4 -6 0 -9 -11 -7 -14 2 -18 -2 -16 -17 2
-16 1 -17 -7 -5 -7 9 -6 19 1 27 13 16 25 17 33 2z m-920 -42 c0 -52 -19 -51
-23 2 -2 32 0 42 10 39 8 -3 13 -20 13 -41z m973 24 c-7 -12 -18 -17 -27 -13
-14 6 -14 7 2 10 9 2 17 8 17 13 0 5 5 9 10 9 6 0 6 -7 -2 -19z m362 9 c0 -5
-16 -10 -35 -10 -19 0 -35 5 -35 10 0 6 16 10 35 10 19 0 35 -4 35 -10z
m-1930 -55 c0 -38 -3 -45 -19 -45 -27 0 -34 15 -27 56 5 25 12 34 26 34 17 0
20 -7 20 -45z m501 -32 c1 -43 3 -89 4 -103 1 -14 6 -110 10 -215 5 -149 4
-187 -5 -178 -21 20 -40 573 -20 573 6 0 11 -33 11 -77z m1153 68 c4 -5 -3 -7
-14 -4 -23 6 -26 13 -6 13 8 0 17 -4 20 -9z m101 -5 c-52 -13 -70 -11 -60 5 4
5 30 9 58 8 l52 -1 -50 -12z m-1587 -256 c-2 -126 -1 -230 1 -230 2 0 23 18
47 40 41 38 42 40 19 40 -14 0 -25 5 -25 10 0 6 1 10 3 10 146 11 199 11 193
2 -3 -6 10 -20 29 -32 19 -12 35 -28 35 -37 0 -10 -11 -5 -37 16 -31 26 -46
31 -88 31 -31 0 -59 -7 -75 -18 -42 -29 -100 -93 -100 -110 0 -10 -4 -23 -9
-31 -11 -17 -24 125 -17 194 3 28 5 124 6 215 0 116 4 160 11 148 6 -11 9
-106 7 -248z m1482 213 c0 -7 -4 -13 -9 -13 -5 0 -11 -7 -14 -14 -4 -10 -1
-13 9 -9 8 3 18 19 21 34 7 35 23 49 23 19 0 -32 -37 -90 -58 -90 -5 0 -16 20
-23 45 -7 25 -17 45 -22 45 -5 0 -4 7 3 15 11 13 16 13 41 -2 16 -10 29 -23
29 -30z m-1580 -5 c0 -9 -4 -20 -10 -23 -6 -4 -10 9 -10 32 0 28 3 34 10 23 5
-8 10 -23 10 -32z m1760 22 c0 -11 -4 -20 -9 -20 -5 0 -23 -3 -40 -6 -24 -5
-31 -3 -31 10 0 9 -4 16 -10 16 -5 0 -10 -7 -10 -15 0 -8 -4 -15 -10 -15 -5 0
-10 9 -10 19 0 16 8 21 48 24 26 2 53 4 60 5 6 1 12 -7 12 -18z m-1733 -27
c-3 -10 -5 -4 -5 12 0 17 2 24 5 18 2 -7 2 -21 0 -30z m1793 33 c0 -11 -19
-15 -25 -6 -3 5 1 10 9 10 9 0 16 -2 16 -4z m80 -16 c0 -5 -10 -10 -22 -9 -22
0 -22 1 -3 9 11 5 21 9 23 9 1 1 2 -3 2 -9z m-1634 -35 c7 -40 2 -50 -21 -42
-20 8 -21 77 0 77 8 0 17 -14 21 -35z m-92 -10 c-4 -8 -7 -15 -9 -15 -2 0 -5
7 -9 15 -3 9 0 15 9 15 9 0 12 -6 9 -15z m176 5 c0 -5 -4 -10 -10 -10 -5 0
-10 5 -10 10 0 6 5 10 10 10 6 0 10 -4 10 -10z m5986 -45 c-3 -8 6 -14 25 -17
29 -5 40 6 17 15 -7 3 18 4 57 2 39 -2 71 -8 73 -14 2 -6 14 -8 28 -5 14 4 24
2 23 -2 -4 -24 2 -45 14 -43 6 1 23 -3 37 -9 14 -6 20 -11 13 -11 -7 -1 -10
-7 -7 -15 3 -8 -7 -18 -27 -27 -25 -10 -34 -10 -37 -1 -2 7 -8 9 -13 6 -15 -9
-39 16 -39 38 0 15 -4 18 -17 13 -10 -4 -26 -7 -35 -7 -10 0 -18 -4 -18 -10 0
-6 -8 -4 -18 5 -24 22 -53 23 -46 2 5 -11 1 -14 -12 -10 -11 3 -4 -2 15 -10
18 -9 40 -14 47 -11 9 3 14 -2 14 -14 0 -21 -15 -27 -24 -11 -4 5 -24 12 -46
16 -22 4 -40 11 -40 16 0 6 -8 5 -20 -1 -20 -11 -57 1 -70 21 -7 11 -93 -9
-102 -24 -12 -18 -10 -25 10 -29 13 -3 9 -8 -16 -21 -18 -10 -30 -22 -27 -27
4 -6 -3 -10 -14 -10 -12 0 -21 -4 -21 -10 0 -5 5 -10 12 -10 6 0 3 -8 -8 -18
-41 -39 -80 -12 -90 64 -6 53 -24 66 -24 18 0 -25 0 -25 -25 -7 -13 10 -25 28
-25 39 0 16 -6 22 -26 22 -19 0 -29 -8 -39 -31 -7 -18 -15 -25 -19 -18 -11 17
-23 13 -30 -11 -6 -21 -8 -20 -19 12 -25 68 -29 71 -57 47 -21 -18 -26 -32
-28 -76 -1 -30 -4 -57 -7 -60 -8 -8 -77 -11 -88 -4 -6 4 -32 8 -59 9 -69 4
-91 12 -82 32 8 20 7 102 -2 102 -2 0 -11 -16 -20 -36 l-17 -36 -13 29 c-23
52 -30 58 -46 42 -7 -8 -14 -25 -16 -39 -1 -14 -7 -26 -12 -28 -6 -2 -10 -15
-10 -30 0 -32 -17 -18 -23 18 -2 14 -10 37 -17 53 -12 24 -11 29 6 42 10 8 24
14 29 14 6 0 4 -3 -2 -6 -7 -2 -13 -9 -13 -14 0 -15 22 -10 35 7 9 13 18 15
39 8 18 -6 51 -6 87 0 41 7 72 7 99 -1 36 -9 40 -8 40 8 0 23 28 25 37 3 3 -9
-3 -23 -16 -35 -44 -41 -21 -34 54 18 11 7 31 13 45 13 23 1 24 2 8 14 -27 20
-22 24 26 19 26 -3 46 -1 50 6 11 18 36 13 29 -5 -4 -12 -1 -15 13 -12 10 2
18 10 16 18 -4 19 19 31 51 24 15 -3 27 -1 27 4 0 5 20 9 45 8 29 -1 45 -6 45
-13 0 -7 6 -13 14 -13 7 0 19 -7 26 -15 7 -8 16 -15 21 -15 5 0 9 7 9 15 0 18
56 21 62 3 3 -8 19 -5 54 12 50 24 113 40 127 32 5 -2 6 -10 3 -17z m6328 9
c9 -23 7 -64 -2 -64 -17 0 -32 25 -32 52 0 31 24 39 34 12z m-12728 -29 c8
-34 -1 -55 -26 -55 -16 0 -20 6 -20 33 0 19 3 37 7 40 14 15 33 6 39 -18z
m614 -15 c0 -25 -18 -36 -26 -16 -8 21 3 49 16 41 5 -3 10 -15 10 -25z m8190
20 c0 -5 7 -7 14 -4 11 4 14 -1 12 -23 -2 -15 -5 -29 -6 -30 -1 -2 -3 -8 -4
-13 0 -6 -7 -14 -14 -19 -7 -4 -14 -20 -16 -35 -1 -14 -10 -32 -19 -39 -9 -6
-21 -25 -27 -42 -9 -24 -13 -27 -21 -15 -8 11 -12 12 -16 3 -5 -14 -33 -18
-33 -5 0 4 5 13 10 18 6 6 12 46 14 91 2 44 6 86 10 92 17 27 22 5 18 -70 l-5
-82 22 22 c24 24 28 36 32 102 1 24 4 47 6 52 6 10 23 9 23 -3z m247 -12 c-3
-8 -6 -5 -6 6 -1 11 2 17 5 13 3 -3 4 -12 1 -19z m-8994 -8 c3 -11 1 -23 -4
-26 -5 -3 -9 6 -9 20 0 31 6 34 13 6z m34 -12 c-3 -7 -5 -2 -5 12 0 14 2 19 5
13 2 -7 2 -19 0 -25z m580 10 c-3 -8 -6 -5 -6 6 -1 11 2 17 5 13 3 -3 4 -12 1
-19z m7218 12 c-4 -6 -1 -18 6 -26 10 -12 8 -17 -7 -29 -18 -14 -18 -14 0 -15
15 0 16 -3 6 -15 -7 -8 -8 -15 -4 -15 5 0 15 9 22 20 29 47 41 9 21 -64 l-11
-40 -19 25 -18 24 -12 -33 c-10 -30 -12 -31 -25 -15 -11 15 -15 16 -23 4 -5
-7 -14 -10 -20 -7 -6 4 -11 0 -11 -8 0 -9 5 -16 10 -16 6 0 10 -5 10 -10 0 -6
-8 -5 -20 2 -26 17 -25 23 10 60 17 17 30 31 30 32 1 1 3 19 6 41 4 22 12 44
20 48 8 4 14 17 14 27 0 11 5 20 11 20 5 0 7 -5 4 -10z m361 -14 c-3 -13 -9
-31 -12 -40 -4 -11 -1 -16 11 -16 12 0 15 -5 9 -22 -6 -22 -6 -22 16 2 16 18
20 20 16 7 -3 -10 -1 -27 4 -38 6 -11 7 -19 1 -19 -5 0 -11 -13 -13 -30 -5
-34 -1 -37 18 -12 12 15 15 15 24 2 12 -19 12 -31 0 -50 -9 -13 -12 -13 -21 3
-6 9 -14 15 -19 12 -11 -7 -33 32 -25 45 9 15 -5 50 -20 50 -7 0 -16 -6 -18
-12 -4 -10 -8 -9 -16 2 -15 21 -14 51 2 48 7 -2 13 12 15 37 3 33 14 54 31 55
2 0 0 -11 -3 -24z m304 20 c0 -3 -4 -8 -10 -11 -5 -3 -10 -1 -10 4 0 6 5 11
10 11 6 0 10 -2 10 -4z m131 -52 c5 -6 3 -18 -5 -29 -11 -16 -17 -17 -29 -7
-18 16 -31 1 -22 -26 8 -28 -22 -93 -40 -86 -10 4 -15 0 -15 -14 0 -11 -6 -22
-14 -25 -17 -7 -26 1 -26 21 0 9 -8 24 -17 35 -17 20 -17 20 2 13 33 -12 37
-12 43 4 2 8 1 12 -3 8 -8 -8 -35 9 -35 22 0 10 34 8 41 -2 6 -10 69 83 69
101 0 5 8 17 18 27 16 17 17 17 20 -7 2 -13 8 -29 13 -35z m-488 31 c-3 -9 -8
-14 -10 -11 -3 3 -2 9 2 15 9 16 15 13 8 -4z m114 -9 c-7 -14 -16 -21 -21 -16
-5 5 -2 15 5 24 21 23 29 19 16 -8z m206 -3 c-16 -6 -17 -28 -1 -52 9 -15 8
-22 -5 -36 -15 -15 -21 -36 -20 -72 1 -16 -3 -16 -28 -2 -18 9 -22 6 -32 -20
-12 -32 -21 -38 -32 -21 -3 6 -15 10 -26 10 -10 0 -19 5 -19 11 0 6 -7 17 -15
25 -23 24 -18 47 19 81 l33 32 23 -21 c18 -17 24 -18 31 -7 5 8 9 20 9 26 0
23 54 73 65 61 7 -7 6 -12 -2 -15z m-862 -42 c-6 -11 -11 -29 -11 -40 0 -12
-4 -21 -10 -21 -16 0 -12 66 5 80 8 7 16 20 16 29 1 9 4 7 6 -6 2 -12 -1 -31
-6 -42z m193 50 c3 -5 -3 -11 -14 -14 -13 -3 -20 0 -20 9 0 15 26 19 34 5z
m145 -25 c-4 -42 5 -54 26 -36 11 9 14 22 11 39 -5 21 -4 23 4 9 11 -18 4 -68
-10 -68 -5 0 -15 -3 -24 -6 -10 -4 -16 -1 -16 7 0 8 -14 28 -31 44 -26 25 -28
31 -14 33 10 2 21 -1 25 -8 5 -8 9 -7 13 4 11 27 19 18 16 -18z m127 19 c7
-18 -14 -57 -27 -49 -7 4 -7 10 0 17 21 21 13 38 -14 31 -14 -3 -25 -2 -25 3
0 15 60 13 66 -2z m334 4 c0 -6 -7 -17 -15 -25 -16 -16 -19 -7 -9 20 7 18 24
22 24 5z m160 6 c0 -16 -26 -55 -37 -55 -7 0 -13 -10 -13 -21 0 -32 -25 -7
-28 28 -1 20 1 24 7 14 12 -18 41 -7 48 19 5 17 23 29 23 15z m-8285 -36 c8
-35 3 -44 -20 -36 -20 8 -21 67 -1 67 8 0 17 -14 21 -31z m5415 22 c0 -5 -9
-11 -20 -14 -20 -5 -26 3 -13 16 9 10 33 8 33 -2z m1775 -19 c-8 -8 -25 10
-19 20 4 6 9 5 15 -3 4 -7 6 -15 4 -17z m38 16 c4 -10 8 -10 15 1 8 12 13 11
32 -2 13 -9 17 -17 11 -22 -6 -3 -11 -14 -11 -23 0 -12 -9 -17 -30 -18 -17 -1
-31 4 -32 10 -8 56 1 88 15 54z m157 -23 c0 -13 -5 -27 -11 -31 -7 -4 -9 -22
-5 -48 4 -26 3 -35 -3 -26 -16 28 -23 98 -11 120 14 25 30 17 30 -15z m62 -12
c12 -15 31 -7 22 9 -4 6 -1 9 7 6 20 -7 25 -58 5 -58 -9 0 -16 -8 -16 -17 0
-16 -1 -16 -12 0 -9 11 -18 14 -27 8 -12 -8 -12 -12 -2 -25 8 -9 9 -16 3 -16
-19 0 -32 26 -19 39 13 13 17 61 5 61 -5 0 -3 9 4 20 12 19 13 19 17 3 2 -10
8 -24 13 -30z m1093 -40 c-3 -18 -10 -33 -16 -33 -5 0 -7 10 -5 23 3 12 8 40
12 62 7 37 8 38 12 11 2 -16 1 -44 -3 -63z m-4904 44 c-8 -8 -11 -7 -11 4 0
20 13 34 18 19 3 -7 -1 -17 -7 -23z m1264 9 c8 4 15 1 15 -6 0 -7 6 -6 16 4
15 16 59 23 52 9 -2 -5 -10 -21 -17 -38 -7 -16 -17 -38 -22 -48 -6 -10 -7 -22
-4 -27 3 -6 -1 -7 -9 -4 -11 4 -16 0 -16 -12 -1 -18 -1 -18 -11 -1 -10 17 -13
17 -27 3 -15 -13 -20 -13 -36 0 -19 13 -19 15 -2 27 13 10 18 26 18 65 -1 46
1 51 14 38 8 -9 21 -13 29 -10z m3685 17 c0 -5 -5 -15 -10 -23 -8 -12 -10 -11
-10 8 0 12 5 22 10 22 6 0 10 -3 10 -7z m-8682 -30 c-2 -13 -7 -24 -13 -24 -5
0 -11 11 -13 24 -2 16 2 24 13 24 11 0 15 -8 13 -24z m8802 11 c0 -8 -4 -12
-10 -9 -5 3 -10 10 -10 16 0 5 5 9 10 9 6 0 10 -7 10 -16z m-93 -16 c-3 -8 -6
-5 -6 6 -1 11 2 17 5 13 3 -3 4 -12 1 -19z m-779 -25 c1 -35 0 -36 -13 -19
-11 14 -11 22 -2 37 6 10 12 19 13 19 0 0 1 -17 2 -37z m808 -25 c-3 -35 -8
-73 -11 -85 -7 -23 -25 -32 -25 -12 0 20 -20 -3 -29 -34 l-9 -32 -1 38 c-1 20
-5 38 -11 38 -5 1 -16 2 -22 3 -7 0 -13 7 -12 14 3 36 5 42 13 42 5 0 13 -9
16 -20 3 -11 11 -20 16 -20 6 0 7 4 4 10 -4 6 1 7 11 3 14 -5 16 -3 9 13 -4
10 -9 30 -10 44 -2 16 -1 18 2 5 6 -23 22 -45 33 -45 4 0 7 15 6 33 -2 26 11
67 21 67 2 0 1 -28 -1 -62z m174 42 c0 -11 -4 -20 -9 -20 -5 0 -7 9 -4 20 3
11 7 20 9 20 2 0 4 -9 4 -20z m-4143 -12 c-3 -8 -6 -5 -6 6 -1 11 2 17 5 13 3
-3 4 -12 1 -19z m4069 -46 c-13 -12 -17 8 -10 40 l9 33 3 -33 c2 -19 1 -36 -2
-40z m-8458 31 c3 -20 -1 -23 -27 -23 -27 0 -31 4 -31 26 0 22 4 25 28 22 19
-2 28 -9 30 -25z m8890 -19 c2 -32 0 -36 -9 -21 -6 10 -8 25 -5 33 3 8 1 14
-4 14 -6 0 -10 5 -10 11 0 6 6 9 13 7 6 -3 13 -22 15 -44z m800 37 c17 -1 15
-41 -2 -41 -8 0 -18 -9 -21 -20 -8 -25 -22 -26 -28 -2 -3 11 -5 7 -6 -10 -1
-38 -18 -44 -26 -8 -12 53 -44 47 -45 -7 0 -13 -4 -23 -10 -23 -5 0 -10 8 -10
18 0 10 -7 27 -15 38 -8 10 -15 24 -15 31 0 16 67 32 120 28 25 -2 51 -4 58
-4z m-10244 -23 c-3 -13 -7 -24 -8 -25 -5 -6 -104 -5 -114 1 -7 4 -12 16 -12
27 0 17 7 19 71 19 68 0 70 -1 63 -22z m8266 7 c0 -8 -4 -15 -10 -15 -5 0 -10
7 -10 15 0 8 5 15 10 15 6 0 10 -7 10 -15z m-4660 -24 c0 -3 -5 -13 -10 -21
-12 -19 -35 2 -27 24 6 15 37 12 37 -3z m4360 10 c0 -6 -4 -13 -10 -16 -5 -3
-10 1 -10 9 0 9 5 16 10 16 6 0 10 -4 10 -9z m3473 -13 c-13 -52 -57 -69 -51
-21 2 19 10 29 28 34 14 4 26 7 27 8 0 1 -1 -9 -4 -21z m-11173 -33 c0 -24 -5
-35 -15 -35 -15 0 -22 50 -8 63 15 15 23 5 23 -28z m10940 10 c0 -14 -4 -25
-10 -25 -5 0 -10 11 -10 25 0 14 5 25 10 25 6 0 10 -11 10 -25z m-8780 -14 c0
-11 -4 -22 -9 -25 -11 -7 -23 22 -15 35 9 16 24 10 24 -10z m2068 -50 c-2 -9
-12 -16 -23 -16 -17 0 -20 7 -21 43 l-2 43 25 -27 c13 -14 23 -34 21 -43z
m4132 60 c0 -6 -4 -13 -10 -16 -5 -3 -10 1 -10 9 0 9 5 16 10 16 6 0 10 -4 10
-9z m426 -28 c-3 -8 -6 -31 -7 -51 0 -35 -1 -35 -10 -12 -14 34 -17 36 -33 14
-10 -13 -18 -16 -25 -9 -14 14 -2 55 16 55 8 0 11 5 7 11 -10 17 17 29 39 18
11 -6 16 -17 13 -26z m324 27 c0 -5 -5 -10 -11 -10 -5 0 -7 5 -4 10 3 6 8 10
11 10 2 0 4 -4 4 -10z m-6455 -26 c21 -28 18 -50 -12 -79 -34 -30 -43 -31 -43
-4 0 13 4 18 12 13 7 -4 8 -3 4 4 -4 7 -14 12 -22 12 -9 0 -14 11 -14 33 1 29
2 30 14 14 12 -16 14 -16 20 -1 3 9 4 20 1 24 -11 17 26 3 40 -16z m-395 -8
c0 -14 -4 -28 -10 -31 -5 -3 -10 -3 -10 2 0 4 -3 18 -6 31 -5 16 -2 22 10 22
10 0 16 -9 16 -24z m2560 14 c0 -5 -4 -10 -9 -10 -6 0 -13 5 -16 10 -3 6 1 10
9 10 9 0 16 -4 16 -10z m1037 -16 c-3 -3 -12 -4 -19 -1 -8 3 -5 6 6 6 11 1 17
-2 13 -5z m2831 -12 c-5 -23 -28 -27 -28 -4 0 10 7 19 15 19 9 0 15 -7 13 -15z
m-1346 -14 c-7 -7 -12 -8 -12 -2 0 14 12 26 19 19 2 -3 -1 -11 -7 -17z m1608
8 c0 -19 -17 -29 -37 -22 -12 5 -13 9 -3 21 16 19 40 19 40 1z m-2880 -5 c0
-6 -5 -13 -12 -17 -6 -4 -8 -3 -4 4 3 5 0 13 -6 15 -8 3 -6 6 5 6 9 1 17 -3
17 -8z m2118 -2 c-2 -6 -8 -10 -13 -10 -5 0 -11 4 -13 10 -2 6 4 11 13 11 9 0
15 -5 13 -11z m-2928 -14 c0 -10 -10 -15 -30 -15 -20 0 -30 5 -30 15 0 10 10
15 30 15 20 0 30 -5 30 -15z m140 -1 c0 -2 -15 -4 -32 -4 -23 0 -29 3 -19 9
12 8 51 4 51 -5z m3110 6 c0 -5 -5 -10 -11 -10 -5 0 -7 5 -4 10 3 6 8 10 11
10 2 0 4 -4 4 -10z m1980 -16 c0 -8 -5 -12 -10 -9 -6 4 -8 11 -5 16 9 14 15
11 15 -7z m-10887 -24 c-3 -12 -8 -19 -11 -16 -5 6 5 36 12 36 2 0 2 -9 -1
-20z m8627 10 c0 -5 -5 -10 -11 -10 -5 0 -7 5 -4 10 3 6 8 10 11 10 2 0 4 -4
4 -10z m-2870 -14 c0 -9 -7 -12 -20 -9 -11 3 -20 9 -20 14 0 5 9 9 20 9 11 0
20 -6 20 -14z m2750 4 c0 -5 -4 -10 -10 -10 -5 0 -10 5 -10 10 0 6 5 10 10 10
6 0 10 -4 10 -10z m-2784 -35 c17 -16 14 -18 -10 -9 -9 3 -16 10 -16 15 0 13
9 11 26 -6z m-1401 -25 c-10 -11 -21 -18 -23 -15 -3 3 3 12 14 20 27 20 30 18
9 -5z m1310 10 c3 -6 -4 -10 -17 -10 -18 0 -20 2 -8 10 19 12 18 12 25 0z
m238 -10 c-11 -13 -30 -20 -52 -20 -19 0 -31 3 -28 7 4 3 20 6 37 5 20 0 30 4
30 14 0 8 7 14 15 14 12 0 12 -3 -2 -20z m4950 -10 c4 -17 3 -19 -9 -9 -8 6
-14 18 -14 26 0 20 16 8 23 -17z m-7042 2 c31 3 34 0 37 -24 3 -23 -1 -28 -18
-28 -16 0 -20 5 -16 15 3 10 -1 15 -12 15 -21 1 -54 25 -45 34 4 3 10 1 13 -5
4 -6 23 -9 41 -7z m706 -4 c-3 -8 -6 -5 -6 6 -1 11 2 17 5 13 3 -3 4 -12 1
-19z m701 5 c-4 -15 2 -18 36 -17 32 1 33 0 9 -3 -18 -2 -33 -8 -33 -14 0 -5
-27 -9 -60 -9 -47 0 -60 3 -60 15 0 10 11 15 35 15 24 0 35 5 35 15 0 9 9 15
21 15 15 0 20 -5 17 -17z m274 -1 c4 -16 1 -18 -21 -13 -19 3 -21 6 -8 9 9 2
17 8 17 13 0 15 7 10 12 -9z m4268 8 c5 8 10 10 10 4 0 -14 -35 -46 -42 -38
-3 3 -3 14 -1 25 5 16 8 18 14 7 7 -11 11 -10 19 2z m-5787 -17 c9 -15 -9 -38
-30 -40 -15 -2 -23 3 -23 13 0 8 5 12 10 9 6 -3 10 1 10 9 0 16 25 22 33 9z
m418 -27 c-14 -36 -22 -33 -9 5 6 16 12 28 14 26 3 -2 0 -16 -5 -31z m224 24
c3 -5 -1 -10 -9 -10 -18 0 -22 -25 -6 -33 6 -3 5 -4 -2 -3 -7 1 -15 11 -17 22
-2 10 -8 22 -15 26 -6 4 1 8 16 8 15 0 30 -4 33 -10z m910 0 c3 -5 1 -10 -4
-10 -6 0 -11 5 -11 10 0 6 2 10 4 10 3 0 8 -4 11 -10z m85 0 c-20 -13 -40 -13
-40 0 0 6 12 10 28 10 21 0 24 -2 12 -10z m47 4 c-3 -3 -12 -4 -19 -1 -8 3 -5
6 6 6 11 1 17 -2 13 -5z m-577 -14 c0 -5 -4 -10 -10 -10 -5 0 -10 5 -10 10 0
6 5 10 10 10 6 0 10 -4 10 -10z m4338 -15 c-3 -3 -9 2 -12 12 -6 14 -5 15 5 6
7 -7 10 -15 7 -18z m-4617 5 c28 0 38 -5 42 -20 4 -16 2 -18 -13 -10 -13 7
-20 6 -24 -3 -5 -9 -7 -9 -12 0 -3 7 -11 10 -18 7 -7 -3 -23 5 -37 17 l-24 22
25 -6 c14 -4 41 -7 61 -7z m576 4 c-3 -3 -12 -4 -19 -1 -8 3 -5 6 6 6 11 1 17
-2 13 -5z m683 -4 c0 -5 -4 -10 -10 -10 -5 0 -10 5 -10 10 0 6 5 10 10 10 6 0
10 -4 10 -10z m80 0 c0 -5 -9 -10 -20 -10 -11 0 -20 5 -20 10 0 6 9 10 20 10
11 0 20 -4 20 -10z m390 3 c-8 -3 -18 -11 -22 -17 -9 -14 -22 -1 -13 13 3 6
16 11 28 10 15 0 17 -2 7 -6z m60 -3 c0 -5 -7 -10 -16 -10 -8 0 -12 5 -9 10 3
6 10 10 16 10 5 0 9 -4 9 -10z m-1540 -16 c0 -2 -9 -4 -20 -4 -11 0 -20 4 -20
9 0 5 9 7 20 4 11 -3 20 -7 20 -9z m-580 -10 c0 -2 -7 -4 -15 -4 -8 0 -15 4
-15 10 0 5 7 7 15 4 8 -4 15 -8 15 -10z m4946 -25 c-3 -16 -1 -31 4 -34 19
-12 11 -53 -11 -60 -27 -9 -58 19 -44 39 46 62 47 66 35 81 -11 13 -10 14 5 9
12 -5 15 -14 11 -35z m1477 27 c16 -4 27 -13 27 -24 0 -15 2 -15 10 -2 7 10
10 11 10 2 0 -14 -40 -32 -72 -32 -22 0 -58 26 -58 42 0 5 4 7 9 4 5 -3 11 1
15 9 3 8 11 13 18 11 7 -3 25 -7 41 -10z m-6379 -3 c4 -5 12 -9 17 -9 5 -1 12
-3 17 -4 15 -5 28 -7 50 -8 12 -1 22 -9 22 -17 0 -20 -27 -19 -38 1 -5 10 -14
14 -21 9 -9 -5 -7 -11 6 -22 12 -9 13 -12 3 -9 -8 3 -23 9 -32 12 -10 4 -18
10 -18 14 0 5 -7 16 -16 24 -8 9 -11 16 -6 16 5 0 12 -3 16 -7z m2095 -10 c-6
-6 -17 -9 -25 -6 -23 9 -16 23 10 21 19 -2 22 -5 15 -15z m112 -7 l44 -13 -34
-9 c-42 -12 -53 -34 -17 -34 27 0 35 -14 13 -23 -14 -5 -47 15 -47 30 0 10
-52 9 -69 -1 -5 -4 -12 -2 -16 4 -3 5 -1 10 4 10 6 0 11 7 11 15 0 8 7 15 15
15 8 0 15 -4 15 -10 0 -5 11 -10 25 -10 31 0 33 17 3 22 -12 2 -23 9 -26 17
-3 9 1 11 15 7 11 -4 40 -12 64 -20z m2240 6 c-14 -27 -2 -74 18 -68 14 5 173
10 209 7 10 -1 13 -15 11 -52 -3 -49 -1 -53 34 -81 23 -19 41 -27 49 -22 7 5
21 7 31 6 10 -2 17 3 17 12 0 8 -8 20 -17 25 -15 9 -15 10 -2 11 8 0 28 -13
44 -30 16 -16 24 -30 17 -30 -6 0 -14 5 -17 11 -5 7 -14 4 -26 -7 -10 -9 -19
-13 -19 -8 0 5 -5 2 -10 -6 -5 -8 -15 -15 -22 -16 -17 0 -69 36 -64 45 3 4
-20 8 -50 9 -35 1 -54 -2 -54 -9 0 -6 6 -9 13 -6 7 3 26 -1 42 -8 l30 -13 -33
-1 c-53 -2 -106 -60 -139 -153 -15 -43 -32 -78 -36 -78 -5 0 -6 7 -3 16 16 42
18 64 5 65 -8 0 -36 11 -64 24 l-50 24 62 1 c34 0 65 -5 68 -10 4 -6 11 -8 16
-4 5 3 7 9 5 13 -3 4 4 20 15 37 21 32 26 58 6 34 -7 -8 -30 -16 -52 -18 -22
-1 -41 -7 -43 -12 -5 -13 -62 -13 -62 0 0 6 -9 6 -26 -1 -15 -5 -29 -8 -31 -5
-3 2 5 7 16 11 12 3 21 11 21 17 0 13 -83 1 -88 -12 -2 -6 -8 -10 -13 -10 -5
0 -4 8 2 19 7 11 19 16 31 13 10 -2 18 1 18 7 0 7 4 10 8 7 11 -7 37 11 37 26
0 7 9 12 19 10 17 -3 18 3 14 71 -2 53 0 73 8 70 6 -2 20 16 30 41 11 25 23
46 27 46 4 0 3 -8 -2 -18z m1315 -41 c-9 -10 -14 -25 -10 -34 3 -9 1 -42 -6
-74 -22 -115 -14 -105 -72 -99 -28 3 -54 10 -57 15 -11 17 -81 51 -81 39 0 -7
-7 -3 -15 8 -8 10 -15 15 -15 9 0 -5 -4 -4 -9 4 -5 7 -28 16 -52 18 -24 2 -52
5 -61 6 -24 2 -23 27 1 27 13 0 18 6 16 23 -1 12 -3 32 -4 45 -1 15 -7 22 -21
22 -11 0 -20 5 -20 10 0 6 11 10 25 10 21 0 25 -5 25 -29 0 -35 13 -46 30 -26
9 10 9 15 1 15 -6 0 -11 5 -11 10 0 14 20 12 54 -5 15 -8 32 -12 37 -9 5 3 9
-1 10 -8 2 -50 8 -80 19 -93 17 -21 63 -19 92 5 14 10 28 16 32 12 4 -3 3 5
-2 18 -12 34 -5 50 24 50 13 0 24 5 24 10 0 6 -4 10 -10 10 -5 0 -10 9 -10 20
0 25 16 26 29 3 8 -16 25 -12 27 5 0 4 5 16 10 27 8 19 9 19 12 -3 2 -13 -4
-32 -12 -41z m152 34 c31 -27 28 -51 -7 -58 -16 -4 -39 -16 -50 -28 l-21 -23
0 33 c0 18 -4 41 -10 51 -5 10 -7 25 -4 33 7 20 65 16 92 -8z m176 7 c15 1 26
6 26 10 0 4 9 8 20 8 24 0 26 -26 5 -56 -15 -23 -55 -25 -80 -4 -8 6 -33 10
-57 8 -38 -3 -43 0 -46 19 -4 26 17 32 70 21 20 -4 48 -7 62 -6z m163 5 c20 1
22 -3 16 -25 -5 -23 -4 -24 21 -18 31 8 34 -3 6 -27 -14 -12 -20 -30 -21 -64
-2 -67 0 -75 22 -99 27 -29 24 -32 -23 -23 -24 4 -46 8 -50 9 -9 0 -6 44 4 51
5 3 4 19 -2 35 -5 16 -11 40 -12 54 -2 14 -7 31 -12 38 -4 7 -5 16 -2 19 3 3
1 14 -5 25 -13 24 -2 42 20 32 9 -4 26 -7 38 -7z m-2222 -7 c3 -5 1 -10 -4
-10 -6 0 -11 5 -11 10 0 6 2 10 4 10 3 0 8 -4 11 -10z m1085 -3 c15 4 19 -1
22 -29 2 -18 -1 -43 -6 -55 -10 -26 10 -52 36 -45 10 2 18 -1 18 -7 0 -6 -17
-11 -40 -11 -24 0 -39 -4 -37 -11 3 -16 -50 -22 -59 -8 -4 7 0 17 8 23 10 8
14 25 12 56 -3 42 16 116 23 93 2 -6 12 -9 23 -6z m-5152 -27 c2 -20 1 -22 -8
-10 -9 11 -13 12 -17 3 -3 -10 -9 -9 -20 3 -14 13 -14 17 -2 25 23 15 44 5 47
-21z m232 19 c0 -6 -6 -9 -12 -7 -7 3 -22 -4 -33 -15 -20 -20 -20 -20 10 -13
17 4 47 10 69 13 27 4 34 8 25 14 -21 13 7 12 33 -2 15 -8 19 -8 14 0 -5 7 5
11 28 11 20 0 36 -4 36 -10 0 -9 65 -26 87 -22 6 2 15 -3 19 -9 7 -11 -28 -10
-120 5 -46 8 -76 0 -76 -20 0 -19 -39 -18 -46 1 -6 16 -54 21 -54 6 0 -11 -62
-21 -73 -11 -4 4 3 15 17 24 15 9 26 23 26 31 0 9 10 15 25 15 14 0 25 -5 25
-11z m1323 4 c-7 -2 -21 -2 -30 0 -10 3 -4 5 12 5 17 0 24 -2 18 -5z m1105 -9
c-9 -9 -21 -13 -27 -9 -16 10 -3 25 22 25 20 0 20 -1 5 -16z m312 -24 c0 -32
20 -43 82 -43 21 0 38 -4 38 -8 0 -5 15 -9 33 -9 19 0 37 -3 41 -7 9 -10 96
-10 102 -1 3 4 14 8 25 8 10 0 19 5 19 10 0 6 -11 10 -25 10 -14 0 -25 -4 -25
-10 0 -5 -22 -10 -50 -10 -54 0 -68 14 -22 23 36 7 132 2 155 -8 15 -6 17 -4
14 16 -2 13 -2 18 0 12 3 -7 11 -13 19 -13 8 0 14 -6 14 -12 0 -10 2 -10 8 -1
4 7 22 12 40 10 24 -1 32 -7 32 -21 0 -12 5 -16 16 -12 8 3 12 2 9 -4 -3 -6
-4 -10 -1 -10 2 0 11 -3 19 -6 9 -3 16 2 19 14 5 18 14 20 91 18 47 0 84 1 82
4 -2 3 14 5 36 5 21 0 39 -3 39 -6 0 -4 44 -7 98 -6 73 2 96 5 94 15 -2 10 7
11 32 7 27 -5 37 -3 46 12 10 16 11 16 6 1 -4 -13 2 -20 19 -24 33 -8 63 -43
47 -53 -7 -4 -10 -15 -6 -24 5 -13 0 -17 -20 -17 -27 0 -31 -7 -20 -34 8 -22
27 -20 20 2 -5 14 1 17 32 17 20 0 41 -6 45 -12 4 -7 16 -13 27 -13 10 0 21 6
23 13 3 7 6 5 6 -5 1 -22 31 -24 31 -3 0 18 7 19 25 2 10 -11 8 -17 -16 -33
-16 -10 -29 -24 -29 -31 0 -7 -9 -17 -20 -23 -14 -8 -20 -8 -20 0 0 7 -8 9
-20 5 -11 -4 -46 -6 -78 -5 -98 2 -130 -2 -122 -16 3 -5 62 -9 132 -9 100 0
130 -3 142 -15 14 -13 0 -15 -124 -13 -125 2 -166 -5 -127 -20 6 -3 -18 -6
-55 -6 -63 -1 -91 12 -50 22 9 3 0 5 -22 6 -33 1 -37 -1 -26 -14 11 -13 0 -15
-89 -15 -55 0 -101 4 -101 9 0 4 -47 13 -103 20 -57 6 -114 14 -127 16 -17 3
-20 1 -13 -6 6 -6 48 -16 94 -22 l84 -12 -55 -5 c-58 -5 -80 -2 -195 25 -38
10 -86 19 -105 22 -58 7 -14 -14 65 -30 67 -15 68 -15 26 -16 -75 -2 -254 35
-245 50 3 5 -10 9 -29 9 -19 0 -40 6 -46 14 -6 7 -29 16 -51 20 -75 12 -50 24
63 30 61 4 123 6 137 5 55 -5 111 1 105 12 -4 6 -13 8 -21 5 -8 -3 -14 -1 -14
3 0 5 -19 11 -42 14 -72 9 -247 12 -235 5 7 -4 55 -8 107 -9 52 0 104 -4 115
-9 13 -6 -21 -9 -93 -9 -100 -1 -115 1 -134 19 -23 22 -48 26 -48 10 0 -7 -8
-6 -22 1 -22 12 -22 12 -3 20 14 5 16 8 5 9 -8 2 -18 2 -22 1 -5 0 -8 5 -8 12
0 21 -39 40 -56 26 -18 -14 -46 5 -42 30 3 16 2 16 -72 8 -14 -1 -32 1 -41 4
-8 4 -22 3 -30 -2 -10 -6 -7 -9 13 -9 15 0 29 -4 33 -10 4 -6 15 -6 31 0 33
13 44 13 44 -1 0 -6 10 -19 23 -30 12 -10 17 -18 10 -19 -6 0 -19 7 -28 16
-14 14 -20 15 -41 3 -19 -10 -27 -10 -32 -1 -4 6 -16 11 -27 11 -121 1 -208 9
-216 22 -7 12 -9 12 -10 -1 0 -10 -2 -11 -6 -2 -3 7 -23 12 -48 12 -42 0 -65
17 -65 47 0 8 111 33 149 33 11 0 22 6 24 13 4 9 8 8 17 -3 9 -11 13 -12 17
-2 6 14 63 17 63 2 0 -5 16 -10 35 -10 19 0 35 -4 35 -10 0 -5 -9 -10 -20 -10
-11 0 -20 -6 -20 -13 0 -16 57 -11 79 7 11 8 15 8 18 -1 6 -18 79 -17 86 1 5
11 0 13 -22 6 -16 -4 -35 -4 -42 1 -10 6 -11 9 -1 9 6 0 12 7 12 15 0 8 9 15
20 15 11 0 20 -4 20 -10 0 -5 14 -10 30 -10 17 0 30 4 30 9 0 10 89 19 128 12
17 -2 22 -10 22 -31z m195 25 c11 0 26 4 33 8 6 5 17 5 22 2 15 -10 12 -35 -5
-35 -8 0 -15 -8 -16 -17 0 -11 -3 -13 -6 -5 -6 16 -21 15 -39 -3 -9 -8 -26
-15 -40 -15 -15 0 -24 6 -24 15 0 10 -11 15 -35 15 -19 0 -35 -5 -35 -11 0 -5
-5 -7 -11 -4 -6 5 -3 12 9 21 27 18 113 8 105 -12 -3 -8 0 -14 6 -14 8 0 10
12 6 38 -4 20 -3 33 2 27 4 -5 17 -10 28 -10z m-3293 -2 c-6 -2 -9 -10 -5 -16
4 -7 0 -8 -11 -4 -10 4 -25 8 -34 8 -9 1 -3 5 13 9 35 9 56 11 37 3z m58 -3
c0 -5 -2 -10 -4 -10 -2 0 -12 -3 -22 -7 -16 -6 -17 -5 -4 10 17 19 30 22 30 7z
m3400 1 c0 -5 3 -17 6 -25 5 -12 2 -15 -10 -10 -17 7 -22 44 -6 44 6 0 10 -4
10 -9z m1378 -16 c-3 -3 -9 2 -12 12 -6 14 -5 15 5 6 7 -7 10 -15 7 -18z m837
15 c3 -5 1 -10 -4 -10 -6 0 -11 5 -11 10 0 6 2 10 4 10 3 0 8 -4 11 -10z m175
6 c0 -3 -4 -8 -10 -11 -5 -3 -10 -1 -10 4 0 6 5 11 10 11 6 0 10 -2 10 -4z
m-3030 -15 c0 -11 -31 -24 -39 -16 -3 3 1 10 9 15 19 12 30 12 30 1z m-1662
-8 c-10 -2 -26 -2 -35 0 -10 3 -2 5 17 5 19 0 27 -2 18 -5z m80 0 c-10 -2 -28
-2 -40 0 -13 2 -5 4 17 4 22 1 32 -1 23 -4z m982 -3 c0 -5 -7 -10 -15 -10 -8
0 -15 5 -15 10 0 6 7 10 15 10 8 0 15 -4 15 -10z m1430 -15 c0 -1 -7 -8 -15
-15 -13 -10 -15 -9 -15 8 0 15 5 20 15 16 8 -4 15 -7 15 -9z m2930 -1 c0 -2
-7 -4 -15 -4 -8 0 -15 4 -15 10 0 5 7 7 15 4 8 -4 15 -8 15 -10z m310 6 c0 -5
-5 -10 -11 -10 -5 0 -7 5 -4 10 3 6 8 10 11 10 2 0 4 -4 4 -10z m-6810 -10
c13 -8 13 -10 -2 -10 -9 0 -20 5 -23 10 -8 13 5 13 25 0z m693 3 c-7 -2 -21
-2 -30 0 -10 3 -4 5 12 5 17 0 24 -2 18 -5z m2822 -3 c-3 -5 -10 -10 -16 -10
-5 0 -9 5 -9 10 0 6 7 10 16 10 8 0 12 -4 9 -10z m1549 -5 c-4 -8 -10 -12 -15
-9 -14 8 -10 24 6 24 9 0 12 -6 9 -15z m1135 -32 c-1 -34 -2 -35 -9 -13 -11
36 -11 50 0 50 6 0 10 -17 9 -37z m1130 23 c16 -10 -5 -46 -27 -46 -23 0 -62
28 -62 44 0 13 68 15 89 2z m-8029 0 c0 -3 -4 -8 -10 -11 -5 -3 -10 -1 -10 4
0 6 5 11 10 11 6 0 10 -2 10 -4z m4623 -13 c-7 -2 -19 -2 -25 0 -7 3 -2 5 12
5 14 0 19 -2 13 -5z m1415 -28 c2 -29 -2 -37 -20 -44 -42 -15 -43 23 -2 63 8
9 16 16 17 16 1 0 3 -16 5 -35z m1836 10 c-4 -8 -13 -15 -21 -15 -13 0 -13 3
-3 15 7 8 16 15 21 15 5 0 6 -7 3 -15z m-1085 -45 c6 0 20 -6 31 -12 16 -10
24 -10 41 0 12 7 24 11 27 8 3 -3 0 -6 -6 -6 -9 0 -9 -5 0 -19 9 -15 9 -26 1
-44 -11 -23 -17 -25 -70 -24 -32 0 -61 5 -65 11 -6 8 -11 7 -16 -2 -5 -7 -26
-11 -51 -10 -35 1 -44 6 -52 25 -17 45 -3 58 27 28 26 -25 79 -19 99 12 17 26
17 27 -3 44 -12 9 -18 20 -14 23 4 4 14 -2 23 -13 10 -12 22 -21 28 -21z
m-7624 -10 c-3 -5 3 -10 14 -10 12 0 21 6 21 13 0 8 4 7 11 -3 8 -11 12 -12
16 -2 7 18 21 15 49 -11 22 -21 23 -25 10 -37 -9 -7 -16 -19 -16 -26 0 -8 -9
-14 -20 -14 -22 0 -26 10 -9 27 7 7 3 9 -15 6 -14 -3 -23 -10 -20 -15 4 -7 -9
-9 -35 -6 -22 2 -41 0 -41 -4 0 -5 -16 -8 -35 -8 -19 0 -35 -4 -35 -10 0 -16
-57 -12 -64 5 -8 21 3 45 18 39 15 -6 68 21 59 29 -3 4 10 7 30 7 41 0 50 16
15 23 -14 3 -8 5 15 6 23 0 36 -3 32 -9z m4405 -5 c0 -8 -4 -15 -10 -15 -5 0
-10 7 -10 15 0 8 5 15 10 15 6 0 10 -7 10 -15z m1405 -7 c32 -14 32 -25 1 -25
-15 0 -26 6 -29 18 -6 22 -6 22 28 7z m2519 -13 c22 -33 20 -38 -7 -21 -22 15
-55 7 -44 -11 3 -5 -3 -14 -13 -21 -14 -9 -21 -8 -29 2 -9 10 -5 21 16 45 33
37 55 39 77 6z m-7859 -15 c3 -5 0 -10 -9 -10 -8 0 -23 -3 -33 -6 -16 -6 -16
-5 2 9 24 19 32 21 40 7z m1542 -11 c13 -1 20 -6 16 -11 -4 -8 24 -8 88 -2
114 10 158 9 172 -5 7 -7 3 -13 -14 -20 -20 -8 -14 -10 34 -10 38 -1 56 3 55
10 -4 19 82 20 107 2 19 -14 18 -15 -20 -10 -30 3 -47 0 -63 -13 -12 -10 -22
-20 -22 -23 0 -9 98 -17 230 -18 74 0 143 -5 152 -10 10 -6 19 -5 23 1 3 5 13
10 21 10 8 0 12 -4 9 -10 -4 -6 7 -10 24 -10 17 0 31 5 31 10 0 6 24 10 53 10
37 0 48 -3 37 -10 -19 -12 -4 -13 38 -1 42 12 129 -3 199 -35 28 -13 63 -24
77 -24 14 0 26 -4 26 -9 0 -15 -27 -31 -43 -25 -9 3 -24 1 -33 -4 -13 -7 -25
-6 -41 5 -15 10 -23 11 -23 4 0 -6 -6 -11 -14 -11 -8 0 -16 -5 -18 -11 -3 -9
-10 -8 -25 1 -17 11 -26 11 -56 -3 -45 -22 -44 -22 -90 10 -29 20 -40 24 -46
14 -9 -14 -70 -9 -80 6 -3 5 -20 15 -38 22 -43 17 -106 6 -135 -25 -29 -30
-39 -30 -72 1 -15 14 -32 25 -39 25 -7 0 -6 -4 3 -10 11 -7 2 -10 -32 -10 -25
0 -48 -5 -50 -11 -3 -8 -37 -8 -128 1 -69 6 -127 12 -131 13 -15 5 -79 -40
-79 -55 0 -10 -4 -18 -10 -18 -12 0 -24 45 -16 59 21 33 -208 40 -258 8 -14
-9 -38 -17 -53 -17 -15 0 -34 -4 -42 -9 -16 -10 -6 -31 15 -31 8 0 14 -5 14
-12 0 -9 3 -9 11 -1 6 6 18 9 26 6 8 -3 18 -1 22 5 10 16 116 -2 137 -23 14
-13 14 -15 0 -15 -9 0 -16 -7 -16 -15 0 -12 -5 -10 -20 5 -22 22 -40 19 -40
-6 0 -8 -7 -14 -15 -14 -8 0 -24 -5 -34 -12 -22 -14 -55 -3 -45 14 4 7 -1 5
-12 -4 -18 -16 -24 -16 -66 -3 -25 7 -48 12 -50 10 -10 -11 -99 -11 -107 -1
-11 13 29 54 48 48 6 -2 11 3 11 12 0 9 8 16 17 16 12 0 14 3 6 11 -8 8 -17 8
-33 -1 -12 -6 -24 -9 -27 -6 -8 7 36 46 52 46 6 0 34 7 63 15 36 11 53 22 58
38 13 43 30 46 207 47 110 0 166 3 162 10 -3 6 -2 10 4 10 5 0 12 -6 14 -12 4
-10 8 -10 15 1 23 32 -71 52 -148 31 -55 -15 -198 -20 -232 -8 -17 6 -39 19
-49 29 -18 18 -17 18 14 24 48 8 156 12 207 8 25 -2 55 -4 67 -4z m5801 -1
c-2 -6 -10 -14 -16 -16 -7 -2 -10 2 -6 12 7 18 28 22 22 4z m356 -16 c2 -4 -4
-9 -15 -9 -11 -1 -17 2 -14 8 7 11 22 12 29 1z m-5827 -8 c-3 -3 -12 -4 -19
-1 -8 3 -5 6 6 6 11 1 17 -2 13 -5z m6996 -50 c12 3 29 1 37 -4 11 -7 4 -10
-25 -10 -53 0 -73 12 -54 33 12 13 14 13 17 -5 3 -15 9 -18 25 -14z m-8908 16
c3 -5 1 -10 -4 -10 -6 0 -11 5 -11 10 0 6 2 10 4 10 3 0 8 -4 11 -10z m-275
-10 c13 -9 13 -11 0 -20 -8 -5 -19 -10 -25 -10 -5 0 -17 -11 -26 -23 -19 -27
-36 -93 -21 -83 5 3 15 -1 22 -9 7 -8 18 -15 25 -15 7 0 18 -7 25 -15 13 -16
51 -20 64 -7 4 4 22 8 39 9 18 1 77 7 132 13 130 14 193 14 242 1 65 -18 135
-16 175 3 20 10 41 15 46 12 6 -3 13 1 16 10 5 13 9 14 21 4 12 -10 21 -10 38
-2 27 13 77 22 137 25 36 2 45 -2 48 -15 3 -15 -4 -18 -32 -18 -44 0 -65 -29
-40 -54 13 -14 13 -16 0 -16 -8 0 -27 -11 -43 -24 -35 -29 -83 -44 -83 -26 0
9 -3 10 -14 1 -17 -14 -46 -4 -69 26 -24 30 -75 31 -111 2 -23 -18 -31 -20
-50 -10 -19 11 -30 8 -71 -13 -26 -14 -57 -27 -69 -27 -20 -2 -19 -2 2 -6 26
-5 20 -23 -9 -23 -10 0 -19 -6 -19 -12 0 -8 -3 -9 -8 -3 -4 6 -25 10 -47 11
-72 2 -131 11 -151 22 -14 8 -15 12 -4 12 13 0 13 2 0 9 -18 12 -33 3 -26 -16
3 -8 2 -11 -3 -8 -5 3 -13 0 -16 -6 -5 -7 -33 -9 -80 -5 -50 3 -75 1 -77 -6
-3 -7 -9 -8 -16 -4 -8 5 -6 13 9 29 15 15 23 18 26 10 3 -9 26 -13 68 -13 60
0 63 1 63 25 l0 25 -20 -22 -20 -23 6 23 c6 17 3 22 -9 22 -12 0 -15 -5 -11
-17 6 -14 3 -14 -15 3 -16 13 -23 15 -26 7 -3 -9 -10 -10 -23 -3 -20 11 -160
9 -160 -2 0 -5 -7 -8 -16 -8 -8 0 -12 5 -9 10 9 14 -18 12 -34 -2 -11 -10 -13
-10 -7 0 5 8 0 12 -13 12 -12 0 -21 -4 -21 -8 0 -4 -30 -8 -67 -7 -38 0 -101
-3 -142 -8 -48 -6 -82 -5 -97 2 -12 5 -62 11 -111 11 -48 1 -107 6 -130 11
-30 6 -50 5 -75 -6 -18 -8 -27 -14 -20 -15 19 0 14 -30 -6 -30 -19 0 -42 18
-42 32 0 4 7 8 15 8 8 0 15 4 15 8 0 4 -12 7 -27 6 -16 -1 -40 -3 -55 -3 -20
-1 -26 -5 -22 -16 4 -8 2 -15 -4 -15 -5 0 -15 7 -22 15 -14 16 -40 20 -40 6 0
-5 5 -12 10 -14 6 -3 5 -4 -2 -3 -7 2 -24 -2 -38 -9 -14 -6 -45 -13 -69 -14
-52 -2 -62 -7 -55 -25 4 -10 -11 -14 -67 -15 -40 -1 -78 -6 -85 -12 -7 -6 -18
-8 -24 -4 -19 12 -10 24 25 31 19 3 35 10 35 15 0 12 -17 11 -56 -3 -26 -9
-48 -9 -96 0 -43 9 -80 9 -118 3 -30 -5 -59 -5 -64 -1 -5 5 -20 4 -34 -1 -18
-7 -27 -6 -32 2 -6 8 -13 8 -27 0 -23 -12 -33 -6 -33 21 0 10 -7 30 -16 43 -9
13 -13 28 -10 34 3 5 1 11 -5 13 -6 2 -12 23 -13 46 0 33 -4 42 -18 42 -21 0
-23 19 -5 43 10 14 18 15 57 5 25 -6 54 -19 65 -29 18 -16 32 -17 149 -9 71 5
135 6 143 3 7 -3 27 0 44 7 44 19 81 18 104 -3 15 -14 30 -17 60 -13 22 4 83
10 135 15 120 11 293 28 390 37 101 10 194 7 198 -6 2 -6 17 -8 38 -4 22 4 34
2 34 -5 0 -6 7 -11 16 -11 10 0 14 6 11 14 -3 8 2 16 13 19 13 3 17 1 13 -10
-4 -11 0 -14 18 -11 15 2 23 9 21 19 -2 13 5 16 35 13 22 -1 44 3 53 11 8 7
29 15 45 18 61 8 260 6 275 -3z m6210 0 c0 -5 -4 -10 -10 -10 -5 0 -10 -4 -10
-9 0 -4 11 -7 24 -6 13 2 34 -6 45 -16 12 -11 21 -15 21 -9 0 5 9 10 21 10 13
0 18 -4 13 -12 -6 -10 -4 -10 7 -3 8 6 32 8 54 5 39 -6 39 -6 -22 -14 -71 -9
-162 1 -128 15 17 7 16 8 -7 8 -16 1 -28 -4 -28 -11 0 -10 -2 -10 -8 0 -5 7
-16 10 -26 6 -11 -4 -8 4 11 23 30 32 43 39 43 23z m-4353 -6 c-3 -3 -12 -4
-19 -1 -8 3 -5 6 6 6 11 1 17 -2 13 -5z m523 -4 c0 -12 -97 -12 -125 0 -14 6
3 9 53 9 42 1 72 -3 72 -9z m3730 0 c0 -5 -7 -10 -16 -10 -8 0 -12 5 -9 10 3
6 10 10 16 10 5 0 9 -4 9 -10z m-8150 -15 c22 -20 14 -66 -11 -72 -20 -6 -26
-23 -9 -23 6 0 10 -7 10 -15 0 -8 -6 -15 -14 -15 -10 0 -14 -10 -12 -35 2 -25
-1 -35 -11 -35 -11 0 -13 -7 -9 -24 4 -15 0 -28 -10 -36 -8 -7 -13 -19 -10
-27 3 -7 1 -13 -4 -13 -6 0 -10 4 -10 9 0 10 -88 6 -98 -3 -3 -4 -2 -9 2 -13
4 -4 11 -1 16 7 7 11 10 7 10 -15 0 -16 -4 -25 -8 -19 -4 5 -18 18 -32 27 -23
16 -24 16 -37 -11 -8 -17 -11 -19 -8 -6 3 13 0 24 -7 26 -21 8 -43 -6 -43 -27
0 -17 -8 -20 -52 -23 -50 -2 -72 11 -39 24 8 3 12 12 9 20 -5 12 -10 11 -28
-6 -21 -20 -23 -20 -22 -3 2 14 -4 17 -30 15 -45 -5 -51 16 -7 24 22 4 31 10
24 14 -9 5 -9 9 -1 14 21 13 11 28 -14 22 -20 -5 -23 -3 -18 11 6 16 5 16 -10
4 -9 -7 -25 -10 -34 -7 -10 4 -13 10 -8 14 6 4 15 17 22 28 10 18 8 25 -8 42
-25 27 -24 30 5 25 38 -8 39 13 2 31 -19 9 -39 16 -46 16 -6 0 -8 5 -5 10 4 7
24 8 50 5 25 -4 51 -2 63 4 28 15 152 32 232 33 36 0 72 4 80 9 26 14 112 10
130 -6z m7799 -1 c2 -2 -17 -4 -43 -4 -27 0 -45 4 -41 9 5 9 73 4 84 -5z
m-2324 -34 c3 -5 -1 -10 -9 -10 -9 0 -16 5 -16 10 0 6 4 10 9 10 6 0 13 -4 16
-10z m630 -11 c40 -6 28 -7 -55 -5 -58 1 -114 7 -125 14 -16 9 -4 10 55 5 41
-3 98 -9 125 -14z m241 6 c28 -8 82 -19 120 -24 l69 -9 -85 3 c-82 2 -213 25
-227 38 -12 13 73 7 123 -8z m174 0 c15 -18 8 -19 -55 -8 -36 6 -38 7 -15 14
40 11 57 10 70 -6z m-1342 -2 c-10 -2 -28 -2 -40 0 -13 2 -5 4 17 4 22 1 32
-1 23 -4z m75 0 c-7 -2 -21 -2 -30 0 -10 3 -4 5 12 5 17 0 24 -2 18 -5z m407
-18 l65 -14 -70 4 c-38 2 -90 8 -115 13 l-45 9 50 1 c28 1 79 -5 115 -13z
m177 9 c-3 -3 -12 -4 -19 -1 -8 3 -5 6 6 6 11 1 17 -2 13 -5z m88 -14 c27 -7
25 -8 -17 -9 -26 0 -50 4 -53 9 -7 11 25 11 70 0z m384 -6 c2 -2 -28 -4 -67
-4 -39 0 -74 5 -77 11 -5 7 15 8 66 3 41 -3 76 -8 78 -10z m350 0 c2 -2 -14
-4 -37 -4 -22 0 -43 4 -46 9 -6 8 73 3 83 -5z m1196 6 c15 -6 6 -9 -32 -9 -28
-1 -55 4 -58 9 -8 12 61 12 90 0z m-2552 -7 c-7 -2 -21 -2 -30 0 -10 3 -4 5
12 5 17 0 24 -2 18 -5z m504 1 c-3 -3 -12 -4 -19 -1 -8 3 -5 6 6 6 11 1 17 -2
13 -5z m286 -1 c-13 -2 -35 -2 -50 0 -16 2 -5 4 22 4 28 0 40 -2 28 -4z
m-6865 -30 c-1 -16 -9 -33 -17 -39 -10 -8 -11 -13 -3 -18 17 -10 15 -33 -3
-40 -8 -3 -14 -2 -14 2 5 32 -14 44 -25 16 -3 -8 -2 -12 4 -9 6 4 10 -10 10
-34 0 -23 -4 -41 -10 -41 -5 0 -10 4 -10 9 0 5 -15 13 -32 16 -56 12 -109 44
-106 63 2 9 -3 16 -9 15 -16 -4 -16 7 -3 41 9 25 14 26 82 27 40 0 82 4 93 9
35 15 45 11 43 -17z m-654 2 c22 -17 21 -20 -14 -29 -16 -5 -20 -4 -12 2 11 7
10 12 -3 26 -21 21 2 22 29 1z m6191 -35 c3 -5 1 -10 -4 -10 -6 0 -11 5 -11
10 0 6 2 10 4 10 3 0 8 -4 11 -10z m3027 -7 c41 -4 50 -10 69 -39 15 -24 28
-34 46 -34 20 0 24 4 20 19 -2 10 -1 25 4 32 7 12 12 12 29 1 11 -7 25 -10 30
-7 6 3 20 -1 32 -9 12 -9 34 -16 49 -16 17 0 32 -9 43 -25 16 -24 46 -35 46
-16 0 4 -16 29 -35 54 -19 25 -35 49 -35 53 0 3 35 3 78 -1 88 -8 122 -14 120
-24 -3 -29 6 -54 32 -79 l30 -30 -28 -6 c-26 -6 -77 0 -94 10 -17 11 -7 -17
12 -33 11 -10 20 -25 20 -34 0 -10 11 -26 25 -37 14 -11 25 -27 25 -35 0 -9 6
-20 13 -24 15 -10 47 -58 47 -73 0 -17 -13 -11 -50 21 -19 17 -57 46 -85 65
-27 18 -84 58 -125 88 -41 30 -79 55 -83 56 -5 0 -24 7 -43 16 -32 15 -36 15
-53 0 -24 -22 -33 -20 -61 9 -25 27 -42 33 -34 12 3 -9 -5 -13 -23 -12 -18 0
-27 -5 -25 -13 2 -10 -5 -12 -30 -7 -18 4 -35 10 -38 14 -3 3 -16 12 -29 20
-21 11 -25 11 -33 -3 -12 -21 -26 -20 -74 3 -28 14 -43 16 -52 9 -10 -9 -10
-14 0 -26 11 -13 9 -14 -17 -8 -16 4 -38 9 -47 12 -10 3 -18 1 -18 -4 0 -5 10
-12 22 -15 26 -7 21 -16 -13 -22 -29 -6 -59 3 -59 17 0 5 7 8 15 4 8 -3 15 -1
15 4 0 6 -6 10 -14 10 -28 0 -46 -12 -46 -32 0 -10 -3 -17 -7 -15 -5 3 -50 1
-102 -3 -52 -5 -100 -6 -107 -3 -6 2 -29 30 -49 61 -21 31 -47 67 -59 80 l-21
24 332 -3 c183 -2 336 1 340 5 4 4 17 4 28 0 11 -3 41 -9 67 -11z m-814 0
c-10 -2 -26 -2 -35 0 -10 3 -2 5 17 5 19 0 27 -2 18 -5z m1737 -13 c-3 -5 -11
-10 -16 -10 -6 0 -7 5 -4 10 3 6 11 10 16 10 6 0 7 -4 4 -10z m15 -41 c-70
-64 -104 -85 -69 -42 32 39 98 93 113 93 6 -1 -14 -23 -44 -51z m-90 15 c0 -8
-5 -12 -10 -9 -6 4 -8 11 -5 16 9 14 15 11 15 -7z m-10046 -30 c4 -9 4 -19 1
-22 -6 -6 -35 18 -35 29 0 16 28 10 34 -7z m5493 -2 c-1 -14 -9 -19 -29 -18
-15 1 -28 4 -28 9 0 4 -7 7 -15 7 -8 0 -15 5 -15 10 0 6 20 10 44 10 37 0 45
-3 43 -18z m4683 2 c0 -3 -10 -14 -22 -25 l-23 -18 24 -1 c24 0 24 0 5 -15
-10 -8 -14 -15 -9 -15 6 -1 -6 -9 -25 -20 l-35 -19 30 -1 30 -1 -34 -28 c-18
-16 -48 -32 -67 -36 -24 -4 -34 -11 -34 -25 0 -12 -10 -21 -31 -25 -36 -8 -63
9 -30 20 12 3 21 12 21 19 0 7 11 25 25 40 14 15 23 31 21 35 -3 4 11 15 30
26 20 10 34 26 34 37 0 10 6 18 13 18 8 0 22 9 32 20 17 19 45 27 45 14z
m-6840 -35 c0 -5 -6 -9 -12 -9 -10 0 -9 -3 1 -9 22 -14 3 -31 -29 -24 -19 3
-39 0 -55 -11 -28 -19 -35 -20 -35 -6 0 6 7 10 15 10 8 0 15 5 15 10 0 16 -47
12 -54 -5 -9 -24 -39 -19 -31 5 5 16 2 20 -19 20 -14 0 -26 4 -26 10 0 6 33 7
86 4 72 -5 86 -4 82 8 -4 10 2 13 28 10 19 -2 34 -8 34 -13z m3690 6 c0 -8 -6
-15 -14 -15 -20 0 -29 17 -14 23 22 9 28 7 28 -8z m2960 11 c0 -3 -4 -8 -10
-11 -5 -3 -10 -1 -10 4 0 6 5 11 10 11 6 0 10 -2 10 -4z m-882 -41 c12 -25 12
-25 -13 -9 -27 18 -33 34 -12 34 8 0 19 -11 25 -25z m-8563 5 c-5 -9 23 -15
48 -11 4 0 7 -6 7 -14 0 -8 7 -15 15 -15 8 0 15 -4 15 -9 0 -5 -20 -4 -46 1
-25 6 -48 7 -52 3 -4 -4 -2 -10 4 -12 6 -2 20 -11 30 -19 18 -15 18 -15 -2
-11 -12 2 -29 0 -38 -5 -10 -6 -16 -5 -16 1 0 5 -12 14 -27 19 l-28 10 32 1
c27 1 34 6 39 29 8 31 13 42 20 42 3 0 2 -4 -1 -10z m1925 6 c0 -9 -30 -14
-35 -6 -4 6 3 10 14 10 12 0 21 -2 21 -4z m523 -3 c-7 -2 -13 -11 -13 -19 0
-8 -2 -14 -4 -14 -2 0 -12 -3 -22 -7 -12 -4 -15 -3 -10 5 4 7 1 12 -8 12 -30
0 -16 19 17 23 48 6 53 6 40 0z m87 -3 c0 -5 -4 -10 -9 -10 -6 0 -13 5 -16 10
-3 6 1 10 9 10 9 0 16 -4 16 -10z m1565 0 c-3 -5 -11 -10 -16 -10 -6 0 -7 5
-4 10 3 6 11 10 16 10 6 0 7 -4 4 -10z m3868 -27 c-7 -2 -19 -2 -25 0 -7 3 -2
5 12 5 14 0 19 -2 13 -5z m1392 -3 c8 -13 -5 -13 -25 0 -13 8 -13 10 2 10 9 0
20 -4 23 -10z m-8295 -10 c0 -5 -2 -10 -4 -10 -3 0 -8 5 -11 10 -3 6 -1 10 4
10 6 0 11 -4 11 -10z m1310 1 c0 -5 -15 -9 -32 -9 -18 -1 -42 -2 -52 -4 -10
-2 -20 2 -22 7 -2 6 20 11 51 13 30 1 55 -2 55 -7z m7287 3 c-3 -3 -12 -4 -19
-1 -8 3 -5 6 6 6 11 1 17 -2 13 -5z m-3536 -25 c13 -1 29 -1 34 1 21 5 35 -1
35 -16 0 -14 1 -14 16 0 20 20 34 20 34 1 0 -8 7 -15 16 -15 25 0 10 -25 -17
-28 -13 -1 -81 -5 -151 -9 -110 -5 -131 -3 -153 11 -39 26 -17 47 40 39 35 -4
50 -1 72 15 18 13 32 17 39 11 6 -5 22 -10 35 -10z m2624 -17 c-14 -15 -25
-34 -25 -42 1 -11 6 -8 18 8 9 12 24 32 33 44 l16 21 21 -21 c15 -15 18 -23
10 -28 -7 -4 -13 -3 -15 3 -2 5 -20 -5 -40 -23 -30 -28 -38 -31 -49 -19 -21
21 -17 43 12 70 35 33 51 21 19 -13z m612 -8 c-9 -9 -28 6 -21 18 4 6 10 6 17
-1 6 -6 8 -13 4 -17z m-8587 6 c0 -5 -5 -10 -11 -10 -5 0 -7 5 -4 10 3 6 8 10
11 10 2 0 4 -4 4 -10z m335 0 c-3 -5 -30 -10 -58 -10 -62 0 -48 14 18 18 29 1
44 -1 40 -8z m112 4 c-3 -3 -12 -4 -19 -1 -8 3 -5 6 6 6 11 1 17 -2 13 -5z
m-364 -11 c-7 -2 -19 -2 -25 0 -7 3 -2 5 12 5 14 0 19 -2 13 -5z m5527 -14
c-7 -11 -14 -19 -16 -16 -7 7 7 37 17 37 6 0 5 -9 -1 -21z m-4429 0 c-16 -6
-28 -6 -35 1 -7 7 1 10 25 9 32 0 33 -1 10 -10z m3369 -19 c0 -5 -12 -10 -26
-10 -14 0 -23 4 -19 10 3 6 15 10 26 10 10 0 19 -4 19 -10z m4000 -5 c0 -8 -4
-15 -10 -15 -5 0 -10 7 -10 15 0 8 5 15 10 15 6 0 10 -7 10 -15z m-7202 -2
c-10 -2 -28 -2 -40 0 -13 2 -5 4 17 4 22 1 32 -1 23 -4z m3261 -9 c2 -2 2 -7
-2 -10 -8 -9 -47 6 -47 17 0 9 37 3 49 -7z m4871 6 c0 -5 -7 -10 -15 -10 -8 0
-15 5 -15 10 0 6 7 10 15 10 8 0 15 -4 15 -10z m413 3 c-7 -2 -19 -2 -25 0 -7
3 -2 5 12 5 14 0 19 -2 13 -5z m-8985 -9 c32 -9 27 -24 -7 -24 -30 0 -46 12
-34 24 8 7 12 7 41 0z m6401 -18 c9 -10 8 -15 -2 -19 -19 -7 -41 8 -33 22 10
15 21 14 35 -3z m491 4 c0 -12 -53 -40 -75 -40 -24 0 -8 18 28 34 40 18 47 19
47 6z m3650 0 c0 -5 -5 -10 -11 -10 -5 0 -7 5 -4 10 3 6 8 10 11 10 2 0 4 -4
4 -10z m-4373 -25 c-4 -8 -14 -15 -23 -15 -16 0 -16 2 2 19 21 21 29 19 21 -4z
m3159 9 c14 -10 23 -23 20 -30 -3 -8 5 -15 22 -18 15 -2 -4 -3 -43 0 -38 2
-96 4 -127 4 -32 0 -58 4 -58 9 0 6 24 7 55 4 51 -5 55 -4 66 21 14 30 30 33
65 10z m-903 -1 c-13 -2 -35 -2 -50 0 -16 2 -5 4 22 4 28 0 40 -2 28 -4z m422
-3 c-3 -5 -21 -9 -38 -9 l-32 1 30 8 c43 11 47 11 40 0z m595 -9 c0 -4 -9 -7
-20 -7 -20 0 -25 7 -14 19 7 7 34 -2 34 -12z m-882 2 c-15 -2 -42 -2 -60 0
-18 2 -6 4 27 4 33 0 48 -2 33 -4z m105 0 c-7 -2 -19 -2 -25 0 -7 3 -2 5 12 5
14 0 19 -2 13 -5z m712 -13 c3 -5 1 -10 -4 -10 -6 0 -11 5 -11 10 0 6 2 10 4
10 3 0 8 -4 11 -10z m-342 -7 c-7 -2 -19 -2 -25 0 -7 3 -2 5 12 5 14 0 19 -2
13 -5z m-9847 -26 c4 -4 -8 -7 -27 -7 -23 0 -30 3 -20 9 15 10 37 9 47 -2z
m6394 4 c0 -6 -4 -13 -10 -16 -5 -3 -10 1 -10 9 0 9 5 16 10 16 6 0 10 -4 10
-9z m4381 -48 c-23 -18 -51 -16 -51 3 0 12 6 15 25 10 22 -6 25 -3 26 21 l1
28 7 -25 c5 -17 2 -29 -8 -37z m-3573 34 c16 -12 16 -31 0 -21 -7 5 -22 8 -33
8 -11 0 -26 -3 -33 -8 -13 -8 -17 15 -5 28 9 9 54 4 71 -7z m3045 6 c-7 -2
-19 -2 -25 0 -7 3 -2 5 12 5 14 0 19 -2 13 -5z m142 -4 c-27 -10 -105 -11
-105 -1 0 5 28 9 62 9 39 0 55 -3 43 -8z m-3945 -9 c0 -5 -2 -10 -4 -10 -3 0
-8 5 -11 10 -3 6 -1 10 4 10 6 0 11 -4 11 -10z m1080 1 c0 -5 -7 -14 -15 -21
-12 -10 -15 -10 -15 2 0 8 3 18 7 21 9 10 23 9 23 -2z m-940 -11 c0 -5 -9 -10
-20 -10 -11 0 -20 -5 -20 -10 0 -6 -8 -5 -20 2 -20 13 -20 13 2 20 35 10 58 9
58 -2z m780 -4 c0 -14 -24 -29 -33 -19 -3 3 -3 11 0 19 7 18 33 18 33 0z
m1024 -19 c-9 -24 -23 -11 -17 14 3 12 9 17 15 11 5 -5 6 -16 2 -25z m-837 -9
c-3 -8 -6 -5 -6 6 -1 11 2 17 5 13 3 -3 4 -12 1 -19z m48 -6 c-3 -3 -11 0 -18
7 -9 10 -8 11 6 5 10 -3 15 -9 12 -12z m3145 -22 c0 -5 -4 -10 -10 -10 -5 0
-10 5 -10 10 0 6 5 10 10 10 6 0 10 -4 10 -10z m571 -23 c-13 -13 -26 -3 -16
12 3 6 11 8 17 5 6 -4 6 -10 -1 -17z m-4244 -13 c-9 -9 -28 6 -21 18 4 6 10 6
17 -1 6 -6 8 -13 4 -17z m1413 7 c0 -10 -30 -24 -37 -17 -3 3 -2 9 2 15 8 13
35 15 35 2z m2704 -73 c4 -17 -1 -28 -19 -41 -14 -10 -25 -25 -25 -32 0 -7 -6
-16 -12 -18 -9 -4 -6 -11 9 -24 l21 -18 -34 -22 c-30 -20 -34 -20 -34 -5 0 13
-2 14 -9 3 -5 -7 -11 -9 -14 -4 -3 5 3 17 14 26 19 17 27 43 9 32 -23 -14 -7
8 38 51 29 29 42 48 34 51 -6 3 -10 9 -6 14 9 16 21 10 28 -13z m56 -14 c0 -8
-4 -12 -10 -9 -5 3 -10 10 -10 16 0 5 5 9 10 9 6 0 10 -7 10 -16z m-240 -48
c0 -3 -4 -8 -10 -11 -5 -3 -10 -1 -10 4 0 6 5 11 10 11 6 0 10 -2 10 -4z m-86
-28 c-7 -11 -34 -10 -34 1 0 6 9 9 19 8 11 0 17 -5 15 -9z m360 -14 c4 -9 4
-19 2 -22 -10 -9 -36 8 -36 23 0 20 26 19 34 -1z m-7939 -4 c3 -5 2 -10 -4
-10 -5 0 -13 5 -16 10 -3 6 -2 10 4 10 5 0 13 -4 16 -10z m5653 -15 c7 -14 11
-43 11 -63 l-1 -37 -7 37 c-4 20 -15 48 -25 62 -13 20 -13 26 -3 26 8 0 19
-11 25 -25z m1866 4 c-3 -6 -1 -15 7 -19 10 -7 10 -11 0 -24 -8 -9 -19 -16
-26 -16 -22 0 -22 22 0 46 21 25 31 31 19 13z m-1997 -29 c-12 -31 -27 -40
-27 -16 0 25 12 46 25 46 11 0 11 -6 2 -30z m-5501 4 c-4 -9 -1 -23 5 -31 16
-18 7 -25 -24 -18 -35 9 -44 45 -11 45 13 0 24 5 24 10 0 6 3 10 6 10 3 0 3
-7 0 -16z m7859 -30 c20 -15 20 -16 -4 -12 -14 2 -26 9 -29 16 -5 16 9 15 33
-4z m-145 -24 c0 -5 -2 -10 -4 -10 -3 0 -8 5 -11 10 -3 6 -1 10 4 10 6 0 11
-4 11 -10z m-1288 -29 c7 0 4 4 -7 9 -16 7 -12 9 18 9 23 1 36 -3 32 -9 -3 -5
1 -10 9 -10 9 0 16 5 16 11 0 15 87 4 106 -12 8 -7 14 -7 14 -2 0 9 15 8 125
-10 38 -6 58 -23 52 -46 -3 -11 -2 -21 3 -21 4 0 10 -9 13 -19 5 -21 0 -23
-88 -37 -22 -3 -54 -10 -71 -15 -25 -8 -46 -4 -101 16 -89 32 -93 31 -93 -4 0
-23 -7 -32 -30 -43 -16 -7 -30 -16 -30 -21 0 -14 -48 -56 -55 -49 -4 4 -5 2
-4 -3 2 -6 -2 -21 -9 -35 l-13 -25 24 25 c13 14 32 30 43 37 25 16 135 73 139
73 2 0 3 -17 2 -39 -1 -31 -7 -41 -30 -55 -17 -9 -27 -19 -24 -23 4 -3 14 0
23 7 13 12 17 11 25 -1 11 -18 11 -26 0 -33 -4 -3 -9 -31 -10 -63 0 -32 -8
-67 -16 -80 -9 -13 -13 -28 -10 -33 4 -6 0 -13 -9 -16 -8 -3 -24 -25 -35 -49
-17 -35 -24 -42 -41 -38 -17 4 -21 2 -18 -12 2 -10 -3 -20 -9 -22 -8 -3 -13 4
-13 16 0 14 -6 21 -19 21 -15 0 -18 5 -13 22 3 14 1 19 -6 14 -6 -3 -20 4 -31
16 -12 12 -21 16 -21 10 0 -15 21 -54 35 -64 6 -4 2 -8 -7 -8 -10 0 -18 -4
-18 -10 0 -5 5 -10 12 -10 6 0 8 -3 5 -6 -4 -4 -13 -1 -22 6 -8 7 -25 10 -39
6 -21 -5 -31 2 -62 39 -21 24 -39 52 -41 62 -14 82 -14 93 -4 93 6 0 11 7 11
15 0 8 4 15 8 15 5 0 16 16 25 36 14 29 15 39 5 51 -10 13 -14 11 -31 -9 -13
-16 -20 -19 -24 -10 -2 6 -10 9 -16 5 -6 -4 -31 -7 -56 -6 -45 0 -45 0 -6 -4
l40 -4 -1 -49 c0 -38 -7 -56 -30 -83 -34 -41 -78 -62 -92 -44 -23 31 -21 75 8
129 6 11 6 19 0 23 -6 3 -10 1 -10 -4 0 -16 -91 -13 -124 4 -15 8 -37 15 -47
15 -10 0 -21 5 -24 10 -3 6 -18 7 -32 4 -20 -5 -24 -4 -18 6 6 10 2 11 -19 6
-39 -10 -66 9 -66 45 0 25 3 28 18 21 20 -11 42 -5 42 10 0 6 -7 8 -15 4 -16
-6 -18 -2 -9 31 7 24 63 51 65 30 0 -9 2 -9 6 1 2 6 17 12 31 12 21 0 24 2 12
10 -13 8 -12 10 3 10 9 0 26 9 37 20 11 11 31 22 45 26 14 3 25 10 25 14 0 10
24 19 69 26 20 3 39 8 42 9 15 10 111 20 169 18 47 -2 61 0 50 8 -11 7 -5 9
25 7 22 -1 46 -8 54 -16 18 -18 36 -10 35 17 0 16 5 21 23 21 13 0 23 5 23 10
0 7 6 7 19 0 11 -5 26 -10 33 -9z m1348 -21 c-18 -11 -24 -6 -16 16 5 14 9 15
19 5 9 -9 9 -14 -3 -21z m-2185 -60 c3 -5 -1 -10 -10 -10 -9 0 -13 5 -10 10 3
6 8 10 10 10 2 0 7 -4 10 -10z m1265 -20 c-8 -5 -19 -10 -25 -10 -5 0 -3 5 5
10 8 5 20 10 25 10 6 0 3 -5 -5 -10z m-7133 -26 c-3 -3 -12 -4 -19 -1 -8 3 -5
6 6 6 11 1 17 -2 13 -5z m8123 -15 c0 -5 -4 -9 -10 -9 -5 0 -10 7 -10 16 0 8
5 12 10 9 6 -3 10 -10 10 -16z m-6970 7 c0 -2 -11 -6 -25 -8 -14 -3 -25 -1
-25 3 0 5 11 9 25 9 14 0 25 -2 25 -4z m3262 -29 c16 -33 16 -34 -12 -50 -28
-17 -71 -22 -83 -11 -3 4 3 24 13 44 17 33 28 42 61 49 3 0 12 -14 21 -32z
m-4452 13 c0 -5 -5 -10 -11 -10 -5 0 -7 5 -4 10 3 6 8 10 11 10 2 0 4 -4 4
-10z m768 1 c10 -6 8 -10 -10 -14 -12 -4 -32 -7 -43 -7 -20 1 -20 1 -1 15 22
17 35 18 54 6z m172 -7 c0 -8 -5 -12 -10 -9 -6 4 -8 11 -5 16 9 14 15 11 15
-7z m2400 6 c0 -5 -11 -10 -24 -10 -14 0 -28 5 -31 10 -4 6 7 10 24 10 17 0
31 -4 31 -10z m-6593 -6 c-3 -3 -12 -4 -19 -1 -8 3 -5 6 6 6 11 1 17 -2 13 -5z
m4863 -4 c0 -5 -7 -10 -15 -10 -8 0 -15 5 -15 10 0 6 7 10 15 10 8 0 15 -4 15
-10z m-940 -15 c0 -8 -4 -15 -9 -15 -13 0 -22 16 -14 24 11 11 23 6 23 -9z
m530 11 c0 -3 -4 -8 -10 -11 -5 -3 -10 -1 -10 4 0 6 5 11 10 11 6 0 10 -2 10
-4z m355 -6 c-3 -5 -13 -10 -21 -10 -8 0 -12 5 -9 10 3 6 13 10 21 10 8 0 12
-4 9 -10z m2955 -10 c0 -5 -2 -10 -4 -10 -3 0 -8 5 -11 10 -3 6 -1 10 4 10 6
0 11 -4 11 -10z m-3777 -31 c-7 -7 -19 -8 -30 -4 -16 7 -15 9 7 15 30 8 38 4
23 -11z m3800 -24 c1 -6 -14 -11 -33 -13 l-35 -2 25 15 c27 15 40 15 43 0z
m3715 -14 c3 -8 -1 -12 -9 -9 -7 2 -15 10 -17 17 -3 8 1 12 9 9 7 -2 15 -10
17 -17z m-6791 -47 c-3 -3 -12 -4 -19 -1 -8 3 -5 6 6 6 11 1 17 -2 13 -5z
m-1037 -14 c0 -5 -4 -10 -9 -10 -6 0 -13 5 -16 10 -3 6 1 10 9 10 9 0 16 -4
16 -10z m7137 -47 c2 -6 -10 -14 -26 -18 -17 -3 -40 -19 -51 -33 -12 -15 -18
-21 -14 -13 5 10 1 11 -17 6 -33 -10 -51 -29 -21 -22 19 4 21 3 11 -9 -13 -16
-39 -19 -39 -4 0 6 -7 10 -16 8 -37 -7 -23 21 15 33 23 7 46 18 52 26 6 7 19
13 28 13 10 0 26 7 37 15 21 16 36 15 41 -2z m-240 1 c-3 -3 -12 -4 -19 -1 -8
3 -5 6 6 6 11 1 17 -2 13 -5z m-873 -29 c-6 -16 -24 -21 -24 -7 0 11 11 22 21
22 5 0 6 -7 3 -15z m-3234 -2 c-8 -3 -22 -11 -30 -18 -8 -6 -31 -12 -50 -14
-19 -1 -41 -8 -50 -15 -10 -10 -35 -13 -82 -10 -50 2 -71 0 -82 -11 -8 -8 -21
-15 -28 -14 -10 0 -10 2 1 6 10 4 10 7 1 13 -6 4 39 17 102 30 62 12 129 25
148 30 40 9 93 11 70 3z m240 -13 c0 -5 -7 -7 -15 -4 -8 4 -15 8 -15 10 0 2 7
4 15 4 8 0 15 -4 15 -10z m285 -10 c4 -6 11 -7 17 -4 6 4 14 0 19 -7 14 -22
10 -31 -9 -24 -11 3 -29 -3 -43 -14 -24 -19 -25 -19 -25 0 0 10 4 19 8 19 4 0
8 5 8 10 0 6 -9 10 -21 10 -11 0 -17 -4 -14 -10 3 -5 -1 -10 -9 -10 -22 0 -20
27 2 33 32 9 61 7 67 -3z m-990 -21 c-4 -18 -1 -20 23 -14 15 4 30 12 34 18 5
8 8 7 9 -3 0 -8 2 -22 4 -30 2 -12 -5 -15 -31 -12 -22 3 -39 -2 -49 -12 -17
-17 -42 -20 -69 -10 -20 8 -21 24 -1 24 8 0 15 8 16 18 0 10 3 12 6 4 7 -17
23 -5 23 19 0 12 7 19 19 19 15 0 19 -5 16 -21z m648 4 c-6 -15 -4 -16 9 -5
13 10 17 10 20 0 4 -10 9 -8 22 5 19 19 61 23 72 6 4 -7 27 -8 65 -4 69 8 77
1 17 -16 -24 -6 -46 -16 -50 -23 -6 -8 -8 -7 -8 2 0 10 -8 12 -30 7 -34 -8
-60 3 -39 16 7 4 10 11 6 16 -10 10 -28 -18 -22 -34 7 -21 -13 -24 -46 -7 -17
9 -54 16 -82 16 -58 -1 -53 14 8 24 22 3 42 8 44 10 11 11 20 2 14 -13z m-693
-1 c0 -4 -9 -8 -20 -9 -11 -1 -20 2 -20 8 0 5 9 9 20 9 11 0 20 -4 20 -8z
m1861 -8 c10 -12 25 -14 76 -8 41 4 63 3 63 -4 0 -6 -6 -13 -12 -16 -19 -8
172 4 209 14 22 6 35 4 43 -5 17 -21 99 -25 195 -11 50 8 92 12 94 10 2 -2 -2
-11 -10 -20 -12 -15 -9 -16 40 -9 30 4 51 3 48 -1 -3 -5 7 -10 21 -10 107 -6
160 -6 179 0 18 6 22 4 17 -8 -8 -20 21 -21 56 -1 27 15 157 10 175 -6 5 -5
23 -9 40 -9 l30 -1 -30 -16 c-27 -15 -28 -17 -10 -23 49 -18 -25 -23 -189 -11
-94 7 -279 16 -411 21 -433 17 -479 19 -507 25 -15 4 -61 1 -102 -5 -63 -9
-85 -9 -141 5 -39 10 -81 15 -103 11 -20 -4 -63 -9 -95 -12 -52 -6 -60 -4 -73
14 -14 21 -16 21 -51 4 -28 -13 -37 -14 -40 -4 -7 18 -20 15 -26 -7 -3 -13
-17 -20 -53 -24 -27 -3 -50 -2 -52 3 -2 4 -42 6 -90 5 -48 -2 -73 -1 -57 2 17
2 35 8 40 12 6 4 30 9 55 10 31 1 50 8 62 21 9 11 24 20 35 20 15 0 16 2 3 11
-12 9 -12 10 3 5 10 -3 23 -6 28 -6 6 0 8 -4 5 -9 -7 -11 22 -23 35 -15 5 3 7
9 5 13 -3 4 0 8 7 9 7 1 36 6 65 11 47 9 151 14 222 11 14 -1 57 3 95 8 39 5
75 10 81 11 6 0 17 -6 25 -15z m-1358 -31 c-7 -2 -19 -2 -25 0 -7 3 -2 5 12 5
14 0 19 -2 13 -5z m3217 0 c-1 -13 -29 -47 -35 -42 -9 10 8 49 21 49 8 0 14
-3 14 -7z m961 -6 c-6 -8 -8 -33 -4 -65 4 -36 2 -52 -6 -52 -16 0 -15 117 2
123 19 8 20 8 8 -6z m-4374 -3 c-3 -3 -12 -4 -19 -1 -8 3 -5 6 6 6 11 1 17 -2
13 -5z m513 -14 c0 -5 -5 -10 -11 -10 -5 0 -7 5 -4 10 3 6 8 10 11 10 2 0 4
-4 4 -10z m3980 -26 c0 -8 -4 -12 -10 -9 -5 3 -10 10 -10 16 0 5 5 9 10 9 6 0
10 -7 10 -16z m405 -4 c-3 -5 -10 -10 -16 -10 -5 0 -9 5 -9 10 0 6 7 10 16 10
8 0 12 -4 9 -10z m-4158 -16 c-3 -3 -12 -4 -19 -1 -8 3 -5 6 6 6 11 1 17 -2
13 -5z m373 2 c0 -3 -4 -8 -10 -11 -5 -3 -10 -1 -10 4 0 6 5 11 10 11 6 0 10
-2 10 -4z m2250 -15 c0 -5 -13 -11 -29 -13 -21 -3 -28 -1 -24 9 6 14 53 18 53
4z m1390 -12 c0 -5 -4 -9 -10 -9 -5 0 -10 7 -10 16 0 8 5 12 10 9 6 -3 10 -10
10 -16z m-1320 -58 c-1 -13 -4 -12 -15 3 -8 11 -15 27 -15 35 1 13 4 12 15 -3
8 -11 15 -27 15 -35z m1474 35 c-3 -8 -12 -17 -20 -20 -8 -3 -14 -16 -14 -30
0 -14 -4 -28 -10 -31 -6 -3 -7 1 -4 9 5 12 -1 16 -20 16 -35 0 -24 23 25 50
42 23 50 24 43 6z m-10564 -6 c0 -5 -5 -10 -11 -10 -5 0 -7 5 -4 10 3 6 8 10
11 10 2 0 4 -4 4 -10z m10380 -5 c18 11 11 -5 -15 -32 -18 -21 -25 -24 -29
-12 -5 12 -4 22 3 58 1 2 8 -2 16 -9 8 -6 19 -9 25 -5z m-107 -39 c6 -14 -2
-56 -9 -56 -2 0 -13 9 -23 19 -17 17 -18 20 -3 35 20 20 28 20 35 2z m-2668
-16 c3 -5 2 -10 -3 -10 -5 0 -25 -2 -43 -5 l-34 -6 30 15 c37 18 42 19 50 6z
m1535 -31 c0 -12 10 -21 25 -25 37 -9 33 -36 -6 -32 -25 2 -33 9 -43 39 -15
43 -10 65 10 48 8 -6 14 -20 14 -30z m167 35 c-3 -3 -12 -4 -19 -1 -8 3 -5 6
6 6 11 1 17 -2 13 -5z m300 -10 c8 -22 -15 -44 -26 -25 -10 16 -4 41 10 41 5
0 12 -7 16 -16z m-3627 -4 c0 -5 -12 -10 -26 -10 -14 0 -23 4 -19 10 3 6 15
10 26 10 10 0 19 -4 19 -10z m3971 -3 c-3 -34 -17 -60 -39 -68 -32 -12 -35 -8
-27 31 4 19 16 35 28 40 24 10 39 8 38 -3z m-6276 -2 c-26 -9 -105 -12 -105
-4 0 5 26 9 58 8 31 0 53 -2 47 -4z m-4022 -32 c-7 -2 -19 -2 -25 0 -7 3 -2 5
12 5 14 0 19 -2 13 -5z m9895 -54 c2 -60 -8 -85 -32 -76 -30 12 -14 144 17
135 7 -3 13 -26 15 -59z m-3778 41 c-20 -13 -43 -13 -35 0 3 6 16 10 28 10 18
0 19 -2 7 -10z m3500 1 c0 -13 -29 -35 -37 -28 -7 8 15 37 28 37 5 0 9 -4 9
-9z m382 -57 c2 -47 -1 -68 -9 -71 -7 -3 -13 -15 -13 -27 0 -11 -5 -28 -10
-36 -8 -11 -10 0 -8 40 1 32 -5 70 -14 91 -15 34 -15 38 0 53 9 9 24 16 33 16
14 0 18 -12 21 -66z m-2832 36 c-8 -5 -24 -9 -35 -9 l-20 0 20 9 c11 5 27 9
35 9 13 1 13 0 0 -9z m3094 -82 c-7 -93 -9 -98 -34 -98 -26 0 -26 19 0 104 28
88 42 85 34 -6z m-4364 42 c0 -5 -18 -10 -39 -10 -22 0 -43 5 -46 10 -4 6 12
10 39 10 25 0 46 -4 46 -10z m4466 -17 c12 -48 9 -98 -7 -98 -10 0 -14 16 -15
63 0 65 11 82 22 35z m-4301 7 c-3 -5 -15 -10 -26 -10 -10 0 -19 5 -19 10 0 6
12 10 26 10 14 0 23 -4 19 -10z m725 0 c0 -5 -9 -10 -20 -10 -11 0 -20 5 -20
10 0 6 9 10 20 10 11 0 20 -4 20 -10z m2160 7 c0 -1 -9 -20 -20 -42 -21 -41
-28 -24 -8 20 9 20 28 35 28 22z m-1570 -17 c0 -5 -8 -10 -17 -10 -15 0 -16 2
-3 10 19 12 20 12 20 0z m-3858 -22 c-17 -8 -26 -8 -34 0 -9 9 -4 12 23 11 32
0 33 -1 11 -11z m3407 -3 c33 -10 12 -24 -26 -18 -20 3 -33 11 -33 20 0 9 7
13 18 9 9 -2 28 -7 41 -11z m-4754 -5 c3 -5 1 -10 -4 -10 -6 0 -11 5 -11 10 0
6 2 10 4 10 3 0 8 -4 11 -10z m4550 0 c3 -5 -1 -10 -9 -10 -8 0 -18 5 -21 10
-3 6 1 10 9 10 8 0 18 -4 21 -10z m2165 1 c0 -5 -9 -11 -21 -14 -16 -4 -18 -3
-8 9 13 16 29 19 29 5z m-730 -15 c-28 -15 -139 -32 -127 -19 14 13 79 31 117
32 35 0 35 0 10 -13z m-6017 -67 c-14 -14 -67 -3 -57 12 3 6 12 8 20 5 7 -3
16 0 20 5 4 7 10 7 17 0 8 -8 8 -14 0 -22z m117 23 c0 -16 -25 -32 -49 -32
l-26 1 24 19 c24 20 51 27 51 12z m-4020 -22 c0 -5 -7 -10 -16 -10 -8 0 -12 5
-9 10 3 6 10 10 16 10 5 0 9 -4 9 -10z m11676 -17 c-10 -10 -19 5 -10 18 6 11
8 11 12 0 2 -7 1 -15 -2 -18z m-971 -3 c3 -5 1 -10 -4 -10 -6 0 -11 5 -11 10
0 6 2 10 4 10 3 0 8 -4 11 -10z m-8958 -16 c-3 -3 -12 -4 -19 -1 -8 3 -5 6 6
6 11 1 17 -2 13 -5z m10003 -24 c12 -8 11 -10 -7 -10 -13 0 -23 5 -23 10 0 13
11 13 30 0z m-835 -10 c-3 -5 -10 -10 -16 -10 -5 0 -9 5 -9 10 0 6 7 10 16 10
8 0 12 -4 9 -10z m-1665 -71 c0 -11 -4 -17 -10 -14 -5 3 -10 13 -10 21 0 8 5
14 10 14 6 0 10 -9 10 -21z m55 -10 c4 -12 3 -25 -3 -31 -6 -6 -11 1 -14 21
-5 35 7 42 17 10z m65 -3 c0 -14 -4 -28 -10 -31 -6 -4 -10 7 -10 24 0 17 5 31
10 31 6 0 10 -11 10 -24z m67 -8 c-3 -8 -6 -5 -6 6 -1 11 2 17 5 13 3 -3 4
-12 1 -19z m-37 -14 c0 -8 -4 -12 -10 -9 -5 3 -10 10 -10 16 0 5 5 9 10 9 6 0
10 -7 10 -16z m-1960 -239 c0 -8 -6 -15 -14 -15 -20 0 -29 17 -14 23 22 9 28
7 28 -8z m-74 -39 c6 -17 -37 -66 -58 -66 -22 0 -90 -29 -109 -46 -14 -13 -23
-13 -58 -2 -22 7 -41 19 -41 25 0 7 -4 13 -10 13 -5 0 -10 -7 -10 -15 0 -14
-4 -14 -31 1 -29 14 -30 17 -15 32 20 21 76 19 114 -3 28 -17 30 -17 88 15 32
18 68 39 79 46 25 18 44 18 51 0z m-122 -131 c3 -8 12 -15 21 -15 8 0 15 -4
15 -10 0 -5 -6 -10 -14 -10 -8 0 -24 -11 -37 -25 -24 -25 -49 -33 -49 -16 0 6
5 13 10 16 6 3 10 19 10 35 0 25 9 36 31 39 4 1 9 -6 13 -14z m-220 -1 c9 -3
16 -17 16 -29 0 -13 3 -25 8 -28 4 -2 0 -2 -8 0 -8 2 -40 -6 -71 -17 l-56 -21
-33 20 -33 19 39 12 c21 6 55 19 74 29 41 22 44 23 64 15z m-201 -84 c15 -18
16 -21 1 -27 -8 -3 -27 0 -42 7 -26 11 -26 12 -7 26 25 18 27 18 48 -6z m295
13 c-10 -2 -26 -2 -35 0 -10 3 -2 5 17 5 19 0 27 -2 18 -5z"/>
<path d="M2450 3980 c0 -5 5 -10 10 -10 6 0 10 5 10 10 0 6 -4 10 -10 10 -5 0
-10 -4 -10 -10z"/>
<path d="M7213 3861 c2 -28 22 -39 30 -17 4 10 1 13 -8 10 -7 -3 -16 3 -18 13
-4 12 -5 10 -4 -6z"/>
<path d="M7460 3805 c0 -8 7 -15 15 -15 9 0 12 6 9 15 -4 8 -10 15 -15 15 -5
0 -9 -7 -9 -15z"/>
<path d="M6400 3775 c0 -8 4 -15 10 -15 5 0 7 7 4 15 -4 8 -8 15 -10 15 -2 0
-4 -7 -4 -15z"/>
<path d="M6556 3781 c-4 -7 -5 -15 -2 -18 9 -9 19 4 14 18 -4 11 -6 11 -12 0z"/>
<path d="M6950 3750 c-8 -5 -11 -12 -8 -16 4 -3 14 1 23 10 18 17 9 21 -15 6z"/>
<path d="M6412 3730 c0 -14 2 -19 5 -12 2 6 2 18 0 25 -3 6 -5 1 -5 -13z"/>
<path d="M6937 3683 c-4 -3 -7 -11 -7 -17 0 -6 5 -5 12 2 6 6 9 14 7 17 -3 3
-9 2 -12 -2z"/>
<path d="M9505 3837 c-4 -10 -5 -21 -1 -24 10 -10 18 4 13 24 -4 17 -4 17 -12
0z"/>
<path d="M9330 3794 c0 -8 5 -12 10 -9 6 3 10 10 10 16 0 5 -4 9 -10 9 -5 0
-10 -7 -10 -16z"/>
<path d="M9221 3704 c0 -11 3 -14 6 -6 3 7 2 16 -1 19 -3 4 -6 -2 -5 -13z"/>
<path d="M9256 3684 c-5 -14 -4 -15 9 -4 17 14 19 20 6 20 -5 0 -12 -7 -15
-16z"/>
<path d="M10720 3400 c0 -5 7 -10 16 -10 8 0 12 5 9 10 -3 6 -10 10 -16 10 -5
0 -9 -4 -9 -10z"/>
<path d="M7795 3409 c-4 -6 -5 -12 -2 -15 2 -3 7 2 10 11 7 17 1 20 -8 4z"/>
<path d="M8050 3405 c45 -17 50 -18 45 -2 -3 6 -22 13 -43 14 l-37 2 35 -14z"/>
<path d="M8150 3409 c0 -6 -7 -9 -15 -5 -8 3 -15 1 -15 -4 0 -14 13 -12 46 5
27 14 27 15 7 15 -13 0 -23 -5 -23 -11z"/>
<path d="M7590 3400 c0 -5 -15 -10 -32 -11 -31 0 -32 -1 -9 -10 13 -5 29 -6
35 -1 6 5 26 9 44 10 27 2 32 -1 32 -19 0 -15 5 -19 15 -15 9 3 15 0 15 -9 0
-8 5 -15 10 -15 6 0 10 5 10 10 0 6 3 9 8 9 4 -1 21 -1 37 0 22 1 26 4 16 10
-9 6 -22 6 -31 1 -12 -6 -21 -3 -33 11 -9 10 -24 19 -32 19 -8 0 -15 5 -15 10
0 14 -37 12 -43 -2 -4 -10 -6 -10 -6 0 -1 14 -21 17 -21 2z"/>
<path d="M7710 3400 c0 -5 16 -10 35 -10 19 0 35 5 35 10 0 6 -16 10 -35 10
-19 0 -35 -4 -35 -10z"/>
<path d="M8028 3353 c7 -3 16 -2 19 1 4 3 -2 6 -13 5 -11 0 -14 -3 -6 -6z"/>
<path d="M8635 3350 c-4 -6 7 -10 27 -9 27 0 30 2 13 9 -27 12 -33 12 -40 0z"/>
<path d="M8587 3326 c-14 -11 -15 -15 -5 -19 10 -4 10 -8 -2 -16 -13 -10 -13
-11 0 -12 8 -1 19 -1 24 0 4 1 14 -4 22 -10 21 -18 17 4 -6 29 -17 18 -18 22
-5 22 8 0 15 -5 15 -10 0 -7 6 -7 18 -2 9 5 22 7 29 5 6 -2 14 1 19 8 5 9 -2
10 -29 5 -21 -4 -38 -2 -42 4 -8 13 -16 12 -38 -4z"/>
<path d="M8610 3240 c13 -9 13 -11 0 -20 -8 -5 -10 -10 -5 -10 6 -1 27 -2 48
-4 21 -2 39 0 41 3 2 3 -7 7 -20 7 -13 1 -31 9 -39 18 -9 9 -22 16 -28 16 -7
0 -6 -4 3 -10z"/>
<path d="M9407 3223 c-14 -4 -16 -8 -6 -19 12 -15 59 -20 59 -6 0 10 -22 32
-29 31 -4 -1 -14 -3 -24 -6z"/>
<path d="M8905 3121 c26 -11 138 -32 142 -27 8 8 -92 36 -126 35 -29 0 -32 -2
-16 -8z"/>
<path d="M6587 3093 c-4 -3 -7 -11 -7 -17 0 -6 5 -5 12 2 6 6 9 14 7 17 -3 3
-9 2 -12 -2z"/>
<path d="M5301 2994 c0 -11 3 -14 6 -6 3 7 2 16 -1 19 -3 4 -6 -2 -5 -13z"/>
<path d="M5338 2983 c7 -3 16 -2 19 1 4 3 -2 6 -13 5 -11 0 -14 -3 -6 -6z"/>
<path d="M2610 2930 c0 -13 11 -13 30 0 12 8 11 10 -7 10 -13 0 -23 -4 -23
-10z"/>
<path d="M4005 2910 c-10 -16 -6 -18 44 -21 29 -2 46 1 49 9 2 8 -7 12 -26 12
-17 0 -37 3 -45 6 -8 3 -18 0 -22 -6z"/>
<path d="M2470 2880 c0 -6 7 -10 15 -10 8 0 15 2 15 4 0 2 -7 6 -15 10 -8 3
-15 1 -15 -4z"/>
<path d="M900 2930 c0 -5 7 -10 15 -10 8 0 15 5 15 10 0 6 -7 10 -15 10 -8 0
-15 -4 -15 -10z"/>
<path d="M9125 2970 c-3 -5 3 -10 15 -10 12 0 18 5 15 10 -3 6 -10 10 -15 10
-5 0 -12 -4 -15 -10z"/>
<path d="M9315 2970 c-3 -5 -1 -10 4 -10 6 0 11 5 11 10 0 6 -2 10 -4 10 -3 0
-8 -4 -11 -10z"/>
<path d="M9350 2961 c0 -5 9 -15 19 -20 14 -8 22 -7 31 4 10 12 10 15 -3 15
-8 0 -22 3 -31 6 -9 3 -16 1 -16 -5z"/>
<path d="M9080 2943 c0 -7 -7 -13 -15 -13 -8 0 -15 -5 -15 -10 0 -14 23 -22
50 -18 l22 3 -20 25 c-12 14 -21 19 -22 13z"/>
<path d="M11480 2189 c0 -7 -13 -9 -32 -6 -18 2 -41 0 -50 -5 -22 -11 -24 -40
-3 -32 8 4 22 1 31 -6 12 -11 17 -10 30 8 12 18 19 20 40 12 14 -6 40 -10 57
-9 18 0 25 3 17 6 -8 3 -32 14 -52 24 -23 11 -38 14 -38 8z"/>
<path d="M11275 1979 c-4 -6 -5 -12 -2 -15 2 -3 7 2 10 11 7 17 1 20 -8 4z"/>
<path d="M10760 1950 c0 -5 5 -10 10 -10 6 0 10 5 10 10 0 6 -4 10 -10 10 -5
0 -10 -4 -10 -10z"/>
<path d="M11382 1938 c-7 -7 -12 -22 -12 -35 0 -13 -5 -23 -12 -23 -6 0 -8 -3
-5 -6 13 -13 38 18 31 39 -5 17 -3 19 20 13 28 -7 36 8 10 18 -20 8 -18 8 -32
-6z"/>
<path d="M11548 1826 c-35 -27 -35 -35 -3 -29 13 3 27 14 31 25 9 28 3 29 -28
4z"/>
<path d="M8940 1780 c20 -13 33 -13 25 0 -3 6 -14 10 -23 10 -15 0 -15 -2 -2
-10z"/>
<path d="M8788 1743 c7 -3 16 -2 19 1 4 3 -2 6 -13 5 -11 0 -14 -3 -6 -6z"/>
<path d="M10515 1720 c-4 -6 5 -10 19 -10 14 0 26 5 26 10 0 6 -9 10 -19 10
-11 0 -23 -4 -26 -10z"/>
<path d="M11738 4753 c7 -3 16 -2 19 1 4 3 -2 6 -13 5 -11 0 -14 -3 -6 -6z"/>
<path d="M13350 3150 c0 -5 5 -10 10 -10 6 0 10 5 10 10 0 6 -4 10 -10 10 -5
0 -10 -4 -10 -10z"/>
<path d="M13063 3023 c-3 -10 -15 -26 -27 -35 -12 -10 -15 -18 -9 -18 20 0 -4
-51 -38 -82 -17 -16 -26 -28 -22 -28 14 0 83 60 83 72 0 6 13 33 30 59 28 46
29 49 10 49 -12 0 -23 -8 -27 -17z"/>
<path d="M12872 2889 c-52 -26 -50 -32 4 -18 24 6 41 17 41 25 0 8 -1 14 -1
14 -1 0 -20 -10 -44 -21z"/>
<path d="M12925 2840 c-3 -5 -2 -10 4 -10 5 0 13 5 16 10 3 6 2 10 -4 10 -5 0
-13 -4 -16 -10z"/>
<path d="M12310 2690 c-12 -7 -12 -12 -3 -21 10 -10 14 -9 19 5 8 22 2 27 -16
16z"/>
<path d="M12324 2505 c-18 -13 -18 -14 4 -8 12 3 25 9 28 14 8 14 -10 11 -32
-6z"/>
<path d="M12430 2139 c0 -5 5 -7 10 -4 6 3 10 8 10 11 0 2 -4 4 -10 4 -5 0
-10 -5 -10 -11z"/>
<path d="M12920 2070 c0 -5 5 -10 10 -10 6 0 10 5 10 10 0 6 -4 10 -10 10 -5
0 -10 -4 -10 -10z"/>
<path d="M12936 2011 c-4 -7 -5 -15 -2 -18 9 -9 19 4 14 18 -4 11 -6 11 -12 0z"/>
<path d="M11744 1877 c-31 -21 -82 -113 -68 -125 3 -4 9 -1 11 6 3 6 14 12 25
12 17 0 18 3 8 15 -20 24 4 45 40 35 16 -4 31 -5 35 -2 3 4 3 -1 -1 -11 -3 -9
-12 -17 -19 -17 -18 0 -28 -32 -14 -41 16 -9 59 10 59 27 0 7 9 28 19 46 l19
33 -42 21 -41 21 -31 -20z"/>
<path d="M2988 1273 c-40 -48 -69 -113 -50 -113 12 0 82 98 82 115 0 20 -13
19 -32 -2z"/>
<path d="M3175 1069 c-43 -58 -55 -89 -36 -89 9 0 88 100 97 124 3 8 1 17 -5
20 -6 4 -31 -21 -56 -55z"/>
<path d="M4000 896 c0 -19 7 -26 30 -31 17 -4 30 -11 30 -16 0 -5 7 -9 16 -9
11 0 14 5 10 16 -3 9 -6 22 -6 30 0 9 -5 12 -10 9 -6 -4 -22 0 -35 9 -32 21
-35 20 -35 -8z"/>
</g>
</svg>
