<svg version="1.1" xmlns="http://www.w3.org/2000/svg" viewBox="0 0 732 677" width="732" height="677">
  <!-- svg-source:excalidraw -->
  
  <defs>
    <style>
      @font-face {
        font-family: "Virgil";
        src: url("https://excalidraw.com/Virgil.woff2");
      }
      @font-face {
        font-family: "Cascadia";
        src: url("https://excalidraw.com/Cascadia.woff2");
      }
    </style>
  </defs>
  <rect x="0" y="0" width="732" height="677" fill="#ffffff"></rect><g transform="translate(10 10) rotate(0 355.5 328.5)"><path d="M-0.03429809287190438 0.3967589803040028 C249.35403645699847 2.9005422199703754, 499.09016687478874 2.386407407615334, 711.086043279618 -0.20484955832362176 M-0.3982990171760321 0.10814189575612546 C187.37442305432634 2.0453616026453676, 374.52396130319687 2.461988067965955, 710.7861227724701 -0.06765009500086308 M710.9959418468177 -0.6911122612655163 C710.0299188026153 207.20648425677794, 711.0643825181686 414.7313947701827, 711.2628339700401 656.2585678048432 M711.0572889063508 -0.20720154382288458 C712.2448394629248 256.9438333722763, 712.1872410508879 513.3753213981167, 711.0111416194588 657.2171128954739 M711.6886321954429 656.3647062249481 C451.42754848981275 653.8576440095567, 193.68862588647755 654.1502032279633, -0.5720704384148121 656.9878672786057 M710.7114184711129 657.2810190882534 C503.179988536518 657.8875355437883, 294.67920778710385 657.9319795445092, -0.3795923259109259 656.8988359536976 M-0.29580224230885505 656.7299615092576 C0.8168284462131561 473.88723909547554, 0.342815904442221 292.05762169267985, 0.4159736089408398 -0.5379228167235851 M0.3871975872665644 657.0147349443287 C0.46668158016726374 432.78043987946586, 0.4050083085112274 209.33643679153172, 0.13116947151720523 -0.31844039298594" stroke="#000000" stroke-width="1" fill="none"></path></g><g transform="translate(83 54) rotate(0 301 87.5)"><text x="0" y="18" font-family="Virgil, Segoe UI Emoji" font-size="20px" fill="#000000" text-anchor="start" style="white-space: pre;" direction="ltr">The fact that you have clicked on this button shows</text><text x="0" y="43" font-family="Virgil, Segoe UI Emoji" font-size="20px" fill="#000000" text-anchor="start" style="white-space: pre;" direction="ltr">how much happiness you lack as child...... I pity thee....</text><text x="0" y="68" font-family="Virgil, Segoe UI Emoji" font-size="20px" fill="#000000" text-anchor="start" style="white-space: pre;" direction="ltr"></text><text x="0" y="93" font-family="Virgil, Segoe UI Emoji" font-size="20px" fill="#000000" text-anchor="start" style="white-space: pre;" direction="ltr"></text><text x="0" y="118" font-family="Virgil, Segoe UI Emoji" font-size="20px" fill="#000000" text-anchor="start" style="white-space: pre;" direction="ltr">But since you are here... I'll atleast share some knowledge..</text><text x="0" y="143" font-family="Virgil, Segoe UI Emoji" font-size="20px" fill="#000000" text-anchor="start" style="white-space: pre;" direction="ltr"></text><text x="0" y="168" font-family="Virgil, Segoe UI Emoji" font-size="20px" fill="#000000" text-anchor="start" style="white-space: pre;" direction="ltr"></text></g><g transform="translate(109 224) rotate(0 82 81.5)"><path d="M97.20677123428788 2.0298345250980248 C108.20136427577539 2.773456157719752, 120.58428733052494 8.72490416881455, 129.97870759179128 15.295028305921676 C139.3731278530576 21.8651524430288, 148.0633021742589 31.695064240026532, 153.57329280188588 41.450579347740785 C159.08328342951287 51.20609445545504, 162.2715964411631 62.639941718670826, 163.03865135755325 73.8281189522072 C163.8057062739434 85.01629618574358, 162.1606814811631 97.8625156845205, 158.17562230022685 108.57964274895907 C154.1905631192906 119.29676981339765, 147.08386969553368 129.94730001058844, 139.12829627193577 138.13088133883863 C131.17272284833786 146.31446266708883, 121.02689844874513 153.61595717758522, 110.44218175863935 157.68113071846025 C99.85746506853357 161.7463042593353, 87.31054037830786 163.4719854205447, 75.6199961313011 162.52192258408888 C63.929451884294316 161.57185974763306, 50.52827703760958 157.75671927694492, 40.29891627659871 151.98075369972528 C30.069555515587844 146.20478812250565, 20.896065774649614 137.29903404288282, 14.24383156523588 127.8661291207711 C7.591597355822146 118.43322419865939, 2.23878178488214 106.59615651500854, 0.38551102011631144 95.38332416705501 C-1.4677597446495174 84.17049181910147, 0.17685275173050607 71.7296889418981, 3.124206976640906 60.589135033049914 C6.071561201551306 49.44858112420172, 10.705875973808787 37.24733081672358, 18.06963636957871 28.54000071396586 C25.433396765348633 19.832670611208137, 36.62193560472525 13.209454158136992, 47.30676935126045 8.345154416503576 C57.99160309779565 3.4808546748701596, 72.43861530639903 0.24550885521145693, 82.1786388487899 -0.6457977358346341 C91.91866239118077 -1.537104326880725, 100.16395463874716 1.486491598838569, 105.7469106056057 2.9973148702270294 C111.32986657246425 4.50813814161549, 115.93007274231472 7.086016716104564, 115.6763746499412 8.419141892496128 M63.2187405865427 2.6080781127868278 C73.77883889940723 -1.1126775460540146, 86.9265000909313 0.2663170370575163, 97.9487393159996 2.257702141735379 C108.97097854106791 4.249087246413242, 119.98475756519666 8.144439707573511, 129.35217593695256 14.556388740854004 C138.71959430870845 20.968337774134497, 148.60603554374904 30.70951054331671, 154.153249546535 40.72939634141833 C159.70046354932094 50.74928213951995, 161.7638204818771 62.84454174729725, 162.63545995366832 74.67570352946373 C163.50709942545953 86.50686531163022, 163.14642715718233 100.64553716909577, 159.3830863772822 111.71636703441723 C155.6197455973821 122.78719689973869, 148.5979461793501 133.37839339018103, 140.05541527426766 141.10068272139247 C131.51288436918523 148.82297205260392, 119.03146769951783 154.54808152996122, 108.12790094678758 158.05010302168594 C97.22433419405732 161.55212451341066, 85.81619730279533 163.3482914839086, 74.63401475788613 162.11281167174076 C63.45183221297694 160.8773318595729, 51.238352292548576 156.28204885145485, 41.034805677332415 150.63722414867874 C30.831259062116253 144.99239944590263, 20.215340577974032 137.80527416406753, 13.412735066589164 128.24386345508412 C6.610129555204296 118.68245274610072, 1.9888089750431537 104.93436412671716, 0.2191726090232038 93.2687598947783 C-1.550463756996746 81.60315566283944, -0.4739052648994453 68.8589904702499, 2.7949168704694642 58.25023806345096 C6.063739005838373 47.64148565665201, 12.32068626024396 38.19373292808472, 19.832105421236662 29.616245453984604 C27.343524582229364 21.038757979884487, 40.60913161033797 11.171471709999008, 47.86343183642568 6.7853132188502485 C55.1177320625134 2.3991547277014904, 60.89831639194034 3.840369881202122, 63.35790677776296 3.299294507092057 C65.81749716358559 2.758219132981992, 62.40271435489033 2.491579271092398, 62.6209741513614 3.538860974189859" stroke="#000000" stroke-width="1" fill="none"></path></g><g transform="translate(396 212) rotate(0 95.5 78.5)"><path d="M63.11063849931973 3.7397762667620498 C74.33351562244334 -0.4881165112480028, 90.80609554241597 -0.08432600558014514, 104.01011906650439 1.0517454067512517 C117.2141425905928 2.1878168190826486, 131.12117887896278 5.554019460175788, 142.33477964385017 10.556204740750431 C153.54838040873756 15.558390021325074, 163.47899373082547 22.68869870850596, 171.29172365582866 31.064857090199105 C179.10445358083186 39.44101547189225, 186.1349221399386 50.43434318836365, 189.21115919386938 60.813155030909286 C192.28739624780016 71.19196687345493, 192.50399106146565 82.70559273920766, 189.7491459794134 93.33772814547294 C186.99430089736117 103.96986355173821, 180.4397418707308 115.9558402505766, 172.68208870155587 124.60596746850098 C164.92443553238093 133.25609468642534, 154.36383227014454 140.06465673220876, 143.20322696436378 145.2384914530192 C132.04262165858302 150.41232617382965, 118.54793302001536 154.19867772793035, 105.7184568668713 155.6489757933637 C92.88898071372725 157.09927385879703, 78.60609568800022 157.14203943126518, 66.22637004549941 153.9402798456193 C53.8466444029986 150.73852025997343, 41.002208236036566 143.62692228285673, 31.44010301186644 136.4384182794885 C21.877997787696316 129.24991427612028, 14.099472839577135 120.58636365519811, 8.853738700478644 110.80925582541002 C3.6080045613801515 101.03214799562193, -0.03269669369314462 88.65671648916558, -0.03430182272451532 77.77577130075994 C-0.03590695175588602 66.89482611235431, 3.4785030235635306 55.33005426748585, 8.84410792629042 45.52358469497619 C14.20971282901731 35.71711512246654, 22.21962008987309 25.956938667642493, 32.15932759363682 18.93695386570201 C42.099035097400545 11.916969063761524, 61.50340244244077 5.997333615006722, 68.4823529488728 3.4036758833332925 C75.46130345530483 0.8100181516598632, 73.46902721111321 2.0616081434937783, 74.03303063222899 3.375007475661434 M131.43075216136168 4.4612783038816985 C143.7052938357429 6.917030742262506, 155.63904209115893 14.693250888364435, 164.4474315642263 22.615863761253998 C173.25582103729366 30.53847663414356, 179.7688050089477 41.76341284335926, 184.28108899976584 51.99695554121908 C188.79337299058398 62.2304982390789, 192.2302525324144 73.13660737169138, 191.52113550913504 84.01711994841288 C190.81201848585567 94.89763252513438, 186.5438240232168 108.033364074483, 180.02638686008964 117.28003100154812 C173.50894969696247 126.52669792861325, 162.66185763454368 133.0651006814631, 152.41651253037193 139.49712151080362 C142.17116742620018 145.92914234014415, 131.1105141432477 153.1574461637852, 118.55431623505913 155.87215597759135 C105.99811832687057 158.58686579139749, 90.14977343137913 157.82341446067886, 77.07932508124054 155.7853803936405 C64.00887673110195 153.74734632660216, 50.568337822391086 149.63756403205537, 40.13162613422756 143.64395157536114 C29.694914446064033 137.65033911866692, 20.794119534882118 129.31456641838145, 14.459054952259393 119.82370565347526 C8.123990369636669 110.33284488856906, 4.033237927745709 97.36478314008536, 2.1212386384912207 86.69878698592396 C0.20923934923673215 76.03279083176255, -0.8545332356606488 65.87341791588365, 2.9870592167324617 55.82772872850679 C6.828651669125572 45.78203954112993, 16.422724214094153 34.51563575843605, 25.170793352849884 26.424651861662788 C33.918862491605616 18.333667964889525, 43.866719088372136 11.46621141327844, 55.47547404926685 7.281825347867212 C67.08422901016156 3.0974392824559835, 82.0023106016333 1.5648633967640369, 94.82332311821817 1.3183354691954179 C107.64433563480304 1.071807541626799, 126.31062770361356 4.673057126232611, 132.40154914877604 5.802657782455498 C138.49247059393852 6.932258438678384, 132.3320074270908 7.0587979887723575, 131.36885178919303 8.095939406532736" stroke="#000000" stroke-width="1" fill="none"></path></g><g transform="translate(234 415) rotate(0 88 89.5)"><path d="M130.22847248386134 11.351145705872824 C140.9381243089474 15.660368491997087, 150.31800113368084 24.684672494330698, 157.559343256705 34.07929147187606 C164.80068537972917 43.473910449421425, 170.68350912725597 55.73811009450415, 173.67652522200632 67.718859571145 C176.66954131675666 79.69960904778586, 177.63291647942899 93.8873874853478, 175.51743982520713 105.96378833172118 C173.40196317098528 118.04018917809455, 167.6935948434552 130.3858509238655, 160.98366529667516 140.17726464938528 C154.2737357498951 149.96867837490507, 145.47551040700444 158.54982144234407, 135.25786254452692 164.71227068483995 C125.0402146820494 170.87471992733583, 111.68117520481164 175.38836022068895, 99.67777812181 177.1519601043606 C87.67438103880835 178.91555998803224, 74.70874336048185 178.36151274925743, 63.23748004651701 175.29386998686977 C51.76621673255217 172.2262272244821, 39.96507669322548 166.4500045541654, 30.85019823802095 158.74610353003467 C21.735319782816426 151.04220250590396, 13.722233893828264 140.11388691383632, 8.548209315289853 129.07046384208545 C3.374184736751441 118.02704077033455, 0.03873502710790433 104.460850851795, -0.19394923320952273 92.48556509952932 C-0.4266334935269498 80.51027934726365, 2.5891277121776 68.35698738729906, 7.1521037533852905 57.21874932849141 C11.715079794592981 46.08051126968376, 18.87042193140823 34.280109500855616, 27.18390701403662 25.656136746683416 C35.49739209666501 17.032163992511215, 45.85570454503221 9.7600997428558, 57.03301424915564 5.474912803458224 C68.21032395327907 1.189725864060648, 82.4215430071355 -0.7355329579203485, 94.24776523877722 -0.05498488970204107 C106.07398747041894 0.6255631785162663, 119.94719574984023 6.52906437344379, 127.99034763900596 9.558201212768068 C136.0334995281717 12.587338052092347, 138.63284335005903 14.835013684690658, 142.50667657377156 18.119836146243628 C146.38050979748408 21.4046586077966, 152.3113724986066 27.850798529773087, 151.23334698128107 29.26713598208589 M91.47103222467425 0.16687586919100283 C102.67288428084377 -0.736613234195462, 116.77692285513551 4.902664920407427, 127.3658561490202 10.400518664836682 C137.95478944290488 15.898372409265935, 147.20853392094978 24.20737880517099, 155.00463198798238 33.15399833576653 C162.80073005501498 42.10061786636207, 170.71593369613507 52.33310206522036, 174.14244455121576 64.08023584840994 C177.56895540629645 75.82736963159952, 177.43493292718787 91.65295095763994, 175.56369711846656 103.63680103490401 C173.69246130974525 115.62065111216808, 169.40809472176147 126.00556979137255, 162.91502969888785 135.9833363119943 C156.42196467601423 145.96110283261604, 146.63109588732377 156.70708277954026, 136.60530698122474 163.50340015863443 C126.5795180751257 170.2997175377286, 114.64511934777683 174.55927088941428, 102.76029626229365 176.76124058655944 C90.87547317681047 178.9632102837046, 76.7158869035833 179.6668382518381, 65.29636846832567 176.71521834150536 C53.87685003306803 173.76359843117262, 43.21115039107366 166.4095205204129, 34.243185650747854 159.05152112456304 C25.27522091042205 151.69352172871316, 17.340405373663337 142.97424738202386, 11.48858002637084 132.5672219664062 C5.636754679078343 122.16019655078854, -0.05567380381407361 108.92836017013549, -0.8677664330071337 96.60936863085703 C-1.6798590622001939 84.29037709157858, 2.512855815866974 70.39394721707787, 6.61602425121248 58.653272730735445 C10.719192686557985 46.912598244393024, 15.571493840075636 34.952074374496036, 23.7512441790659 26.165321712802523 C31.930994518056163 17.378569051109015, 44.51189729974364 10.45221864755198, 55.69452628515406 5.932756760574392 C66.87715527056449 1.4132948735968043, 85.10837400945296 -0.1259208965418921, 90.84701809152844 -0.9514496090630047 C96.58566217360392 -1.7769783215841173, 90.07363380640635 0.43071145582130776, 90.12639077760697 0.9795844854477167 C90.1791477488076 1.5284575150741255, 91.04871053215975 0.8048886399106248, 91.1635599187322 2.341788568695449" stroke="#000000" stroke-width="1" fill="none"></path></g><g transform="translate(154 289) rotate(0 18 12.5)"><text x="0" y="18" font-family="Virgil, Segoe UI Emoji" font-size="20px" fill="#000000" text-anchor="start" style="white-space: pre;" direction="ltr">Fire</text></g><g transform="translate(460.5 285) rotate(0 28 12.5)"><text x="28" y="18" font-family="Virgil, Segoe UI Emoji" font-size="20px" fill="#000000" text-anchor="middle" style="white-space: pre;" direction="ltr">Water</text></g><g transform="translate(291.5 492) rotate(0 30.5 12.5)"><text x="30.5" y="18" font-family="Virgil, Segoe UI Emoji" font-size="20px" fill="#000000" text-anchor="middle" style="white-space: pre;" direction="ltr">Grass</text></g><g><g transform="translate(286.60072424389887 286.84612754212446) rotate(0 48.670429069230465 -0.33688745216076654)"><path d="M1.0039513964205982 0.9378566186875104 C17.100007177631102 0.9456564232719945, 81.08195794691665 0.08798057437589182, 97.26897098825899 -0.10631579718708495 M0.07188715020194647 0.38462739815935487 C15.9560395244348 0.10306898443157547, 80.06480998359021 -1.2113571554544031, 96.36126687366169 -1.6116315230090867" stroke="#000000" stroke-width="1" fill="none"></path></g><g transform="translate(286.60072424389887 286.84612754212446) rotate(0 48.670429069230465 -0.33688745216076654)"><path d="M69.96820069656525 9.40005181700785 C80.37901492329172 6.701310752100685, 90.17680769888945 -0.5823455465856471, 97.4378531667183 -1.7146793875206958 M68.6647659120411 9.299568052113543 C78.8382367999212 5.040093962077495, 90.68412712186968 1.2274757719679474, 97.06810609891664 -1.7753892411772858" stroke="#000000" stroke-width="1" fill="none"></path></g><g transform="translate(286.60072424389887 286.84612754212446) rotate(0 48.670429069230465 -0.33688745216076654)"><path d="M69.51284657034634 -11.116104133987818 C80.06037223875244 -6.479621827974174, 90.02105415201814 -6.42424514398234, 97.4378531667183 -1.7146793875206958 M68.2094117858222 -11.216587898882125 C78.45570425315596 -7.498580552954266, 90.47864837544363 -3.3339714153178805, 97.06810609891664 -1.7753892411772858" stroke="#000000" stroke-width="1" fill="none"></path></g></g><g><g transform="translate(443 370) rotate(0 -29.68656389049255 29.456065807845448)"><path d="M0.6733416337519884 -0.325997157767415 C-9.05735837034881 9.454104892536998, -49.114872835204004 49.173371867463, -59.40880259089172 59.2901350658387 M-0.4322927378676833 -1.5427496109344065 C-10.179631532933564 8.326273763980717, -50.32379994263872 50.49296888610348, -60.046469414737075 60.4548812266253" stroke="#000000" stroke-width="1" fill="none"></path></g><g transform="translate(443 370) rotate(0 -29.68656389049255 29.456065807845448)"><path d="M-48.43332595308626 34.01357743526586 C-51.54277485019426 37.16560572120894, -52.344342150863866 44.617690817525606, -60.90346405668184 60.46651991082356 M-47.993788035822455 32.94838167643883 C-52.00077916090054 43.66209533395008, -56.786805931205045 54.590026316203954, -59.64495495254174 59.95948585772887" stroke="#000000" stroke-width="1" fill="none"></path></g><g transform="translate(443 370) rotate(0 -29.68656389049255 29.456065807845448)"><path d="M-33.64790039964161 48.24422020322913 C-40.00282738825436 48.42508210542949, -43.977590274482054 52.823037129687805, -60.90346405668184 60.46651991082356 M-33.2083624823778 47.1790244444021 C-42.929799473081786 52.31115898923673, -53.49021869931145 57.68136585017517, -59.64495495254174 59.95948585772887" stroke="#000000" stroke-width="1" fill="none"></path></g></g><g><g transform="translate(279 421) rotate(0 -16.746182474559134 -22.932017328217654)"><path d="M1.1428718704730272 1.168059603497386 C-4.462896671021978 -6.485206901902953, -27.76739739788075 -39.239793101822336, -33.79487957768142 -47.032094259932634 M0.2837408731319009 0.735686949994415 C-5.448077441460142 -6.706176722540211, -29.14389990072076 -37.96210769205665, -34.63523681959137 -46.03651849517599" stroke="#000000" stroke-width="1" fill="none"></path></g><g transform="translate(279 421) rotate(0 -16.746182474559134 -22.932017328217654)"><path d="M-8.998327649985157 -29.670384624123436 C-19.307337733798114 -36.08326210587915, -23.68740418733491 -39.656655560631805, -35.73755899382755 -44.230191049743446 M-10.706427725818656 -29.3691451829745 C-20.06990342720649 -36.58600668708792, -29.009380332159203 -42.53683011876427, -34.95078551614657 -45.88764991110191" stroke="#000000" stroke-width="1" fill="none"></path></g><g transform="translate(279 421) rotate(0 -16.746182474559134 -22.932017328217654)"><path d="M-24.840968247308155 -18.19162031948659 C-30.50235835860942 -28.045704464174467, -30.341222093858327 -34.90942034608683, -35.73755899382755 -44.230191049743446 M-26.549068323141654 -17.890380878337652 C-30.16027002574038 -29.184606975214926, -33.37095424339785 -39.286219576387495, -34.95078551614657 -45.88764991110191" stroke="#000000" stroke-width="1" fill="none"></path></g></g><g transform="translate(479 507) rotate(0 109 62.5)"><text x="0" y="18" font-family="Virgil, Segoe UI Emoji" font-size="20px" fill="#000000" text-anchor="start" style="white-space: pre;" direction="ltr">have fun figuring out </text><text x="0" y="43" font-family="Virgil, Segoe UI Emoji" font-size="20px" fill="#000000" text-anchor="start" style="white-space: pre;" direction="ltr">which pokemon is which</text><text x="0" y="68" font-family="Virgil, Segoe UI Emoji" font-size="20px" fill="#000000" text-anchor="start" style="white-space: pre;" direction="ltr">element... you </text><text x="0" y="93" font-family="Virgil, Segoe UI Emoji" font-size="20px" fill="#000000" text-anchor="start" style="white-space: pre;" direction="ltr">childhood-less</text><text x="0" y="118" font-family="Virgil, Segoe UI Emoji" font-size="20px" fill="#000000" text-anchor="start" style="white-space: pre;" direction="ltr">individual</text></g><g><g transform="translate(609 573) rotate(0 -1.5259460706264463 1.2906784639507691)"><path d="M0.8653322618454695 0.8536115426570177 C0.1142571728676558 0.9746581612775723, -3.291885169222951 0.9443297722687324, -3.9172244030982255 0.860838045552373 M-0.13950703002512466 0.2561536572128533 C-0.570417829528451 0.5576174988100926, -1.111243752017617 2.146179690932234, -1.6868126783519983 2.325203270688653" stroke="#000000" stroke-width="1" fill="none"></path></g><g transform="translate(609 573) rotate(0 -1.5259460706264463 1.2906784639507691)"><path d="M-0.8512590180255283 0.7982350333335192 C-1.232920674172722 1.4301095576262968, -1.5523078196217095 1.9466324246401125, -1.5464922178636755 2.451631187871592 M-0.9447014791703751 0.9100475746114689 C-1.0898166005945173 1.2982405276245867, -1.2823455259102146 1.7009874545500678, -1.6260908803572174 2.3119510666850642" stroke="#000000" stroke-width="1" fill="none"></path></g><g transform="translate(609 573) rotate(0 -1.5259460706264463 1.2906784639507691)"><path d="M-0.11659549670553812 1.591990219046861 C-0.7556198410495646 1.9520608132760104, -1.3314796215682372 2.191482016504538, -1.5464922178636755 2.451631187871592 M-0.2100379578503849 1.703802760324811 C-0.5326203483027099 1.8917367047628497, -0.9094614339021484 2.0953465726542992, -1.6260908803572174 2.3119510666850642" stroke="#000000" stroke-width="1" fill="none"></path></g></g><g><g transform="translate(449 409) rotate(0 29.78427648358047 -0.9169001759034359)"><path d="M-0.974647744372487 -0.021268604323267937 C9.237119726464153 0.039649484430750205, 50.39947179965675 0.06990789758662377, 60.54320071153343 -0.15845356993377213 M0.7145234604924919 -1.0780385669320822 C10.879447564706206 -1.3032707333813112, 50.15557562552392 -1.9723136679579816, 59.88033562146127 -1.8392164429277182" stroke="#000000" stroke-width="1" fill="none"></path></g><g transform="translate(449 409) rotate(0 29.78427648358047 -0.9169001759034359)"><path d="M31.69713088898275 9.444160886462345 C39.91856438414507 6.0959935542261, 44.60168558005334 4.0068048344447105, 60.94418994143605 -0.5273369403183461 M32.58855478028122 9.3668177550468 C42.54525438183941 4.629166295420704, 53.27663095458017 -0.1745614627250447, 60.440155581496654 -2.7699255749210714" stroke="#000000" stroke-width="1" fill="none"></path></g><g transform="translate(449 409) rotate(0 29.78427648358047 -0.9169001759034359)"><path d="M31.611577735408467 -11.076869376264547 C39.76388918231494 -9.51195624695532, 44.46749034797619 -6.688759373425859, 60.94418994143605 -0.5273369403183461 M32.50300162670694 -11.154212507680093 C42.58456404513883 -7.954457447075312, 53.34903031247845 -4.821194037992132, 60.440155581496654 -2.7699255749210714" stroke="#000000" stroke-width="1" fill="none"></path></g></g><g transform="translate(525 399) rotate(0 98.5 37.5)"><text x="0" y="18" font-family="Virgil, Segoe UI Emoji" font-size="20px" fill="#000000" text-anchor="start" style="white-space: pre;" direction="ltr">means figure it out</text><text x="0" y="43" font-family="Virgil, Segoe UI Emoji" font-size="20px" fill="#000000" text-anchor="start" style="white-space: pre;" direction="ltr">you're here to train</text><text x="0" y="68" font-family="Virgil, Segoe UI Emoji" font-size="20px" fill="#000000" text-anchor="start" style="white-space: pre;" direction="ltr">for crying out loud</text></g><g><g transform="translate(174 342) rotate(0 -2.5257540118187762 6.57570206436813)"><path d="M-1.1422567684203386 -0.2764684181660414 C-2.5090008535732826 -0.2468695025891066, -5.209600440536936 -1.1895318251103162, -7.007013292983174 -0.33866559080779546 C-8.804426145429412 0.5122006434947254, -10.890729900076986 2.9436600505063932, -11.926733883097768 4.828728987649083 C-12.96273786611855 6.713797924791773, -13.619035339231292 9.47847329961757, -13.223037191107869 10.971748032048344 C-12.827039042984445 12.46502276447912, -12.782020827010273 13.272659387066959, -9.550744994357228 13.788377382233739 C-6.319469161704182 14.304095377400518, 3.407939775908987 15.227589569364985, 6.164617804810405 14.066056003049017 C8.921295833711822 12.904522436733048, 7.009436150516073 8.759088228022058, 6.98932317905128 6.819175984337926 C6.969210207586487 4.879263740653793, 6.414521519467234 2.9682662028819324, 6.0439399760216475 2.4265825409442185 C5.673358432576061 1.8848988790065049, 5.044545980418722 3.6456874587883554, 4.765833918377757 3.5690740127116443 C4.487121856336792 3.492460566634933, 5.079323172693451 2.6755357522517444, 4.371667603775859 1.9669018644839527 C3.6640120348582665 1.2582679767161609, 1.1196302772810065 -0.3935520352174838, 0.519900504872203 -0.6827293138951063 M0.4589196988195181 -1.4672182830423117 C-1.083386319850882 -1.2177121885865927, -5.335759540771445 -0.1454592450708152, -7.433740735426545 1.0209602252393961 C-9.531721930081645 2.187379695549607, -11.273218813315035 3.6913291366646686, -12.128967469111085 5.531298538818955 C-12.984716124907136 7.371267940973242, -13.3145773931096 10.637990539843837, -12.568232670202852 12.060776638165116 C-11.821887947296103 13.483562736486395, -10.935317864790559 13.901348694935441, -7.650899131670594 14.068015128746628 C-4.36648039855063 14.234681562557816, 4.679519895340006 14.421534624074896, 7.138279728516936 13.060775241032243 C9.597039561693867 11.70001585798959, 7.451172052646676 7.782819974397619, 7.10165986739099 5.903458830490708 C6.752147682135304 4.024097686583796, 5.119650814160704 2.3544503513723614, 5.041206616982818 1.7846083775907755 C4.962762419804931 1.2147664038091899, 6.66957776191334 2.444811985467871, 6.630994684323669 2.484406987801194 C6.592411606733998 2.524001990134517, 5.729350519602498 2.4455983988195658, 4.809708151444793 2.0221783915907143 C3.8900657832870884 1.5987583843618631, 1.9536427525927627 0.29264373856286197, 1.1131404753774405 -0.05611305557191382" stroke="#000000" stroke-width="1" fill="none"></path></g></g><g><g transform="translate(178 341) rotate(0 18.425683020824806 -10.235754491327384)"><path d="M0.08981815986335273 -1.1876052360981701 C1.3004402042677004 -2.4842331271618603, 3.665911173944672 -4.801722516740362, 7.507648305222392 -8.1086586099118 C11.349385436500112 -11.415594703083237, 18.752394425993163 -18.801996217295525, 23.140240947529673 -21.029221795126794 C27.528087469066183 -23.256447372958064, 31.507261594260733 -21.842250106856227, 33.83472743444145 -21.47201207689941 C36.16219327462216 -21.101774046942595, 36.845091943070294 -20.066816053912042, 37.10503598861396 -18.80779361538589 C37.36498003415763 -17.548771176859738, 39.38892827841143 -17.209739468619226, 35.39439170770347 -13.917877445742487 C31.399855136995512 -10.626015422865748, 18.966110281273725 -1.1906126361340286, 13.137816564366222 0.943378521874547 C7.30952284745872 3.0773696798831223, 2.7707745076467596 -0.9104080499460299, 0.4246294062584639 -1.1139304976910351 M-1.3221660355478526 0.8032980696111918 C-0.33398870664338287 -0.7921917160600425, 2.251895671313008 -6.254050049806635, 6.301118201836943 -9.76327912889421 C10.350340732360879 -13.272508207981785, 18.270045783941942 -18.44329667173326, 22.973169147595762 -20.25207640491426 C27.67629251124958 -22.060856138095257, 32.313025430465736 -20.416112655028698, 34.51985838375985 -20.615957527980207 C36.72669133705397 -20.815802400931716, 35.88602910958231 -22.48885135255754, 36.214166867360476 -21.451145642623306 C36.54230462513864 -20.413439932689073, 40.30302736165623 -17.89289215885103, 36.48868493042886 -14.389723268374802 C32.674342499201494 -10.886554377898575, 19.47260010205209 -3.1004738434404135, 13.328112279996276 -0.43213229976594447 C7.18362445794046 2.236209243908524, 1.75043662113448 1.849472115809719, -0.3782420019060373 1.6203259936720134" stroke="#000000" stroke-width="1" fill="none"></path></g></g><g><g transform="translate(213 322) rotate(0 6.08763491519727 -9.552933557704108)"><path d="M-0.2003513317555189 0.8408648293465377 C1.8134338834633428 -0.5330113409707942, 9.229461441313227 -4.166766369218628, 11.586177386716008 -7.6313658315688375 C13.94289333211879 -11.095965293919047, 13.553924780959884 -17.796898285423715, 13.939944340661167 -19.94673194475472 M-1.764674510266632 0.2367149194143714 C0.185826654129972 -1.0415784921186664, 8.373809829050053 -3.28574192483599, 10.945875051114708 -6.4254076419211925 C13.517940273179363 -9.565073359006394, 13.054879575266192 -16.388022325628747, 13.667716822121292 -18.601279383096845" stroke="#000000" stroke-width="1" fill="none"></path></g></g><g><g transform="translate(189 336) rotate(0 2.0729551150743077 5.120925633516151)"><path d="M-0.0797054629772902 -0.26240337677299974 C0.8732952216019233 1.466975279773275, 4.922802978629867 8.189248108988007, 5.726599790528416 10.09848859719932 M-1.580689560379833 -1.4457690949179232 C-0.722884805208693 0.5209011045160392, 4.25615567345793 9.867180154429128, 5.160019216928631 11.687620361950248" stroke="#000000" stroke-width="1" fill="none"></path></g></g><g><g transform="translate(187 332) rotate(0 -11.736007037376964 1.6258865675982008)"><path d="M-1.1877615194767712 -0.8363066632300615 C-2.6380975505957998 -0.6401981431990862, -5.179977860177557 1.7553780358284712, -8.958940778300166 2.3696906726807354 C-12.737903696422775 2.9840033095329996, -21.68016585720082 2.7472403924912214, -23.861539028212427 2.8495691578835247 M0.38952495345845817 1.3390283932350577 C-1.105258782810221 2.1899616344831885, -5.7255851057233915 3.118028292860836, -9.360430150534958 3.576203527059406 C-12.995275195346524 4.034378761257976, -19.429608647928884 4.004289158191532, -21.419545315410943 4.088079798426479" stroke="#000000" stroke-width="1" fill="none"></path></g></g><g><g transform="translate(206 332) rotate(0 3.6179999697953917 5.796404081127065)"><path d="M-0.980179389193654 -0.6392957668751478 C-0.9806072512020667 -0.4592894416302442, -0.36462206033368916 -1.7381410341709849, 0.754037169739604 -0.07177949957549568 C1.8726963998128972 1.5945820350199935, 4.527472865705689 7.409367145970463, 5.731775991246105 9.358873440697788 C6.93607911678652 11.308379735425113, 7.6615031402558085 11.018083288148045, 7.979855922982097 11.625258268788457 M0.7060877021402119 1.639470010176301 C0.459913923765222 2.118347404375672, -1.097167510961493 0.5004117111116647, -0.3231387797743084 1.4279615143686533 C0.45088995141287624 2.3555113176256417, 3.9270404045035443 5.354032457247377, 5.35026008926332 7.204768829718232 C6.773479774023095 9.055505202189089, 7.500743788108229 12.023395772352814, 8.216179328784346 12.532379749193787" stroke="#000000" stroke-width="1" fill="none"></path></g></g><g><g transform="translate(201 323) rotate(0 -11.8976033013314 -0.7677511633373797)"><path d="M1.0019233245402572 -0.9592011172324418 C-3.0684747081249952 -1.0759692349781593, -20.61665155701339 -0.8539752601335446, -24.79712992720306 -1.058716018870473 M0.06879434058442713 1.1516143508814274 C-3.586583948042244 0.7429107195201019, -18.34401249339804 -2.333735483481238, -22.50366860261187 -2.6871166775561868" stroke="#000000" stroke-width="1" fill="none"></path></g></g><g><g transform="translate(167 349) rotate(0 2.0726791545916967 1.890297521855672)"><path d="M1.0103626627475022 0.8160934846848249 C0.8566772002726792 1.3984676958372195, -0.47028064938882974 2.8494400184601543, 0.04859922118484983 3.1330058138817547 C0.5674790917585294 3.416571609303355, 3.352464423452814 2.8768511574715374, 4.12364188618958 2.517488257214427 C4.894819348926345 2.158125356957316, 5.348888975257674 1.2530579965561628, 4.675663997605443 0.9768284123390913 C4.002439019953211 0.7005988281220199, 0.7292184292028346 0.9694627167036137, 0.08429202027618876 0.8601107519119979 M0.08166433135047546 0.19893861880525954 C-0.3107272877357901 0.5064270390135548, -1.4307968592705826 1.041472816374153, -0.8739316513203085 1.6052591173909605 C-0.3170664433700343 2.169045418407768, 2.3976525300679103 3.591945574786514, 3.4228555790521202 3.5816564249061047 C4.44805862803633 3.5713672750256955, 6.071507186486075 1.8567322026751933, 5.27728664258495 1.543524218108505 C4.483066098683825 1.2303162335418165, -0.29317799906556785 2.0514737726313372, -1.342467684354633 1.7024085175059738" stroke="#000000" stroke-width="1" fill="none"></path></g></g><g><g transform="translate(175 349) rotate(0 -0.9791505808382794 0.01327781446278209)"><path d="M0.32071662358939657 -1.087862716242671 C0.14050220660865312 -1.2513181270410618, 0.06829223247865834 -0.5989793560157217, -0.2211757499724627 -0.1746269207447766 C-0.5106437324235837 0.2497255145261686, -1.1991609015812479 1.5041197715948025, -1.4160912711173297 1.4582518953830004 C-1.6330216406534115 1.4123840191711983, -1.5678386806199947 -0.007618874435623424, -1.5227579671889542 -0.44983417801558967 C-1.4776772537579137 -0.892049481595556, -1.5040212153146664 -1.4414177875965835, -1.1456069905310868 -1.195039926096797 M-0.9700458783656359 0.955405412390828 C-1.4028941530734302 0.8230036591241755, -1.0469732144226631 1.012633270298441, -1.2853384823352099 0.7461191970854997 C-1.5237037502477566 0.4796051238725582, -2.356076090609034 -0.5889697886755071, -2.4002374858409166 -0.6436790268868209 C-2.4443988810727992 -0.6983882650981347, -2.024002488727371 0.5491999744127196, -1.5503068537265063 0.4178637678176167 C-1.0766112187256416 0.28652756122251377, 0.3986315430452428 -1.4501189964264631, 0.44193632416427153 -1.4316962664574384" stroke="#000000" stroke-width="1" fill="none"></path></g></g><g><g transform="translate(228 304) rotate(0 4.269658326336753 0.6016909371930126)"><path d="M-1.1456069905310868 -1.195039926096797 C-1.9538594324141738 -1.281995397930344, -4.478025074675679 -0.5150463363776603, -5.372272618487477 -0.9715670090168713 C-6.266520162299275 -1.4280876816560824, -7.101703286046782 -2.5193207642684374, -6.511092253401875 -3.9341639619320627 C-5.920481220756968 -5.349007159595688, -3.8992786684383947 -8.247270856425166, -1.8286064226180314 -9.460626194998621 C0.24206582320233183 -10.673981533572077, 4.655156167472402 -12.556639939670761, 5.912941221520304 -11.214295993372797 C7.170726275568207 -9.871952047074833, 6.300138819341858 -3.3657182158281405, 5.718103901669383 -1.4065625172108411 C5.136068983996908 0.5525931814064582, 2.7826704264928894 1.0508239049464465, 2.4207317154854535 0.5406381983309985 C2.0587930044780176 0.030452491715550534, 2.62071566991508 -2.9005641958365835, 3.5464716356247665 -4.467676756903529 C4.472227601334453 -6.034789317970475, 6.76570277226468 -9.128146678333481, 7.9752675097435715 -8.862037168070675 C9.184832247222463 -8.595927657807868, 10.23169016453127 -4.617401244367162, 10.803860060498119 -2.871019695326686 C11.376029956464967 -1.1246381462862094, 11.824533152704438 0.17314752923945598, 11.408286885544658 1.616252126172185 C10.992040618384879 3.059356723104914, 8.67105058444043 5.382761523996789, 8.306382457539438 5.787607886269688 C7.9417143306384474 6.192454248542587, 8.581524849062165 5.2526557464152575, 9.220278124138712 4.045330299809575 C9.85903139921526 2.838004853203893, 11.012201877559225 -0.6365016719947258, 12.138902107998728 -1.4563447933644056 C13.265602338438232 -2.276187914734085, 15.494457809254527 -2.260422808056076, 15.980479506775737 -0.8737284284085034 C16.466501204296947 0.5129659512390692, 16.36396565847099 4.586300053074956, 15.055032293125986 6.863821484521031 C13.746098927780984 9.141342915967106, 9.956528647864857 12.294361084575455, 8.126879314705729 12.79140016026795 C6.2972299815466 13.288439235960444, 5.07058020842572 11.077240917955836, 4.077136294171214 9.846055938675999 C3.0836923799167075 8.614870959396162, 2.1630173128098247 5.90870664305985, 2.166215829178691 5.404290284588933 C2.169414345547557 4.899873926118016, 4.578367142006755 6.726978474731247, 4.09632739238441 6.819557787850499 C3.614287642762065 6.912137100969751, 0.17795375200609365 6.272229752813777, -0.7260226685553789 5.959766163304448 C-1.6299990891168514 5.64730257379512, -1.0309352595359087 5.324086942151189, -1.3275311309844255 4.94477625079453 C-1.6241270024329424 4.565465559437871, -2.865882086629669 4.639129632587234, -2.50559789724648 3.6839020151644943 C-2.1453137078632913 2.7286743977417545, 0.2598279517143963 -0.07827612770100434, 0.8341740053147075 -0.786589453741908 M0.4538106101006272 0.7919601673632859 C-0.41179565258324125 0.42872082101802017, -4.6576071078330274 -1.469368874753515, -5.990761206820607 -2.5542144375294447 C-7.323915305808186 -3.639060000305374, -8.294953226918976 -4.18721660586695, -7.54511398382485 -5.717113209292293 C-6.795274740730724 -7.247009812717637, -3.5694484701504314 -10.863769298121333, -1.491725748255849 -11.733594058081508 C0.5859969736387334 -12.603418818041682, 3.5088770517955226 -12.535832778339586, 4.921222347542644 -10.93606176905334 C6.333567643289765 -9.336290759767095, 7.342623436575135 -3.8707597483446206, 6.982346026226878 -2.1349680023640394 C6.6220686158786215 -0.39917625638345844, 3.542854323511322 -0.12228311829268929, 2.7595578854531047 -0.521311293169856 C1.9762614473948874 -0.9203394680470227, 1.1715968935936687 -3.4430160066733757, 2.282567397877574 -4.52913705162704 C3.393537902161479 -5.615258096580704, 7.894341869478425 -7.250285073642929, 9.425380911156536 -7.038037562891841 C10.956419952834647 -6.825790052140753, 11.049210182155171 -4.828630521024267, 11.468801647946238 -3.255651987120509 C11.888393113737305 -1.6826734532167515, 12.156119637613495 0.8943605743596952, 11.942929705902934 2.3998336405307055 C11.729739774192373 3.9053067067017158, 10.585951583509644 5.548887594019374, 10.189662057682872 5.777186409905553 C9.7933725318561 6.005485225791733, 8.823050909166534 5.047103044465184, 9.565192550942301 3.769626535847783 C10.307334192718068 2.492150027230382, 13.60772604557375 -1.1193874427924553, 14.642511908337474 -1.8876726417988539 C15.677297771101196 -2.6559578408052524, 15.615415632054209 -2.4953584445764623, 15.773907727524637 -0.8400846581906078 C15.932399822995066 0.8151891281952464, 17.065855182930825 5.665535253956914, 15.593464481160044 8.04397007651627 C14.121073779389262 10.422404899075627, 8.978910420859853 12.994925325984756, 6.939563516899943 13.430524277165532 C4.900216612940033 13.866123228346307, 3.847077276830872 11.91722990301748, 3.3573830574005843 10.657563783600926 C2.8676888379702965 9.397897664184372, 4.311315223500133 6.737153574898839, 4.001398200318217 5.872527560666203 C3.6914811771363016 5.007901546433567, 1.9202139418572186 5.13385405647258, 1.4978809183090924 5.469807698205114 C1.0755478947609662 5.805761339937647, 1.9191599878917138 8.118442187582453, 1.46740005902946 7.888249411061406 C1.0156401301672062 7.658056634540359, -0.5904965407401322 4.961481933072209, -1.2126786548644304 4.088651039078831 C-1.8348607689887286 3.2158201450854538, -2.342275338048736 3.0704903827855983, -2.2656926257163286 2.65126404710114 C-2.189109913383921 2.232037711416682, -1.0353992230445148 2.110771084899704, -0.7531823808699847 1.5732930249720813" stroke="#000000" stroke-width="1" fill="none"></path></g></g><g><g transform="translate(456 320) rotate(0 10.224591614380472 7.342625357845407)"><path d="M0.5151467721909284 0.24984042830765252 C2.0240743280698856 -0.20810973855356374, 5.1931527297943845 -4.391246762002508, 8.047314838692547 -1.8654214721173048 C10.901476947590709 0.6604038177678979, 15.460884710277119 12.265849786872664, 17.640119425579904 15.40479216761887 C19.819354140882687 18.543734548365077, 20.4017287970831 16.91743066497147, 21.122723130509257 16.96823281235993 M-0.6735399017482997 -0.6645972921699286 C0.7695533321549493 -1.0711035484323899, 4.230939043983817 -3.628074523831407, 7.124109665378928 -0.7823424937576053 C10.017280286774039 2.0633895363161963, 14.387993467474978 13.792668484623233, 16.685483826622367 16.40979488827288 C18.982974185769756 19.02692129192253, 20.277087914769847 14.997400522008538, 20.909051820263265 14.920415928140283" stroke="#000000" stroke-width="1" fill="none"></path></g></g><g><g transform="translate(471 330) rotate(0 15.436572238069914 0.07199631385506677)"><path d="M0.5844951767474413 -0.23332322426140306 C0.7172316808253527 -0.4428682127346595, -0.33255306296050546 -0.1689021665602921, 0.4546416778117419 -1.5915703494101763 C1.2418364185839894 -3.0142385322600607, 1.7235179681330925 -7.064160247519612, 5.307663621380925 -8.769332321360707 C8.891809274628757 -10.474504395201802, 18.987358647460738 -11.610728422676523, 21.95951559729874 -11.822602792456745 C24.931672547136742 -12.034477162236968, 22.861642314866184 -11.030485761041444, 23.14060532040894 -10.040578540042043 C23.419568325951698 -9.050671319042642, 23.188495435193182 -6.536847789958119, 23.633293630555272 -5.883159466460347 C24.07809182591736 -5.229471142962574, 24.92033093161881 -8.405599828436971, 25.809394492581486 -6.11844859905541 C26.69845805354416 -3.8312973696738486, 32.324014852320154 4.820936346178254, 28.967674996331333 7.83974790982902 C25.61133514034251 10.858559473479787, 10.418366370474299 11.763069164877137, 5.671355356648564 11.994420782849193 C0.9243443428228302 12.22577240082125, 1.311657784258326 10.032903933649262, 0.48560891337692735 9.227857617661357 C-0.3404399575044712 8.422811301673452, 0.8057811835159858 7.463509500150879, 0.7150621313601733 7.164142886921764 C0.6243430792043607 6.864776273692648, 0.10041511642436193 8.738084920371572, -0.05870539955794807 7.431657938286662 C-0.21782591554025807 6.125230956201752, -0.43614207717279596 0.519126125300924, -0.23966096453368668 -0.674419005587697 M-0.5677835847996175 -1.4014218623377384 C-0.5233817048929632 -1.951610221558561, -1.0457622899673882 -2.5114990157820283, -0.2547169049642981 -3.4997195316292347 C0.5363284800387919 -4.487940047476441, 0.3510091857053341 -6.05559681782499, 4.178488725218922 -7.3307449574209755 C8.005968264732509 -8.605893097016962, 19.782673436595747 -10.760542086654652, 22.71016033211723 -11.150608369205147 C25.637647227638713 -11.54067465175564, 21.386268426571043 -10.473447655929874, 21.743410098347812 -9.671142652723939 C22.100551770124582 -8.868837649518003, 24.0848672757484 -6.781732348892838, 24.85301036277786 -6.336778349969537 C25.621153449807316 -5.891824351046235, 25.317786593828348 -9.2933293117024, 26.352268620524555 -7.001418659184128 C27.38675064722076 -4.709508006665855, 34.204128146761406 4.479772319899251, 31.059902522955092 7.414685565140099 C27.915676899148774 10.349598810380947, 12.499653856748093 10.361319087253262, 7.486914877686649 10.608060812260955 C2.4741758986252043 10.854802537268649, 2.0836608022389314 9.29058487545078, 0.9834686485864221 8.895135915186255 C-0.11672350506608686 8.499686954921732, 1.2125228846011062 8.512162579999615, 0.8857619557715952 8.235367050673812 C0.5590010269420842 7.958571521348009, -0.80676750521486 8.305755773490915, -0.9770969243906438 7.234362739231438 C-1.1474263435664276 6.162969704971959, -0.46639115334178005 2.9759703722658255, -0.13621455928310744 1.8070088451169433" stroke="#000000" stroke-width="1" fill="none"></path></g></g><g><g transform="translate(479 341) rotate(0 -0.18727332240905525 3.3793207498453626)"><path d="M1.1998695988208057 -0.29459532089531426 C1.0784023065119983 0.7244043073306479, -0.3751223664730786 5.501581311350067, -0.4107349377125501 6.8138216774910685 M0.370662408862263 -1.4948618097044528 C0.02740349927917124 -0.34901962845896684, -1.6356804778240621 7.08098828803127, -1.5744162436388434 8.253503309395164" stroke="#000000" stroke-width="1" fill="none"></path></g></g><g><g transform="translate(488 341) rotate(0 0.6908464103192387 2.8070725185424124)"><path d="M0.008549122139811516 -0.12532518915832047 C0.3833736659338076 0.8968949574977159, 2.3057615718493856 5.950168075039983, 2.827794138714671 6.850869895890355 M-1.446101318076253 -1.2367248588055373 C-1.2075151776025692 -0.6084713869541883, 1.5776675281176966 3.9325831026583913, 2.314340597912669 5.175001842454076" stroke="#000000" stroke-width="1" fill="none"></path></g></g><g><g transform="translate(497 340) rotate(0 1.3831817451957704 2.9860223445948293)"><path d="M1.1684269208461047 1.1358961623162032 C1.6958878257622323 1.9012373687078556, 2.158277433986465 4.71001596065859, 2.4436511654406785 5.285406986996532 M0.3227123249508441 0.6866377021931114 C0.7940689161357781 1.0106507901412747, 1.3527542178767422 2.478851128226767, 1.7285225636698305 3.312670906390995" stroke="#000000" stroke-width="1" fill="none"></path></g></g><g><g transform="translate(502 337) rotate(0 0.678584824878385 -0.12066787281074198)"><path d="M0.845045318081975 0.7825491350144147 C1.0031498132894436 0.677970628067851, 1.9384050983935595 -1.0474954444915054, 1.8292962808161974 -1.0392287213355302 C1.7201874632388354 -1.030961998179555, 0.5140656171987454 0.4947411339730022, 0.1903924126178027 0.8321494739502666 M-0.17044461926445376 0.1477834855578839 C-0.17485655288522453 0.19266901066526762, 1.3674489060975612 0.15614623537287117, 1.3166313646174967 -0.0473985488153994 C1.2658138231374323 -0.25094333300367, -0.2684056494695445 -0.905772211048752, -0.47534986814484004 -1.0734852195717395" stroke="#000000" stroke-width="1" fill="none"></path></g></g><g><g transform="translate(501 330) rotate(0 2.3692433508578574 -6.194545473530894)"><path d="M-0.7817333322018385 0.1503212850540876 C-0.6031510334461928 -0.23686881450315322, 0.012046573435266494 -0.7665203729023535, 0.958750845864415 -1.3379192788153886 C1.9054551182935633 -1.9093181847284237, 4.195079630489151 -1.4111566582073767, 4.898492302373052 -3.278072150424123 C5.601904974256953 -5.144987642640869, 5.223618338381251 -11.219187998647492, 5.179226877167821 -12.539412232115865 M1.008717939052731 -0.8163639856316149 C1.1230346558429303 -1.6374611392555138, -0.08524784446383538 -2.375366780453672, 0.5140495763160287 -3.1129016489721835 C1.1133469970958927 -3.850436517490695, 3.7701407207983237 -3.80726634412383, 4.604502463731915 -5.241573196742683 C5.438864206665507 -6.6758800493615365, 5.182969465249529 -10.860942940010379, 5.520220033917576 -11.718742764685302" stroke="#000000" stroke-width="1" fill="none"></path></g></g><g><g transform="translate(459 319) rotate(0 4.523681357648968 7.790705676749354)"><path d="M0.9086483638733627 -1.0348274689167738 C0.1960678936292729 -0.9400399547070265, -4.1781838336338595 -1.1785000067204239, -4.9567520815879105 -0.17973033003509054 C-5.7353203295419615 0.8190393466502427, -4.8071577349056795 3.4556450345863894, -3.7627611238509417 4.957790591195225 C-2.7183645127962035 6.459936147804061, 0.47479785295824195 7.6004934806376685, 1.3096275847405194 8.833143009617924 C2.144457316522797 10.06579253859818, -0.745862805719177 11.056505129610498, 1.246217266842723 12.353687765076756 C3.238297339404623 13.650870400543015, 10.959111428384979 15.801092904681962, 13.262108020111919 16.616238822415472 M-0.0734499744325876 1.0362841645628214 C-0.358156480366985 1.3852028719335794, -2.025349215244254 0.4813642779737709, -2.747092388048768 1.2633364979177713 C-3.4688355608532824 2.0453087178617717, -5.148271261428793 4.384606237386664, -4.403909011259675 5.728117484226823 C-3.659546761090556 7.0716287310669825, 1.0010182249794406 8.124071315899492, 1.7190811129659416 9.324403978958726 C2.4371440009524425 10.52473664201796, -2.190176882321636 11.921713452314338, -0.09553168334066875 12.93011346258223 C1.9991135156402984 13.938513472850124, 12.170056665365895 14.858627210433283, 14.286952306851745 15.374804040566087" stroke="#000000" stroke-width="1" fill="none"></path></g></g><g><g transform="translate(290.8695652173915 533.2608695652175) rotate(0 8.07072287309694 7.589687147665018)"><path d="M0.7711988490074873 0.13964044041931634 C0.7130135457962751 0.2044053638812709, -1.2172542852390014 0.40100592353737746, -1.0163005191832781 0.12285589528787577 C-0.8153467531275548 -0.15529413296162592, 0.7076597142424401 -1.3854700335936514, 1.9769214453418273 -1.529259729077694 C3.246183176441215 -1.6730494245617364, 5.604993911362828 -1.050498806258736, 6.599269867413045 -0.7398822776163798 C7.593545823463262 -0.4292657489740237, 7.09096366645958 -1.3044505328750196, 7.942577181643128 0.3344394427764428 C8.794190696826677 1.973329418427905, 10.698762374290306 7.178859222415823, 11.708950958514333 9.093457576292394 C12.71913954273836 11.008055930168965, 13.571496246641699 11.175031788587694, 14.003708686987284 11.822029566035871 C14.43592112733287 12.469027343484049, 14.04787271812658 11.840788286281864, 14.30222560058785 12.97544424098146 C14.556578483049119 14.110100195681056, 15.149338127343261 17.76596238142876, 15.529825981754902 18.629965294233443 C15.910313836166543 19.493968207038126, 16.238229890788535 18.205203183799668, 16.585152727057697 18.159461717809563 M-0.28306048460304734 -0.8326522736996412 C0.08018563918769361 -1.1014745389583898, 0.9683292156231204 -1.2378239609917363, 1.1620962446182967 -1.706958638899441 C1.3558632736134733 -2.176093316807146, 0.44030360939167096 -3.4320072850661245, 0.8795416893680112 -3.6474603411458704 C1.3187797693443515 -3.862913397225616, 2.855328083611669 -3.7196701824870684, 3.7975247244763386 -2.9996769753779153 C4.739721365341008 -2.2796837682687623, 5.019461748620529 -1.2235265416717116, 6.53272153455603 0.6724989015090479 C8.045981320491531 2.5685243446898074, 12.050741749175867 6.7352643232382725, 12.877083440089345 8.37647568370664 C13.703425131002824 10.017687044175009, 11.352118047064366 9.739959991216782, 11.490771680036906 10.519767064319257 C11.629425313009445 11.299574137421732, 13.287141826898857 11.939937832905095, 13.709005237924579 13.055318122321488 C14.130868648950301 14.170698411737881, 13.447103177277649 16.50268776423363, 14.021952146191243 17.212048800817612 C14.596801115104837 17.921409837401594, 16.449183264697535 17.00551514497368, 17.158099051406147 17.31148434182537" stroke="#000000" stroke-width="1" fill="none"></path></g></g><g><g transform="translate(303.04347826086973 546.0869565217392) rotate(0 16.99278991693427 6.695399821870694)"><path d="M-0.4625283915549516 0.4920112509280443 C-0.6810600272609387 0.25722118923304527, -1.0245630112733806 -1.1622765942274706, -0.3075151480249133 -1.8289276985533207 C0.40953271522355406 -2.4955788028791708, 2.430578019086658 -2.6829334219675616, 3.8397587879358523 -3.5078953750270556 C5.2489395567850465 -4.33285732808655, 5.223686758974059 -5.89037060430419, 8.147569465070251 -6.778699416910285 C11.071452171166444 -7.667028229516381, 18.613313260755383 -8.623706015161748, 21.38305502451301 -8.837868250663632 C24.152796788270635 -9.052030486165517, 23.563753727159362 -8.327894258537068, 24.766020047616006 -8.063672829921597 C25.96828636807265 -7.7994514013061265, 27.80030413446544 -7.361154204731261, 28.59665294725287 -7.252539678970811 C29.393001760040303 -7.14392515321036, 28.936977623807987 -8.054570439625245, 29.544112924340606 -7.411985675358892 C30.151248224873225 -6.76940091109254, 31.099874066394037 -5.229665728447969, 32.23946475044859 -3.3970310933726977 C33.379055434503144 -1.5643964582974264, 35.84910035335821 1.0434468103113388, 36.38165702866793 3.5838221350927366 C36.91421370397765 6.124197459874134, 35.31808198996528 10.15457819765564, 35.43480480230689 11.845220855315688 C35.551527614648506 13.535863512975736, 37.67751237097317 12.963427362196827, 37.08199390271759 13.727678081053023 C36.486475434462015 14.49192879990922, 32.83263538932773 15.74867534305404, 31.861693992773418 16.430725168452863 C30.890752596219105 17.112774993851687, 33.15675992891731 16.988963550723277, 31.256345523391722 17.81997703344596 C29.355931117866138 18.65099051616864, 23.07404971964441 20.87285753519303, 20.459207559619905 21.416806064788943 C17.8443653995954 21.960754594384856, 17.2234726127885 21.434897710582618, 15.5672925632447 21.083668211021426 C13.911112513700903 20.732438711460233, 12.444488986802916 20.045273268184943, 10.522127262357117 19.309429067421796 C8.599765537911317 18.57358486665865, 5.596073486445312 17.373409132988712, 4.033122216569905 16.66860300644255 C2.4701709466944974 15.963796879896385, 2.0148671966909397 16.31821958686666, 1.144419643104675 15.08059230814481 C0.27397208951841023 13.842965029422961, -0.46580061813741624 11.009376384517592, -1.1895631049476834 9.242839334111455 C-1.9133255917579506 7.476302283705317, -3.154861789731262 5.352055130278034, -3.1981552777569275 4.481370005707982 C-3.241448765782593 3.61068488113793, -1.9540527240576315 4.354290350585881, -1.449324033101675 4.018728586691145 C-0.9445953421457186 3.6831668227964083, -0.235994111503601 3.120997233111048, -0.1697831320211891 2.4679994223395623 C-0.10357215253877723 1.8150016115680765, -1.1642996225290099 0.4378484383495258, -1.0520581562072038 0.1007417220622302 M1.4955054735392332 -0.295286787673831 C0.9852017011450137 -0.3728869270360663, -1.882925287231442 -0.4576993658005373, -1.5311364991477694 -0.7951677499420611 C-1.1793477110640969 -1.1326361340835849, 2.0379714155834314 -1.4462911262493683, 3.606238202041268 -2.320097092522974 C5.174504988499105 -3.1939030587965793, 5.153943371870977 -5.023409457115049, 7.87846421959925 -6.038003547583694 C10.602985067327523 -7.0525976380523385, 16.90484922774776 -7.971043326071972, 19.953363288410905 -8.407661635334843 C23.00187734907405 -8.844279944597716, 24.554418779692515 -8.69514343086697, 26.169548583578113 -8.657713403160924 C27.78467838746371 -8.620283375454878, 29.23550659773467 -8.313049735551155, 29.644142111724495 -8.183081469098566 C30.05277762571432 -8.053113202645976, 27.927809416758617 -8.43309291975544, 28.621361667517068 -7.877903804445387 C29.31491391827552 -7.322714689135333, 32.911235701721374 -6.77216684245878, 33.8054556162752 -4.851946777238245 C34.69967553082902 -2.93172671201771, 33.737825937507566 0.7061192840996005, 33.98668115483999 3.6434165868778248 C34.23553637217242 6.5807138896560495, 34.93106422313198 11.139955387172662, 35.298586920269734 12.771837039431098 C35.666109617407486 14.403718691689534, 36.82982754710251 12.989294301622294, 36.191817337666514 13.434706500428442 C35.55380712823052 13.88011869923459, 32.39566839611503 14.764945972817644, 31.470525663653735 15.44431023226798 C30.545382931192442 16.123674491718315, 32.47632924780788 16.579555717504704, 30.64096094289875 17.51089205713046 C28.80559263798962 18.442228396756214, 23.358532425833562 20.24756799192197, 20.458315834198952 21.032328270022518 C17.558099242564342 21.817088548123067, 15.00192937522155 22.46127711643875, 13.239661393091083 22.21945372573376 C11.477393410960616 21.97763033502877, 11.584789068175178 20.470501188597964, 9.884707941416146 19.58138792579258 C8.184626814657113 18.692274662987195, 4.703019743202094 17.566169039638304, 3.0391746325368922 16.884774148901464 C1.3753295218716903 16.203379258164624, 0.45832107902755603 16.500573857682507, -0.09836272257506606 15.493018581371548 C-0.6550465241776882 14.485463305060588, -0.1427940662756533 12.898641303679387, -0.30092817707884034 10.839442491035701 C-0.4590622878820274 8.780243678392015, -0.9479489306490406 4.452675888215464, -1.0471673873941882 3.1378257055094263 C-1.146385844139336 1.8229755228033886, -1.119446326309638 3.199716043978635, -0.8962389175497263 2.9503413947994748 C-0.6730315087898148 2.7009667456203146, 0.13765165010547667 2.2555558648888114, 0.2920770651652811 1.6415778104344645 C0.44650248022508554 1.0275997559801173, 0.28541492188646395 -0.6213780823080135, 0.030313572809100187 -0.733526931926608" stroke="#000000" stroke-width="1" fill="none"></path></g></g><g><g transform="translate(291.73913043478274 533.0434782608696) rotate(0 0.28887467356781826 9.467156919577349)"><path d="M0.08409471921622758 0.9361912865191699 C-0.5607669189842339 1.2983145818816222, -2.608926409963506 1.008916827523448, -3.5017127809803466 1.2919145167360282 C-4.394499151997187 1.5749122059486085, -4.77147079158193 2.433419547008672, -5.272623506884815 2.634177421794652 C-5.773776222187701 2.834935296580632, -5.677510113695565 1.6571278861953225, -6.508629072797658 2.496461765451909 C-7.339748031899751 3.3357956447084955, -9.408790972488777 6.471256851593834, -10.259337261497375 7.670180697334172 C-11.109883550505973 8.86910454307451, -11.60834279929056 8.694880371816138, -11.611906806849243 9.690004839893936 C-11.615470814407926 10.685129307971733, -10.800586556227563 12.80663419612622, -10.280721306849477 13.64092750580096 C-9.760856057471392 14.4752208154757, -9.034631837672332 14.261926039367676, -8.49271531058073 14.695764697942376 C-7.950798783489128 15.129603356517077, -7.965255131113569 15.617392103703397, -7.029222144299865 16.24395945724916 C-6.093189157486162 16.870526810794928, -4.35996503454725 18.151005774266736, -2.876517389698506 18.455168819216965 C-1.3930697448497618 18.759331864167194, 0.9272658594654027 17.982186314814566, 1.871463724792602 18.068937726950526 C2.8156615901198014 18.155689139086487, 1.7040082101750766 18.868719157581946, 2.78866980226469 18.97567729203272 C3.8733313943543033 19.082635426483495, 6.846803464875443 19.09787909168804, 8.379433277330282 18.710686533655167 C9.912063089785121 18.323493975622295, 11.415837771947661 16.964509973280926, 11.984448676993726 16.652521943835495 C12.55305958203979 16.340533914390065, 11.771065169265148 16.63606095742164, 11.79109870760667 16.838758356982588 M-1.3308942825347185 0.38208776660263544 C-1.6530904391677974 0.50967180110083, -0.545275122407812 -0.32978157154347704, -1.3727226720135195 -0.26653554553890446 C-2.200170221619227 -0.2032895195343319, -5.481892151120962 0.18397323839584867, -6.2955795801689645 0.7615639226300709 C-7.109267009216967 1.3391546068642932, -5.860273163298073 2.49196052350535, -6.254847246301534 3.199008559866429 C-6.649421329304994 3.906056596227508, -7.9025553801235136 3.5695359152954635, -8.663024078189729 5.0038521407965435 C-9.423492776255943 6.4381683662976235, -10.649658857926271 10.53741396737812, -10.817659434698822 11.80490591287291 C-10.985660011471372 13.0723978583677, -9.981395183833001 12.153371054017303, -9.671027538825033 12.608803813765284 C-9.360659893817065 13.064236573513266, -9.129764577216246 14.12945551505661, -8.95545356465101 14.537502471360803 C-8.781142552085775 14.945549427664995, -9.799934150564711 14.386444177658932, -8.625161463433624 15.05708555159044 C-7.450388776302537 15.727726925521948, -3.187303126874369 17.873951051957626, -1.906817441864491 18.561350714949846 C-0.6263317568546134 19.248750377942066, -1.5812347237064417 19.12053602670956, -0.9422473533743596 19.18148352954376 C-0.3032599830422775 19.242431032377958, 0.3629510931897555 19.160625159149784, 1.9271067801280015 18.92703573195505 C3.4912624670662478 18.693446304760318, 6.881405146107895 18.25563386339748, 8.442686768255117 17.779946966375352 C10.003968390402338 17.304260069353223, 10.696422958429135 16.352046620600717, 11.294796513011333 16.07291434982228 C11.89317006759353 15.793782079043844, 11.712567943026897 16.14645321082054, 12.032928095748302 16.105153341704728" stroke="#000000" stroke-width="1" fill="none"></path></g></g><g><g transform="translate(287.17391304347836 539.1304347826087) rotate(0 0.8380690847115488 0.4418623655473084)"><path d="M0.0769966285675765 -0.8957424145191908 C-0.027292282042503682 -0.7924131407632028, -0.728595166496776 0.3102542636672296, -0.8516564732497955 0.6903797567375931 C-0.9747177800028151 1.0705052498079566, -1.117887790700873 1.2761362372587506, -0.6613712119505408 1.3850105439029905 C-0.20485463320020858 1.4938848505472304, 1.5389753819754104 1.3125473911834131, 1.8874429992521982 1.343625596603033 C2.2359106165289857 1.374703802022653, 1.6055545941157334 1.7547980670966277, 1.4294344917101853 1.5714797764207105 C1.2533143893046372 1.3881614857447933, 0.8835837748981894 0.5390647751319042, 0.8307223848189097 0.2437158525475298 C0.77786099473963 -0.051633070036844586, 1.22184735168906 -0.2659069075478707, 1.1122661512345073 -0.20061375908553603 M-1.3417188707739116 1.2483888725191354 C-1.5826937917447095 0.9813120240674817, -1.813313454381965 -1.3762202422937118, -1.7902998462027335 -1.1838760545364586 C-1.7672862380235022 -0.9915318667792055, -1.9087650312990747 1.8508553214619936, -1.2036372216985227 2.4024539990626543 C-0.4985094120979707 2.954052676663315, 1.6638889567306023 2.1757143990469343, 2.4404670114005786 2.1257160110675066 C3.217045066070555 2.075717623088079, 3.5301911741657253 2.5871536602415217, 3.4558311063213343 2.102463671186088 C3.3814710384769433 1.617773682130654, 2.790420472059387 -0.15672655669573643, 1.9943066043342332 -0.7824239232650962 C1.1981927366090797 -1.408121289834456, -0.8615313003471297 -1.8868193464769516, -1.3208521000295876 -1.651720528230071" stroke="#000000" stroke-width="1" fill="none"></path></g></g><g><g transform="translate(294.3478260869566 537.608695652174) rotate(0 0.6950975070801633 2.162650625699598)"><path d="M1.0991105217486619 0.7639953296631574 C0.9572120425979883 0.8303343337029218, 0.16994344216874802 0.8369983726167673, -0.23361574276948427 1.0214372914284466 C-0.6371749277077166 1.205876210240126, -1.1950336772840047 1.6148710678830562, -1.322244587880732 1.8706288425332331 C-1.4494554984774595 2.12638661718341, -1.0992619252237472 2.1131147717597516, -0.9968812063498491 2.555983939329508 C-0.8945004874759511 2.998853106899264, -0.9759828168790363 4.2435913572654345, -0.7079602746373439 4.527843847951772 C-0.4399377323956514 4.812096338638109, 0.19985583723131795 4.693292905751946, 0.6112540471003058 4.26149888344753 C1.0226522569692937 3.8297048611431137, 1.2751868878207613 2.510030112701694, 1.7604289845765835 1.9370797141252751 C2.245671081332406 1.364129315548856, 3.641831093211352 1.2533380848288516, 3.5227066276352392 0.8237964919890146 C3.4035821620591267 0.3942548991491776, 1.32472175701483 -0.5270816309350341, 1.0456821911199086 -0.6401698429137468 C0.7666426252249872 -0.7532580548924594, 1.8252018295822343 0.21026938734162287, 1.848469232265711 0.14526722011673887 C1.8717366349491877 0.08026505289185486, 1.48606013988779 -0.8098280561629128, 1.185286607220769 -1.030182846263051 M0.21700481632724422 0.11948893239721659 C-0.10034643579839725 -0.18497633824124932, -0.5952159892105404 -0.5539137370152776, -0.9619181670028911 -0.5648828793503344 C-1.3286203447952418 -0.5758520216853913, -2.0834777257296766 -0.607791453140247, -1.9832082504268602 0.053674078386875435 C-1.8829387751240438 0.7151396099139978, -0.34181424109590947 2.5202753065998285, -0.36030131518599307 3.4039103098123995 C-0.37878838927607666 4.287545313024971, -2.4498055515143595 5.336367775575094, -2.0941306949673617 5.355484097662302 C-1.7384558384203639 5.37460041974951, 1.0603440627696012 3.78042786423895, 1.7737478240959943 3.5186082423356493 C2.4871515854223873 3.2567886204323484, 1.9667680139928567 4.332571565925369, 2.186291872990996 3.7845663662424975 C2.4058157319891356 3.2365611665596252, 3.0103196532509013 0.6446197539500871, 3.090890978084831 0.2305770442384163 C3.1714623029187603 -0.1834656654732545, 3.2921719081789145 1.3391652105962126, 2.669719821994572 1.3003101079724728 C2.04726773581023 1.261455005348733, 0.05648938440137108 0.3118280618968949, -0.6438215390212236 -0.002553571504022134 C-1.3441324624438185 -0.31693520490493915, -1.415160402584066 -0.8266337151180398, -1.5321457185409963 -0.5859796924330294" stroke="#000000" stroke-width="1" fill="none"></path></g></g><g><g transform="translate(289.5652173913045 546.5217391304348) rotate(0 3.187434037838443 0.1741652081032612)"><path d="M0.592952899262309 0.029400290921330452 C1.6288543398343525 0.07711350654888069, 5.183478173608125 1.3140486737579067, 6.216225672237874 1.325076769535417 C7.248973170867623 1.3361048653129275, 6.892806326257785 0.3860588479356694, 6.789437891040802 0.09556886558639244 M-0.5548855579644443 -1.0007685016840697 C0.39129937183489416 -0.8187467953033457, 4.520533171886743 -1.064129419079427, 5.67843781697035 -0.6724848491503055 C6.836342462053956 -0.2808402792211839, 6.408086975323757 1.1782699114398882, 6.392542312537193 1.34909891789066" stroke="#000000" stroke-width="1" fill="none"></path></g></g><g><g transform="translate(318.04347826086973 527.3913043478261) rotate(0 2.647640427964518 3.0024056303005295)"><path d="M0.372044052556157 -0.2615390617400408 C0.2425280807296833 0.06573852589489965, -1.0061631386208927 0.3078312837073972, -1.4042231665519467 1.100049111068961 C-1.8022831944830007 1.8922669384305246, -1.9674085111236157 3.7382523073180516, -2.0163161150301674 4.491767902429342 C-2.065223718936719 5.245283497540633, -1.7359169290063958 5.245224281794606, -1.6976687899912575 5.621142681736705 C-1.6594206509761191 5.997061081678805, -1.9192732045994565 6.419662522184509, -1.7868272809393375 6.7472783020819405 C-1.6543813572792185 7.074894081979372, -1.8254640976965826 7.292105305491786, -0.9029932480305434 7.586837361121297 C0.019477601635495945 7.881569416750809, 2.661578206183397 8.664779088068542, 3.7479978170568984 8.51567063585901 C4.8344174279304 8.366562183649478, 5.020925371159816 7.362504302715661, 5.615524417210463 6.692186647864105 C6.210123463261111 6.021868993012549, 7.26113841823582 5.216934489118693, 7.315592093360783 4.493764706749675 C7.370045768485745 3.770594924380657, 6.28095613109565 3.062389627180077, 5.94224646796024 2.353167953649995 C5.603536804824831 1.6439462801199132, 5.434331287988959 0.6519793254256228, 5.283334114548325 0.23843466556918425 C5.13233694110769 -0.17510999428725427, 5.996916168976687 0.3331462992652633, 5.03626342731643 -0.1281000054886362 C4.075610685656174 -0.5893463102425357, 0.5050118312940829 -2.391282904369435, -0.4805823354132144 -2.5290431629542125 C-1.4661765021205118 -2.66680342153899, -0.8243231949977258 -1.1701631244163346, -0.8773015729273539 -0.9546615569973027 M-0.891771549191326 -1.4444510144926608 C-0.5802394776475528 -1.427071901670228, 0.6802432142157463 -1.5511109389064444, 0.9129055117289138 -0.9015215935290191 C1.1455678092420811 -0.25193224815159376, 0.9325636961432218 1.1466692848241822, 0.5042022358876785 2.453085057771891 C0.07584077563213532 3.7595008307196, -1.5599957305600924 6.117394483315972, -1.6572632498043458 6.936973044157234 C-1.7545307690485992 7.756551604998497, -0.36147556670098147 7.3994415194679375, -0.07940287957784209 7.3705564228194635 C0.2026698075452973 7.34167132617099, -0.7334862292997938 6.755790686885665, 0.03517287293449045 6.76366246426639 C0.8038319751687747 6.771534241647115, 3.73862347014808 7.566715927272823, 4.532551733827863 7.417787087103811 C5.326479997507646 7.268858246934799, 4.54409060103541 6.041315627531858, 4.798742455013189 5.870089423252316 C5.053394308990968 5.698863218972774, 5.792598620888781 7.112376750199882, 6.060462857694538 6.3904298614265596 C6.3283270945002945 5.668482972653237, 6.5143407811658705 2.4928331667808963, 6.405927875847729 1.538408090612379 C6.297514970529587 0.5839830144438617, 5.79443135913977 1.0425138461522738, 5.40998542578569 0.6638794044154566 C5.02553949243161 0.2852449626786393, 5.008766165144854 -0.5856886671744905, 4.099252275723252 -0.7333985598085246 C3.189738386301651 -0.8811084524425588, 0.8623468179398114 -0.18414252841626721, -0.04709791074391889 -0.2223799513887479 C-0.9565426394276492 -0.26061737436122856, -1.3312355596407928 -0.7069168099093568, -1.357416096379129 -0.9628230976434087" stroke="#000000" stroke-width="1" fill="none"></path></g></g><g><g transform="translate(316.73913043478274 525.8695652173914) rotate(0 2.5365768147207177 3.398229772983882)"><path d="M-0.37478275112807746 0.061820296570658684 C-0.08968326323598602 -0.3428286495901944, 0.9150767624863798 -1.0353951198953004, 1.362318370960952 -2.1820892557339677 C1.8095599794355244 -3.3287833915726353, 2.1624573879970095 -5.815076172054925, 2.3086668997193556 -6.818344518461345 C2.4548764114417017 -7.821612864867764, 2.0262146802538044 -7.865082511743165, 2.2395754412950284 -8.201699334172485 C2.4529362023362524 -8.538316156601805, 2.775988691057224 -8.52235774601392, 3.5888314659667 -8.838045453037262 C4.401674240876177 -9.153733160060604, 6.3330102783668245 -9.87244715764582, 7.116632090751887 -10.09582557631254 C7.900253903136949 -10.319203994979262, 7.922093859925029 -10.252215096446239, 8.290562340277074 -10.178315965037587 C8.659030820629118 -10.104416833628935, 9.059862050937792 -10.393142080701056, 9.327442972864151 -9.652430787860634 C9.595023894790511 -8.911719495020213, 9.748767403205473 -6.76752044934833, 9.896047871835231 -5.734048207995056 C10.043328340464988 -4.700575966641782, 10.476911245702206 -4.272331173572278, 10.211125784642695 -3.451597339740988 C9.945340323583183 -2.6308635059096974, 8.799021945445695 -1.3928308133252056, 8.301335105478165 -0.8096452050073142 C7.803648265510636 -0.22645959668942273, 7.278302733584003 0.04545572904892955, 7.22500474483752 0.04751631016636115 C7.171706756091036 0.04957689128379276, 7.960163589453577 -0.4955473998804866, 7.981547172999262 -0.7972817183027245 C8.002930756544947 -1.0990160367249624, 7.341605298550504 -1.5430974394137822, 7.353306246111629 -1.7628896003670662 C7.365007193672754 -1.9826817613203502, 7.53770495977632 -2.0337417103727677, 8.051752858366012 -2.1160346840224293 C8.565800756955703 -2.198327657672091, 9.77998555065604 -2.2508176151014974, 10.437593637649774 -2.2566474422650344 C11.095201724643509 -2.2624772694285715, 11.242321724439263 -2.259054086740654, 11.997401380328416 -2.1510136470036514 C12.752481036217569 -2.0429732072666487, 14.66394705647685 -2.075404922561643, 14.968071572984694 -1.6084048038430183 C15.272196089492539 -1.141404685124394, 14.124635203641594 0.10649469429489111, 13.822148479375482 0.6509870653080951 C13.51966175510937 1.1954794363212993, 13.331475266646844 1.0846252962676695, 13.153151227388026 1.6585494222362058 C12.974827188129208 2.232473548204742, 12.912893529176912 3.8168802328244893, 12.752204243822575 4.094531821119313 C12.591514958468238 4.372183409414136, 12.925718675278446 3.5154497284334107, 12.189015515262009 3.3244589520051475 C11.45231235524557 3.1334681755768843, 8.744855702403845 2.974538273866415, 8.331985283723952 2.948587162549734 C7.91911486504406 2.922636051233053, 8.873249689527336 2.6850385392435783, 9.711793003182652 3.168752284105062 C10.550336316837969 3.652466028966546, 12.725762608739176 5.312973403018199, 13.363245165655849 5.850869631718638 C14.000727722572522 6.388765860419077, 13.175368977419078 6.19098145922347, 13.536688344682693 6.396129656307698 C13.898007711946308 6.6012778533919265, 15.395003684323967 6.841686582689408, 15.531161369237543 7.081758814224008 C15.667319054151118 7.321831045758608, 14.639989525819361 7.240197929043454, 14.353634454164148 7.8365630455153 C14.067279382508934 8.432928161987146, 14.182638655154824 9.873711383985242, 13.813030939306259 10.659949513055086 C13.443423223457694 11.44618764212493, 12.675839538985592 12.16198057777965, 12.135988159072758 12.553991819934367 C11.596136779159924 12.946003062089085, 11.40939753708307 12.964744421488819, 10.57392265982926 13.012016965983388 C9.738447782575449 13.059289510477958, 7.925795771899678 13.184806817116737, 7.123138895549891 12.837627086901785 C6.320482019200104 12.490447356686833, 5.905521215525486 11.058072889493568, 5.757981401730535 10.928938584693674 C5.6104415879355845 10.79980427989378, 5.988622660702822 12.229092464536627, 6.237900012780187 12.062821258102417 C6.487177364857553 11.896550051668207, 6.9296020251739225 9.66138615620633, 7.253645514194727 9.93131134608841 C7.577689003215532 10.20123653597049, 7.8523056560291025 13.01298884476761, 8.182160946905014 13.682372397394897 C8.512016237780927 14.351755950022183, 8.875830126807491 13.975761270992757, 9.232777259450199 13.947612661852123 C9.589724392092906 13.919464052711488, 10.936080208512506 13.019049456451057, 10.323843742761255 13.513480742551087 C9.711607277010005 14.007912028651116, 6.766747130480587 16.433344123798648, 5.559358464942693 16.9142003784523 C4.351969799404799 17.395056633105952, 3.9194172760337174 16.592780696778853, 3.07951174953389 16.398618270473 C2.239606223034063 16.20445584416715, 1.3068692839285556 15.808943648047883, 0.5199253059437297 15.749225820617198 C-0.2670186720410963 15.689507993186513, -1.2304404443966368 16.087569397725627, -1.6421521183750656 16.040311305888896 C-2.0538637923534946 15.993053214052164, -1.4376023825041293 16.011336168468674, -1.9503447379268437 15.465677269596814 C-2.463087093349558 14.920018370724954, -4.523695907941578 13.806711811556157, -4.718606250911352 12.766357912657735 C-4.913516593881127 11.726004013759313, -3.4518255341258812 10.02529438660089, -3.1198067957454896 9.223553876206278 C-2.787788057365098 8.421813365811666, -2.988577432082794 8.038196219520072, -2.7264938206290026 7.95591485029006 C-2.4644102091752114 7.873633481060047, -1.8491281260993069 8.669558395288822, -1.5473051270227416 8.729865660826203 C-1.2454821279461763 8.790172926363583, -0.8220633343023869 8.480789888374902, -0.9155558261696115 8.317758443514345 C-1.0090483180368361 8.154726998653787, -2.0057910121383276 7.386690751144609, -2.1082600782260896 7.751676991662862 C-2.2107291443138517 8.116663232181114, -1.594229758169172 10.18461878052976, -1.5303702226961833 10.507675886623861 C-1.4665106872231946 10.830732992717962, -1.2509030169712334 9.74162719918664, -1.7251028653881577 9.69001962822747 C-2.199302713805082 9.6384120572683, -3.5453521226141826 10.359863206220506, -4.37556931319773 10.198030460868836 C-5.205786503781277 10.036197715517165, -6.1359261537321235 9.223125948200785, -6.70640600888944 8.71902315611744 C-7.276885864046756 8.214920364034096, -7.4714123683077105 8.060815794523037, -7.798448444141627 7.173413708368775 C-8.125484519975544 6.286011622214513, -8.175275334105713 4.156811149002669, -8.66862246389294 3.394610639191865 C-9.161969593680166 2.6324101293810602, -10.661780117079616 2.871388739730776, -10.758531222864985 2.600210649503947 C-10.855282328650354 2.3290325592771186, -9.65211546977681 2.12546274950862, -9.249129098605158 1.767542097830892 C-8.846142727433506 1.4096214461531644, -8.90935759945512 0.6819253955576036, -8.340612995835068 0.4526867394375813 C-7.771868392215016 0.22344808331755908, -7.019810747792523 0.6487266396644713, -5.836661476884842 0.3921101611107587 C-4.653512205977162 0.13549368255704614, -2.075797045959769 -1.000654797326187, -1.2417173703889832 -1.0870121318846941 C-0.40763769481819756 -1.1733694664432013, -1.2888811523013337 -0.6458708558015247, -0.8321834234601284 -0.12603384624028424 C-0.3754856946189231 0.3938031633209562, 1.1809630809972682 1.1413465872569453, 1.4984690026582483 2.032009925482748 C1.8159749243192285 2.922673263708551, 0.9498091296495205 4.720555283490898, 1.0728521065057521 5.217946183114532 M1.6293175751902162 -0.9513279930688441 C1.868029527152628 -1.6887238008067311, 0.82774275905652 -2.935074682661405, 0.9012291825230432 -3.7383043420338935 C0.9747156059895664 -4.541534001406382, 1.800283105345615 -5.139874037523934, 2.0702361159893554 -5.770705949303775 C2.3401891266330956 -6.401537861083615, 1.9884506257356112 -7.083758159437784, 2.5209472463854854 -7.523295812712936 C3.0534438670353596 -7.962833465988088, 4.783798824175406 -8.369421998230287, 5.265215839888601 -8.407931868954687 C5.746632855601796 -8.446441739679088, 4.814491542022993 -7.81036921070352, 5.409449340664655 -7.7543550370593355 C6.004407139306317 -7.698340863415151, 8.316670711669234 -7.653004551938286, 8.834962631738572 -8.07184682708958 C9.35325455180791 -8.490689102240873, 8.59205599421852 -10.41930597674391, 8.519200861080677 -10.267408687967094 C8.446345727942834 -10.115511399190279, 7.931341518619645 -8.242395291831881, 8.39783183291152 -7.160463094428687 C8.864322147203394 -6.078530897025494, 11.353389722245186 -4.469789967409855, 11.318142746831922 -3.775815503547933 C11.282895771418659 -3.0818410396860103, 8.56558461176128 -3.5863650937035767, 8.186349980431942 -2.996616311257153 C7.807115349102604 -2.406867528810729, 9.025054589214433 -0.41572113458044135, 9.042734958855895 -0.2373228088693895 C9.060415328497358 -0.058924483158337676, 8.751779336089522 -1.5618415362444997, 8.292432198280721 -1.926226356990842 C7.833085060471921 -2.2906111777371843, 6.347348871281074 -2.285098162019517, 6.286652132003096 -2.4236317333474426 C6.225955392725117 -2.5621653046753683, 7.120824058339068 -2.4717349880007426, 7.928251762612849 -2.757427784958395 C8.73567946688663 -3.0431205819160474, 10.086481170686952 -3.8507431030556667, 11.13121835764578 -4.137788515093357 C12.175955544604609 -4.424833927131047, 13.679092688722758 -4.897837158098411, 14.196674884365825 -4.479700257184536 C14.714257080008892 -4.0615633562706615, 13.966309546195795 -2.545663699423817, 14.236711531504184 -1.6289671096101075 C14.507113516812574 -0.712270519796398, 16.023217289627286 0.24236730955403196, 15.819086796216162 1.0204792816977215 C15.614956302805037 1.798591253841411, 13.138486440629016 2.67100458975042, 13.011928571037442 3.03970472325203 C12.885370701445868 3.4084048567536396, 15.147769235033742 2.8520776478597067, 15.059739578666719 3.2326800827073794 C14.971709922299695 3.613282517555052, 13.640139840286544 4.989505834326516, 12.4837506328353 5.323319332338064 C11.327361425384055 5.657132830349613, 8.317143268488259 5.197640734649389, 8.121404333959253 5.23556107077667 C7.925665399430247 5.273481406903952, 10.742134144511553 5.9165650824249685, 11.309317025661262 5.550841349101752 C11.87649990681097 5.185117615778536, 10.99352851759512 2.84115978833311, 11.524501620857505 3.0412186708373747 C12.05547472411989 3.2412775533416394, 14.090374513517112 6.083214447383574, 14.495155645235569 6.75119464412734 C14.899936776954025 7.419174840871106, 13.743575160682887 6.565421904132935, 13.953188411168249 7.0490998512999745 C14.16280166165361 7.532777798467014, 15.767690926356407 9.304503252685201, 15.752835148147733 9.653262327129573 C15.73797936993906 10.002021401573945, 14.744916165935665 8.811434285966564, 13.864053741916209 9.14165429796621 C12.983191317896752 9.471874309965857, 11.028041079474342 11.242541510218471, 10.467660604030998 11.634582399127453 C9.907280128587654 12.026623288036435, 11.006167291392277 11.52755468122962, 10.50177088925615 11.493899631420105 C9.997374487120023 11.460244581610588, 8.52984372004033 11.643311514480562, 7.441282191214231 11.432652100270362 C6.352720662388133 11.221992686060162, 4.405767664657004 10.454418917028024, 3.9704017162995613 10.229943146158908 C3.5350357679421185 10.005467375289792, 4.52771777638307 9.739421465765885, 4.829086501069574 10.085797475055665 C5.130455225756077 10.432173484345446, 5.230820362609198 11.991752494381121, 5.778614064418584 12.308199201897592 C6.3264077662279705 12.624645909414063, 7.255815691324143 11.865902571615232, 8.115848711925892 11.984477720154496 C8.975881732527641 12.10305286869376, 10.97433878821547 12.357356095467061, 10.938812188029083 13.019650093133182 C10.903285587842696 13.681944090799302, 8.409852407685033 15.746875713482469, 7.902689110807569 15.958241706151217 C7.395525813930105 16.169607698819966, 8.878000293717712 14.244786743044148, 7.895832406764298 14.287846049145669 C6.913664519810884 14.33090535524719, 3.1060908755339263 15.954102171371984, 2.009681789087085 16.21659754276034 C0.9132727026402438 16.479092914148694, 1.6757693690387727 15.884952003348756, 1.3173778880832514 15.862818277475803 C0.9589864071277301 15.84068455160285, 0.47887828406895017 16.131911160070914, -0.14066709664604327 16.083795187522625 C-0.7602124773610367 16.035679214974337, -1.6463922132893734 16.4874143339216, -2.3998943962067094 15.574122442186084 C-3.1533965791240455 14.66083055045057, -4.484571329685418 11.759228814656524, -4.661680194150058 10.604043837109534 C-4.838789058614698 9.448858859562545, -3.6035688763876426 9.132420069115053, -3.462547582994548 8.643012576904148 C-3.3215262896014535 8.153605084693243, -4.0447567910233655 7.664360799190948, -3.81555243379149 7.667598883844107 C-3.5863480765596147 7.670836968497266, -2.6987028332311396 8.798870434585897, -2.087321439603297 8.662441084823099 C-1.4759400459754546 8.526011735060301, -0.05061442523949437 6.701079263244218, -0.14726407202443603 6.849022785267321 C-0.24391371880937768 6.996966307290424, -2.5773766953462864 8.924176619758775, -2.667219320312947 9.550102216961713 C-2.7570619452796077 10.176027814164652, -1.0338658837151207 10.359202552037946, -0.6863198218243998 10.604576368484945 C-0.33877375993367886 10.849950184931945, 0.002331454726127169 10.65281050246458, -0.5819429489686216 11.022345115643708 C-1.1662173526633706 11.391879728822834, -3.306119593193777 13.323290858620494, -4.191966243992892 12.821784047559708 C-5.077812894792008 12.320277236498923, -5.219717153960499 8.897753924301677, -5.897022853763315 8.013304249278995 C-6.574328553566131 7.128854574256313, -7.694378002158255 7.916704194880255, -8.255800442809791 7.515085997423617 C-8.817222883461326 7.113467799966978, -8.946301690903377 6.1335421688981935, -9.26555749767253 5.603595064539164 C-9.584813304441683 5.073647960180134, -9.968718740250916 5.107109637923152, -10.171335283424705 4.335403371269436 C-10.373951826598494 3.5636971046157195, -10.978638825599822 1.5665538169829554, -10.48125675671527 0.9733574646168655 C-9.983874687830719 0.38016111225077565, -8.052439545809479 1.1132929242755685, -7.187042870117398 0.7762252570728969 C-6.321646194425316 0.4391575898702254, -6.277832002909433 -0.775279108685702, -5.28887670256278 -1.0490485385991635 C-4.2999214022161265 -1.322817968512625, -2.1972756571719922 -1.1646966225797035, -1.2533110680374784 -0.8663913224078715 C-0.3093464789029644 -0.5680860222360395, -0.14182796479319748 0.18854334943297346, 0.37491083224430444 0.7407832624318282 C0.8916496292818064 1.2930231754306831, 1.4290639554398754 1.638656806347377, 1.8471217141875331 2.4470481555852572 C2.265179472935191 3.2554395048231375, 2.9313948438891475 5.454567344531747, 2.8832573847302503 5.591131357859108" stroke="#000000" stroke-width="1" fill="none"></path></g></g><g><g transform="translate(307.608695652174 563.6956521739131) rotate(0 1.6170085586082905 2.5323431675142274)"><path d="M0.4624211210757494 -0.8700645525008439 C0.6063995379954576 -0.9965970734377302, 1.389942057198584 -2.256232329258262, 1.1139862317591904 -1.822780665156006 C0.8380304063197968 -1.3893290010537498, -1.0240989576593051 0.4800843919047302, -1.1933138315606129 1.7306454321126923 C-1.3625287054619206 2.9812064723206544, -0.05066619441451706 4.91531782197241, 0.09869698835134377 5.680585576091767 C0.2480601711172046 6.445853330211124, -0.5397923820637704 6.225403656427129, -0.29713473496544784 6.322251956828836 C-0.05447708786712524 6.419100257230544, 0.9512037449611209 6.663219393287602, 1.5546428709412794 6.261675378502014 C2.158081996921438 5.860131363716426, 3.0328986062142804 4.506591579485398, 3.3235000209155032 3.912987868115306 C3.614101435616726 3.3193841567452145, 3.385031891176993 3.3034045065173476, 3.2982513591486167 2.700053110281465 C3.21147082712024 2.096701714045582, 3.028789167953827 0.5978683263872502, 2.8028168287452444 0.29287949070001107 C2.576844489536662 -0.012109344987228099, 1.8918381151568269 0.807511805230024, 1.9424173238971207 0.8701200961580298 M-0.7539465196989477 1.2875476120971143 C-0.692400722708553 1.3560184832605622, 0.4079992900143566 -1.13554707911381, 0.7507835398055613 -0.8999239587937882 C1.0935677895967661 -0.6643008384737663, 1.3236107651762656 1.4561153877318984, 1.302758979048281 2.7012863340172455 C1.2819071929202963 3.9464572803025924, 0.591533378822932 5.900917566869746, 0.6256728230376529 6.571101718918294 C0.6598122672523739 7.241285870966843, 1.0954935572310742 6.912979357883645, 1.5075956443366065 6.722391246308539 C1.9196977314421388 6.531803134733432, 3.1978887524923167 5.605217931643876, 3.0982853456708472 5.4275730494676555 C2.9986819388493777 5.249928167291435, 1.0443436019342196 6.197979976683568, 0.909975203407789 5.656521953251213 C0.7756068048813584 5.115063929818858, 1.7043530440615062 2.7247753948511146, 2.2920749545122634 2.1788249088735254 C2.8797968649630206 1.6328744228959362, 4.462939927252181 2.579170417251879, 4.436306666112332 2.380819037385677 C4.409673404972482 2.1824676575194752, 2.295066241641728 1.6424053578723397, 2.132275387673167 0.9887166296763144" stroke="#000000" stroke-width="1" fill="none"></path></g></g><g><g transform="translate(316.3043478260871 565.2173913043479) rotate(0 3.1587802390195634 3.8690586245520535)"><path d="M1.0704160708934067 0.4541580956429243 C1.4186789843969145 1.3576036495952812, 1.681331828846654 5.096246489185914, 2.152391301338435 6.306593864330057 C2.6234507738302155 7.5169412394742, 3.6258737003943904 7.881275794250246, 3.8967729058440908 7.716242346507784 C4.167672111293791 7.551208898765322, 3.5261830901376205 5.8940889603363305, 3.777786534036636 5.316393177875284 C4.029389977935652 4.7386973954142375, 5.231972513644833 4.714771365897976, 5.406393569238185 4.250067651741506 C5.580814624831537 3.7853639375850356, 4.780777176701724 3.1675603368522687, 4.8243128675967455 2.5281708929364637 M0.17324577877297997 -0.3530128494836391 C0.4512167374014954 0.6774789337119962, 1.2341078222124482 6.7862222494483735, 1.7636990970008672 7.845198285629008 C2.2932903717892863 8.904174321809643, 2.985797329577713 6.3247801023957395, 3.350793427503495 6.000843367600169 C3.7157895254292774 5.676906632804598, 3.782641581243207 6.231913118092152, 3.9536756845555603 5.901577876855585 C4.124709787867913 5.571242635619019, 4.011891544925858 4.666330332217984, 4.376998047377615 4.018831920180769 C4.742104549829373 3.3713335081435547, 5.763640409809798 2.3286856966668834, 6.144314699266106 2.016587404632296" stroke="#000000" stroke-width="1" fill="none"></path></g></g><g><g transform="translate(324.5652173913045 564.5652173913044) rotate(0 5.114442540909806 3.0392019570269326)"><path d="M-0.6309162955731153 1.039496390148997 C-0.4013158043603502 1.3094454025390745, 0.5388631049759776 0.6464475408358, 1.3824227952924957 1.4785776500630392 C2.2259824856090136 2.3107077592902785, 3.570692962283889 4.931576608526424, 4.430441846325993 6.032277045512433 C5.2901907303680975 7.1329774824984415, 6.030122347807783 7.701068419428588, 6.54091609954512 8.082780271979095 C7.051709851282457 8.4644921245296, 7.0475872825506745 8.60745513641649, 7.495204356750014 8.322548160815472 C7.942821430949353 8.037641185214454, 9.077034883530438 7.024775942290879, 9.226618544741154 6.373338418372986 C9.37620220595187 5.721900894455094, 8.150814668126923 4.963250952824096, 8.392706324014307 4.413923017308116 C8.634597979901692 3.864595081792137, 10.324424930894077 3.8361290428463426, 10.677968480065465 3.07737080527711 C11.031512029236852 2.3186125677078775, 10.815462018921933 0.7265356723326856, 10.513967619042637 -0.13862640810727955 C10.212473219163341 -1.0037884885472446, 9.39329424488044 -1.9485778382345036, 8.869002080789688 -2.1136016773626807 C8.344709916698935 -2.2786255164908575, 7.881779278323434 -1.099122713662746, 7.368214634498122 -1.1287694428763417 M1.2387139199115338 0.5396280496381225 C1.3737681628075342 0.5076245634730164, 0.4632560617879123 -1.1311341902638357, 0.8177579948460152 -0.09600470199778566 C1.1722599279041181 0.9391247862682643, 2.2929510517853 5.161814931123421, 3.365725518260151 6.750404979234422 C4.438499984735002 8.338995027345424, 6.764192427451063 9.617882880164357, 7.254404793695121 9.435535586668225 C7.744617159939179 9.253188293172093, 6.268421458811653 6.3339774300847305, 6.3069997157245 5.656321218257631 C6.345577972637348 4.978665006430531, 7.114672543158384 5.242243842786856, 7.485874335172207 5.369598315705625 C7.857076127186031 5.4969527886243945, 8.113839509394538 6.875363781894634, 8.534210467807442 6.420448055770248 C8.954581426220347 5.965532329645863, 9.892796994847506 3.4040281388398315, 10.00810008564964 2.640103958959312 C10.123403176451772 1.8761797790787922, 9.272724720630757 2.1844098589490764, 9.226029012620243 1.836902976487131 C9.17933330460973 1.4893960940251856, 9.948156404687674 1.422738216806303, 9.727925837586554 0.5550626641876399 C9.507695270485433 -0.3126128884310231, 8.289072153095535 -2.7947645895444473, 7.904645610013517 -3.3691503392248476" stroke="#000000" stroke-width="1" fill="none"></path></g></g><g><g transform="translate(335.217391304348 560.6521739130435) rotate(0 5.024557400074855 0.0018989669879942994)"><path d="M-1.0266451556235552 0.4116928953677417 C-0.6481907338821884 0.29667897618011624, 1.1472540979313672 -0.8713517963400288, 1.6973175136452936 -0.5167336082490692 C2.24738092935922 -0.1621154201581097, 1.7470040875446213 2.0632953752264935, 2.2737353386600034 2.5394020239134987 C2.8004665897753855 3.015508672600504, 3.92960827898606 2.1864523303304093, 4.857705020337585 2.3399062838729607 C5.78580176168911 2.493360237415512, 7.324495347810549 3.385948658815505, 7.842315786769154 3.460125745168807 C8.360136225727759 3.5343028315221092, 7.8001734532685685 2.8539221479895107, 7.964627654089213 2.7849688019927727 C8.129081854909858 2.7160154559960348, 8.461512847001716 3.208376753637989, 8.829040991693024 3.04640566918838 C9.196569136384332 2.884434584738771, 10.10789804695634 2.281407237706185, 10.16979652223706 1.81314229529512 C10.231694997517781 1.344877352884055, 9.929061170716025 0.9581484436610935, 9.20043184337735 0.23681601472198954 C8.471802516038675 -0.48451641421711444, 6.624103674632726 -1.9871739788710254, 5.798020558205008 -2.5148522783395038 C4.971937441777289 -3.042530577807982, 4.533561571217737 -2.6986711103360297, 4.243933144811035 -2.929253782088881 M0.6352274083346128 -0.4177722799032926 C0.9782621561563019 -0.44586597585483395, 1.067682760827524 -0.2993651359787387, 1.18384200555146 0.4070151942936173 C1.3000012502753961 1.1133955245659735, 0.6150863873731508 3.4139903981671296, 1.33218287667823 3.8205097017308436 C2.0492793659833093 4.227029005294558, 4.569060646411025 2.8616803008113285, 5.486420941381935 2.846131015675901 C6.403781236352845 2.830581730540474, 6.213858432246012 3.3613974430476445, 6.836344646503689 3.7272139909182807 C7.458830860761366 4.093030538788916, 8.808437122878592 5.359517893433808, 9.221338226927998 5.041030302899717 C9.634239330977403 4.722542712365626, 9.273741188700361 2.442658889005382, 9.313751270800116 1.8162884477137322 C9.353761352899872 1.1899180064220825, 9.180854366407672 1.7559034729576115, 9.461398719526528 1.282807655149818 C9.741943072645384 0.8097118373420245, 11.466832992334107 -0.39825022999250925, 10.997017389513253 -1.0222864591330292 C10.5272017866924 -1.646322688273549, 7.723727741581618 -1.7838382889687194, 6.642505102601408 -2.4614097196933016 C5.561282463621199 -3.1389811504178837, 4.5906488454115 -4.778858503166878, 4.509681555631996 -5.087715043480521" stroke="#000000" stroke-width="1" fill="none"></path></g></g></svg>