<?xml version="1.0" standalone="no"?>
<!DOCTYPE svg PUBLIC "-//W3C//DTD SVG 20010904//EN"
 "http://www.w3.org/TR/2001/REC-SVG-20010904/DTD/svg10.dtd">
<svg version="1.0" xmlns="http://www.w3.org/2000/svg"
 width="90.000000pt" height="90.000000pt" viewBox="0 0 90.000000 90.000000"
 preserveAspectRatio="xMidYMid meet">

<g transform="translate(0.000000,90.000000) scale(0.100000,-0.100000)"
fill="#000000" stroke="none">
<path d="M305 806 c-39 -17 -60 -42 -75 -91 -7 -22 -17 -50 -22 -61 -11 -23 7
-69 36 -93 22 -18 20 -29 -6 -36 -13 -4 -51 -21 -86 -38 -43 -21 -61 -36 -57
-45 3 -8 0 -21 -6 -29 -17 -20 -8 -24 59 -26 l60 -2 4 -40 c3 -28 -2 -53 -19
-84 -13 -24 -23 -59 -23 -77 0 -18 -4 -35 -10 -39 -15 -9 0 -35 22 -35 10 0
16 -4 13 -10 -8 -13 -7 -13 47 5 30 11 49 24 57 41 9 21 16 25 39 20 15 -3 44
-8 65 -12 34 -6 38 -10 48 -51 8 -31 16 -43 26 -39 7 3 22 0 33 -6 14 -9 22
-9 33 0 8 7 22 10 30 6 13 -5 15 0 10 29 l-5 35 85 -1 c72 -2 90 1 114 19 79
59 51 184 -42 184 -38 0 -64 -16 -112 -69 l-42 -46 19 53 c36 96 21 190 -45
276 -22 29 -24 37 -14 65 24 69 -14 161 -81 196 -36 18 -114 19 -155 1z"/>
</g>
</svg>
